<svg width="179" height="306" viewBox="0 0 179 306" fill="none" xmlns="http://www.w3.org/2000/svg">
<g clip-path="url(#clip0_1_2687)">
<path d="M22.2189 103.538C0.953399 65.7567 37.3812 41.8189 73.1415 28.3599L62.8427 0C32.6133 8.94062 -11.8249 39.9923 2.86063 69.2175L22.2189 103.538Z" fill="#58008D"/>
<path d="M86.5876 218.324C68.3737 173.525 164.402 128.533 148.954 101.135L134.936 75.2742C144.472 92.3863 47.2036 147.376 68.183 183.811L86.5876 218.324Z" fill="#58008D"/>
<path d="M162.209 306C203.595 280.62 233.253 250.818 217.804 223.419L197.302 186.984C206.838 204.096 203.595 243.32 144.09 276.967L162.209 306Z" fill="#58008D"/>
<path d="M2.86072 69.2176C31.469 107.672 119.296 48.1639 134.649 75.5626L149.144 101.231C139.608 84.1188 42.6262 139.685 22.219 103.538L2.86072 69.2176Z" fill="#9D01FC"/>
<path d="M65.7035 180.927C94.3117 219.381 182.044 159.873 197.492 187.272L211.892 212.94C202.356 195.828 105.469 251.395 85.0617 215.344L65.7035 180.927Z" fill="#9D01FC"/>
</g>
<defs>
<clipPath id="clip0_1_2687">
<rect width="222" height="306" fill="white"/>
</clipPath>
</defs>
</svg>
