<svg width="147" height="200" viewBox="0 0 147 200" fill="none" xmlns="http://www.w3.org/2000/svg">
<g clip-path="url(#clip0_1_2675)">
<path d="M75.4513 168.165C60.3286 193.763 33.5791 180.235 13.2528 163.548L-3.05176e-05 179.749C15.7732 194.654 49.5149 210.531 61.7107 191.737L75.4513 168.165Z" fill="#000D84"/>
<path d="M121.064 90.7248C100.819 116.889 40.9779 75.172 30.083 93.6411L19.8385 111.057C26.6681 99.4733 93.0133 138.517 107.404 113.973L121.064 90.7248Z" fill="#000D84"/>
<path d="M147 15.7958C117.649 -0.405087 90.0863 -7.69537 78.8662 10.8547L64.3125 35.156C71.1421 23.5724 95.6151 12.2317 136.105 36.128L147 15.7958Z" fill="#000D84"/>
<path d="M61.7107 191.413C74.8009 161.037 9.02489 129.364 19.9198 110.814L30.1643 93.479C23.3346 105.063 89.9237 143.621 75.4513 168.165L61.7107 191.413Z" fill="#0019FF"/>
<path d="M106.266 115.917C119.275 85.5408 53.5802 53.868 64.4751 34.913L74.7196 17.4968C67.89 29.0805 134.398 67.7197 119.925 92.264L106.266 115.917Z" fill="#0019FF"/>
</g>
<defs>
<clipPath id="clip0_1_2675">
<rect width="147" height="200" fill="white"/>
</clipPath>
</defs>
</svg>
