<svg width="109" height="149" viewBox="0 0 109 149" fill="none" xmlns="http://www.w3.org/2000/svg">
<g clip-path="url(#clip0_1_2681)">
<path d="M53.0531 125.283C64.2666 144.353 84.1012 134.275 99.1731 121.843L109 133.913C97.3042 145.017 72.2848 156.845 63.2417 142.845L53.0531 125.283Z" fill="#000D84"/>
<path d="M19.2317 67.59C34.2434 87.0825 78.615 56.0032 86.6935 69.7626L94.2898 82.7375C89.2256 74.1077 40.0309 103.195 29.36 84.9099L19.2317 67.59Z" fill="#000D84"/>
<path d="M1.14441e-05 11.768C21.7638 -0.301675 42.2013 -5.73293 50.521 8.08683L61.3125 26.1913C56.2483 17.5615 38.1018 9.11272 8.07853 26.9155L1.14441e-05 11.768Z" fill="#000D84"/>
<path d="M63.2417 142.603C53.5354 119.972 102.308 96.3762 94.2295 82.5565L86.6332 69.6418C91.6974 78.2717 42.3219 106.997 53.0531 125.283L63.2417 142.603Z" fill="#0019FF"/>
<path d="M30.204 86.3585C20.558 63.7279 69.2704 40.1317 61.1919 26.0102L53.5956 13.0352C58.6598 21.665 9.34454 50.4512 20.0757 68.7367L30.204 86.3585Z" fill="#0019FF"/>
</g>
<defs>
<clipPath id="clip0_1_2681">
<rect width="109" height="149" fill="white" transform="matrix(-1 0 0 1 109 0)"/>
</clipPath>
</defs>
</svg>
