<svg width="101" height="102" viewBox="0 0 101 102" fill="none" xmlns="http://www.w3.org/2000/svg">
<path d="M29.6384 47.5902C28.2457 46.1975 25.9826 46.1975 24.5899 47.5902C23.1972 48.9829 23.1972 51.246 24.5899 52.6387L41.0411 69.0899C41.7374 69.7862 42.6079 70.1344 43.5653 70.1344C43.6524 70.1344 43.6524 70.1344 43.7394 70.1344C44.6969 70.0474 45.6544 69.6121 46.3507 68.8288L87.5221 19.4753C88.7407 17.9955 88.5667 15.7324 87.0869 14.4268C85.6072 13.2082 83.3441 13.3823 82.0384 14.862L43.3042 61.256L29.6384 47.5902Z" fill="black" style="mix-blend-mode:overlay"/>
<path d="M77.1638 7.72436C57.1438 -4.80986 31.4661 -1.85039 14.7538 14.8619C-4.91794 34.5336 -4.91794 66.6526 14.7538 86.3243C24.5897 96.1602 37.5591 101.122 50.4415 101.122C63.3239 101.122 76.2933 96.1602 86.1292 86.3243C102.929 69.525 105.801 43.7602 93.1797 23.7403C92.1352 22.0865 89.9591 21.5642 88.3053 22.6087C86.6515 23.6533 86.1292 25.8293 87.1737 27.4832C98.0541 44.7177 95.5299 66.8267 81.0807 81.2758C64.1943 98.1622 36.6017 98.1622 19.7153 81.2758C2.8289 64.3895 2.8289 36.7968 19.7153 19.9104C34.1644 5.54828 56.1864 3.02403 73.4209 13.7303C75.0747 14.7749 77.2508 14.2526 78.2953 12.5988C79.3398 10.945 78.8176 8.76888 77.1638 7.72436Z" fill="black" style="mix-blend-mode:overlay"/>
</svg>
