<?xml version="1.0" encoding="utf-8"?><!DOCTYPE svg PUBLIC "-//W3C//DTD SVG 1.1//EN" "http://www.w3.org/Graphics/SVG/1.1/DTD/svg11.dtd"><svg viewBox="0 0 800 800" xmlns="http://www.w3.org/2000/svg" xmlns:xlink="http://www.w3.org/1999/xlink"><style>:root>svg{display:none}:root>svg:target{display:block}</style><svg viewBox="0 0 16 18" id="arrow" xmlns="http://www.w3.org/2000/svg"><path d="M8.707.293a1 1 0 00-1.414 0L.929 6.657A1 1 0 002.343 8.07L8 2.414l5.657 5.657a1 1 0 101.414-1.414L8.707.293zM9 18V1H7v17h2z"/></svg><svg viewBox="-4.5 0 20 20" id="arrow-left" xmlns="http://www.w3.org/2000/svg"><path d="M9.61 20L11 18.594 2.739 9.987l.881-.918-.005.005 7.34-7.647L9.586 0 0 9.987 9.61 20" fill-rule="evenodd"/></svg><svg viewBox="-4.5 0 20 20" id="arrow-right" xmlns="http://www.w3.org/2000/svg"><path d="M1.39 0L0 1.406l8.261 8.607-.881.918.005-.005-7.34 7.647L1.414 20 11 10.013 1.39 0" fill-rule="evenodd"/></svg><svg fill="none" viewBox="0 0 19 8" id="arrow2" xmlns="http://www.w3.org/2000/svg"><path d="M1 1l8.5 5.5L18 1" stroke="#fff" stroke-width="2"/></svg><svg viewBox="0 -3.5 20 20" id="behance" xmlns="http://www.w3.org/2000/svg"><path d="M12.981 2.117h5.088V.66h-5.088v1.457zm2.508 2.926c-1.135 0-1.997.704-2.08 2.003h4.072c-.276-1.542-.961-2.003-1.992-2.003zm.159 6.027c1.048 0 1.817-.662 1.974-1.22h2.204c-.63 2.017-1.931 3.15-4.267 3.15-2.981 0-4.654-2.12-4.654-4.934 0-6.625 9.56-6.863 9.08.619h-6.576c.064 1.52.691 2.385 2.239 2.385zm-9.918-.292c1.203 0 2.045-.462 2.045-1.711 0-1.295-.744-1.857-1.993-1.857H2.768v3.568H5.73zm-.159-5.516c1.001 0 1.692-.466 1.692-1.548 0-1.14-.804-1.492-1.903-1.492H2.768v3.04h2.803zM5.924 0c2.371 0 4.019.784 4.019 3.222 0 1.208-.485 2.107-1.71 2.714 1.568.465 2.31 1.688 2.31 3.295C10.543 11.782 8.52 13 6.1 13H0V0h5.924z" fill-rule="evenodd"/></svg><svg viewBox="0 0 23 21" id="case" xmlns="http://www.w3.org/2000/svg"><path fill-rule="evenodd" clip-rule="evenodd" d="M7.916 4.401H21.106v5.42c-.077.9-.835 1.609-1.754 1.609H3.521c-.97 0-1.76-.79-1.76-1.76V4.4h6.155zm0-1.76v-.88C7.916.79 8.706 0 9.676 0h3.52c.971 0 1.761.79 1.761 1.76v.88h7.916v17.586H.006V9.883A3.553 3.553 0 010 9.67V7.029h.006V2.64h7.91zm5.28 0h-3.52v-.88h3.52v.88zM1.76 18.47v-5.754c.519.301 1.12.473 1.76.473h15.832c.639 0 1.238-.17 1.754-.468v5.75H1.76z"/></svg><svg fill="none" viewBox="0 0 32 32" id="check" xmlns="http://www.w3.org/2000/svg"><path d="M16 1.333C7.9 1.333 1.333 7.9 1.333 16S7.9 30.667 16 30.667 30.667 24.1 30.667 16 24.1 1.334 16 1.334zM16 28C9.373 28 4 22.628 4 16 4 9.373 9.373 4 16 4s12 5.373 12 12c0 6.628-5.373 12-12 12z" fill="#FCFFFD"/><path d="M21.428 12.39a1.334 1.334 0 00-1.886 0l-4.714 4.714-1.885-1.886a1.334 1.334 0 00-1.886 1.886l2.828 2.828c.52.52 1.365.52 1.886 0l5.657-5.657a1.332 1.332 0 000-1.885z" fill="#FCFFFD"/></svg><svg viewBox="0 0 24 24" id="close" xmlns="http://www.w3.org/2000/svg"><path fill-rule="evenodd" clip-rule="evenodd" d="M19.207 6.207a1 1 0 00-1.414-1.414L12 10.586 6.207 4.793a1 1 0 00-1.414 1.414L10.586 12l-5.793 5.793a1 1 0 101.414 1.414L12 13.414l5.793 5.793a1 1 0 001.414-1.414L13.414 12l5.793-5.793z"/></svg><svg viewBox="0 0 512 512" id="facebook" xmlns="http://www.w3.org/2000/svg"><path d="M283.122 122.174v46.583h83.424l-9.045 74.367h-74.379v268.375h-98.726V243.124h-51.443v-74.367h51.443v-56.302c0-27.82-2.096-41.02 9.725-62.578C205.948 28.32 239.308-.174 297.007.512c57.713.711 82.04 6.263 82.04 6.263l-12.501 79.257s-36.853-9.731-54.942-6.263c-18.065 3.469-28.482 14.597-28.482 42.405z"/></svg><svg fill="none" viewBox="0 0 24 24" id="info" xmlns="http://www.w3.org/2000/svg"><circle cx="12" cy="12" r="11.5" stroke="#000"/><path d="M12.522 7v4.068l-.17 2.36h-.854l-.17-2.36V7h1.194zm-.598 7.68c.275 0 .498.085.669.256.17.17.256.393.256.668s-.085.498-.256.669c-.17.17-.394.256-.669.256-.274 0-.497-.085-.668-.256-.17-.17-.256-.394-.256-.669 0-.274.085-.497.256-.668.17-.17.393-.256.668-.256z" fill="#000"/></svg><svg viewBox="0 0 20 20" id="instagram" xmlns="http://www.w3.org/2000/svg"><path fill-rule="evenodd" clip-rule="evenodd" d="M10 0C7.284 0 6.944.012 5.877.06 4.813.11 4.086.278 3.45.525a4.901 4.901 0 00-1.772 1.153A4.901 4.901 0 00.525 3.45C.278 4.086.109 4.813.06 5.877.011 6.944 0 7.284 0 10s.011 3.056.06 4.123c.049 1.064.218 1.791.465 2.428a4.901 4.901 0 001.153 1.77 4.901 4.901 0 001.772 1.154c.636.247 1.363.416 2.427.465 1.067.049 1.407.06 4.123.06s3.056-.011 4.123-.06c1.064-.049 1.791-.218 2.428-.465a4.903 4.903 0 001.77-1.153 4.901 4.901 0 001.154-1.771c.247-.637.416-1.364.465-2.428.049-1.067.06-1.407.06-4.123s-.011-3.056-.06-4.123c-.049-1.064-.218-1.791-.465-2.427a4.901 4.901 0 00-1.153-1.772A4.903 4.903 0 0016.55.525C15.913.278 15.186.109 14.122.06 13.056.012 12.716 0 10 0zm0 1.802c2.67 0 2.986.01 4.04.058.976.045 1.505.208 1.858.344.467.182.8.399 1.15.748.35.35.566.684.748 1.15.137.353.3.882.344 1.857.048 1.055.058 1.371.058 4.041 0 2.67-.01 2.986-.058 4.041-.044.975-.207 1.504-.344 1.857-.182.467-.398.8-.748 1.15-.35.35-.683.566-1.15.748-.353.137-.882.3-1.857.344-1.054.048-1.37.058-4.04.058-2.671 0-2.987-.01-4.042-.058-.975-.044-1.504-.207-1.857-.344a3.098 3.098 0 01-1.15-.748 3.097 3.097 0 01-.748-1.15c-.137-.353-.3-.882-.344-1.857-.048-1.055-.058-1.37-.058-4.04 0-2.671.01-2.987.058-4.042.045-.975.207-1.504.344-1.857.182-.466.399-.8.748-1.15.35-.35.684-.566 1.15-.748.353-.136.882-.3 1.857-.344 1.055-.048 1.37-.058 4.041-.058zm0 11.531a3.333 3.333 0 110-6.666 3.333 3.333 0 010 6.666zm0-8.468a5.135 5.135 0 100 10.27 5.135 5.135 0 000-10.27zm5.338.997a1.2 1.2 0 100-2.4 1.2 1.2 0 000 2.4z"/></svg><svg viewBox="0 0 22 21" id="linkedin" xmlns="http://www.w3.org/2000/svg"><path d="M5.212 6.9H.665v13.676h4.547V6.9zM2.97.306C1.413.306.396 1.33.396 2.67c0 1.312.986 2.363 2.512 2.363h.03c1.585 0 2.571-1.05 2.571-2.363C5.48 1.33 4.524.306 2.97.306zM16.37 6.579c-2.413 0-3.493 1.326-4.098 2.257V6.9H7.727c.06 1.283 0 13.676 0 13.676h4.545v-7.638c0-.409.03-.817.15-1.11.328-.816 1.077-1.661 2.332-1.661 1.644 0 2.303 1.254 2.303 3.092v7.317h4.546v-7.843c0-4.2-2.243-6.154-5.234-6.154z"/></svg><svg viewBox="0 0 20 20" id="menu" xmlns="http://www.w3.org/2000/svg"><path fill-rule="evenodd" d="M19 4a1 1 0 01-1 1H2a1 1 0 010-2h16a1 1 0 011 1zm0 6a1 1 0 01-1 1H2a1 1 0 110-2h16a1 1 0 011 1zm-1 7a1 1 0 100-2H2a1 1 0 100 2h16z"/></svg><svg viewBox="0 0 18 22" id="pinterest" xmlns="http://www.w3.org/2000/svg"><path fill-rule="evenodd" clip-rule="evenodd" d="M4.15 21.465c-.12-1.074-.226-2.724.047-3.896.246-1.059 1.591-6.746 1.591-6.746s-.406-.813-.406-2.015c0-1.887 1.094-3.295 2.456-3.295 1.158 0 1.717.869 1.717 1.911 0 .743-.302 1.722-.62 2.751-.18.584-.366 1.184-.504 1.768-.32 1.35.677 2.452 2.01 2.452 2.412 0 4.266-2.543 4.266-6.214 0-3.25-2.335-5.522-5.669-5.522-3.861 0-6.128 2.897-6.128 5.89 0 1.166.45 2.417 1.01 3.097.11.134.127.252.094.39-.058.242-.157.643-.24.98l-.137.558c-.06.249-.197.301-.454.182C1.488 12.966.43 10.489.43 8.498c0-4.28 3.11-8.212 8.967-8.212 4.708 0 8.366 3.354 8.366 7.838 0 4.677-2.949 8.441-7.042 8.441-1.375 0-2.668-.714-3.11-1.558 0 0-.681 2.591-.846 3.226-.307 1.179-1.133 2.656-1.687 3.557a13.455 13.455 0 01-.928-.325z"/></svg><svg viewBox="0 0 512 512" id="twitter" xmlns="http://www.w3.org/2000/svg"><path d="M447.043 447.477c0 17.578-6.273 32.66-18.838 45.186-12.549 12.563-27.619 18.838-45.197 18.838H256.371c-52.745 0-97.831-18.726-135.27-56.164-37.444-37.438-56.145-82.512-56.145-135.27V64.573c0-18.089 6.231-33.284 18.701-45.61C96.126 6.675 111.353.5 129.335.5c17.447 0 32.448 6.288 44.899 18.85 12.494 12.538 18.744 27.595 18.744 45.173v63.998h189.793c17.652 0 32.771 6.288 45.396 18.85 12.602 12.525 18.875 27.596 18.875 45.173 0 17.553-6.273 32.623-18.838 45.186-12.549 12.525-27.656 18.813-45.234 18.813H192.979v63.462c0 17.641 6.137 32.61 18.463 44.974 12.319 12.326 27.278 18.489 44.874 18.489h126.655c17.578 0 32.686 6.299 45.234 18.837 12.565 12.549 18.838 27.619 18.838 45.172"/></svg><svg viewBox="0 0 22 15" id="video" xmlns="http://www.w3.org/2000/svg"><path fill-rule="evenodd" clip-rule="evenodd" d="M19.595.448a2.72 2.72 0 011.945 1.894C21.998 4.012 22 7.5 22 7.5s0 3.487-.46 5.158a2.72 2.72 0 01-1.945 1.894C17.88 15 11 15 11 15s-6.88 0-8.595-.448A2.72 2.72 0 01.46 12.658C0 10.988 0 7.5 0 7.5s0-3.487.46-5.158A2.72 2.72 0 012.405.448C4.12 0 11 0 11 0s6.88 0 8.595.448zM14.513 7.5l-5.715 3.214V4.286L14.513 7.5z"/></svg><svg viewBox="0 0 20 18" id="vimeo" xmlns="http://www.w3.org/2000/svg"><path d="M19.99 4.353c-.089 1.947-1.448 4.612-4.079 7.995-2.719 3.534-5.02 5.3-6.901 5.3-1.166 0-2.153-1.075-2.959-3.227L4.437 8.502C3.84 6.351 3.197 5.274 2.51 5.274c-.15 0-.673.315-1.57.942L0 5.004C.987 4.137 1.96 3.27 2.918 2.4 4.235 1.264 5.224.666 5.882.606c1.556-.15 2.514.914 2.874 3.19.389 2.458.658 3.986.809 4.584.449 2.039.943 3.057 1.481 3.057.418 0 1.048-.661 1.886-1.984.837-1.322 1.286-2.328 1.347-3.02.12-1.14-.33-1.712-1.347-1.712-.479 0-.972.11-1.48.327.983-3.219 2.861-4.782 5.632-4.693 2.056.06 3.025 1.393 2.906 3.998z"/></svg></svg>