<?xml version="1.0" encoding="utf-8"?><svg viewBox="0 0 800 800" xmlns="http://www.w3.org/2000/svg" xmlns:xlink="http://www.w3.org/1999/xlink"><style>:root>svg{display:none}:root>svg:target{display:block}</style><svg viewBox="0 0 16 18" id="arrow" xmlns="http://www.w3.org/2000/svg"><path d="M8.707.293a1 1 0 00-1.414 0L.929 6.657A1 1 0 002.343 8.07L8 2.414l5.657 5.657a1 1 0 101.414-1.414L8.707.293zM9 18V1H7v17h2z"/></svg><svg viewBox="0 0 23 21" id="case" xmlns="http://www.w3.org/2000/svg"><path fill-rule="evenodd" clip-rule="evenodd" d="M7.916 4.401H21.106v5.42c-.077.9-.835 1.609-1.754 1.609H3.521c-.97 0-1.76-.79-1.76-1.76V4.4h6.155zm0-1.76v-.88C7.916.79 8.706 0 9.676 0h3.52c.971 0 1.761.79 1.761 1.76v.88h7.916v17.586H.006V9.883A3.553 3.553 0 010 9.67V7.029h.006V2.64h7.91zm5.28 0h-3.52v-.88h3.52v.88zM1.76 18.47v-5.754c.519.301 1.12.473 1.76.473h15.832c.639 0 1.238-.17 1.754-.468v5.75H1.76z"/></svg><svg viewBox="0 0 24 24" id="close" xmlns="http://www.w3.org/2000/svg"><path fill-rule="evenodd" clip-rule="evenodd" d="M19.207 6.207a1 1 0 00-1.414-1.414L12 10.586 6.207 4.793a1 1 0 00-1.414 1.414L10.586 12l-5.793 5.793a1 1 0 101.414 1.414L12 13.414l5.793 5.793a1 1 0 001.414-1.414L13.414 12l5.793-5.793z"/></svg><svg viewBox="0 0 20 20" id="instagram" xmlns="http://www.w3.org/2000/svg"><path fill-rule="evenodd" clip-rule="evenodd" d="M10 0C7.284 0 6.944.012 5.877.06 4.813.11 4.086.278 3.45.525a4.901 4.901 0 00-1.772 1.153A4.901 4.901 0 00.525 3.45C.278 4.086.109 4.813.06 5.877.011 6.944 0 7.284 0 10s.011 3.056.06 4.123c.049 1.064.218 1.791.465 2.428a4.901 4.901 0 001.153 1.77 4.901 4.901 0 001.772 1.154c.636.247 1.363.416 2.427.465 1.067.049 1.407.06 4.123.06s3.056-.011 4.123-.06c1.064-.049 1.791-.218 2.428-.465a4.903 4.903 0 001.77-1.153 4.901 4.901 0 001.154-1.771c.247-.637.416-1.364.465-2.428.049-1.067.06-1.407.06-4.123s-.011-3.056-.06-4.123c-.049-1.064-.218-1.791-.465-2.427a4.901 4.901 0 00-1.153-1.772A4.903 4.903 0 0016.55.525C15.913.278 15.186.109 14.122.06 13.056.012 12.716 0 10 0zm0 1.802c2.67 0 2.986.01 4.04.058.976.045 1.505.208 1.858.344.467.182.8.399 1.15.748.35.35.566.684.748 1.15.137.353.3.882.344 1.857.048 1.055.058 1.371.058 4.041 0 2.67-.01 2.986-.058 4.041-.044.975-.207 1.504-.344 1.857-.182.467-.398.8-.748 1.15-.35.35-.683.566-1.15.748-.353.137-.882.3-1.857.344-1.054.048-1.37.058-4.04.058-2.671 0-2.987-.01-4.042-.058-.975-.044-1.504-.207-1.857-.344a3.098 3.098 0 01-1.15-.748 3.097 3.097 0 01-.748-1.15c-.137-.353-.3-.882-.344-1.857-.048-1.055-.058-1.37-.058-4.04 0-2.671.01-2.987.058-4.042.045-.975.207-1.504.344-1.857.182-.466.399-.8.748-1.15.35-.35.684-.566 1.15-.748.353-.136.882-.3 1.857-.344 1.055-.048 1.37-.058 4.041-.058zm0 11.531a3.333 3.333 0 110-6.666 3.333 3.333 0 010 6.666zm0-8.468a5.135 5.135 0 100 10.27 5.135 5.135 0 000-10.27zm5.338.997a1.2 1.2 0 100-2.4 1.2 1.2 0 000 2.4z"/></svg><svg viewBox="0 0 22 21" id="linkedin" xmlns="http://www.w3.org/2000/svg"><path d="M5.212 6.9H.665v13.676h4.547V6.9zM2.97.306C1.413.306.396 1.33.396 2.67c0 1.312.986 2.363 2.512 2.363h.03c1.585 0 2.571-1.05 2.571-2.363C5.48 1.33 4.524.306 2.97.306zM16.37 6.579c-2.413 0-3.493 1.326-4.098 2.257V6.9H7.727c.06 1.283 0 13.676 0 13.676h4.545v-7.638c0-.409.03-.817.15-1.11.328-.816 1.077-1.661 2.332-1.661 1.644 0 2.303 1.254 2.303 3.092v7.317h4.546v-7.843c0-4.2-2.243-6.154-5.234-6.154z"/></svg><svg viewBox="0 0 20 20" id="menu" xmlns="http://www.w3.org/2000/svg"><path fill-rule="evenodd" d="M19 4a1 1 0 01-1 1H2a1 1 0 010-2h16a1 1 0 011 1zm0 6a1 1 0 01-1 1H2a1 1 0 110-2h16a1 1 0 011 1zm-1 7a1 1 0 100-2H2a1 1 0 100 2h16z"/></svg><svg viewBox="0 0 18 22" id="pinterest" xmlns="http://www.w3.org/2000/svg"><path fill-rule="evenodd" clip-rule="evenodd" d="M4.15 21.465c-.12-1.074-.226-2.724.047-3.896.246-1.059 1.591-6.746 1.591-6.746s-.406-.813-.406-2.015c0-1.887 1.094-3.295 2.456-3.295 1.158 0 1.717.869 1.717 1.911 0 .743-.302 1.722-.62 2.751-.18.584-.366 1.184-.504 1.768-.32 1.35.677 2.452 2.01 2.452 2.412 0 4.266-2.543 4.266-6.214 0-3.25-2.335-5.522-5.669-5.522-3.861 0-6.128 2.897-6.128 5.89 0 1.166.45 2.417 1.01 3.097.11.134.127.252.094.39-.058.242-.157.643-.24.98l-.137.558c-.06.249-.197.301-.454.182C1.488 12.966.43 10.489.43 8.498c0-4.28 3.11-8.212 8.967-8.212 4.708 0 8.366 3.354 8.366 7.838 0 4.677-2.949 8.441-7.042 8.441-1.375 0-2.668-.714-3.11-1.558 0 0-.681 2.591-.846 3.226-.307 1.179-1.133 2.656-1.687 3.557a13.455 13.455 0 01-.928-.325z"/></svg><svg viewBox="0 0 22 15" id="video" xmlns="http://www.w3.org/2000/svg"><path fill-rule="evenodd" clip-rule="evenodd" d="M19.595.448a2.72 2.72 0 011.945 1.894C21.998 4.012 22 7.5 22 7.5s0 3.487-.46 5.158a2.72 2.72 0 01-1.945 1.894C17.88 15 11 15 11 15s-6.88 0-8.595-.448A2.72 2.72 0 01.46 12.658C0 10.988 0 7.5 0 7.5s0-3.487.46-5.158A2.72 2.72 0 012.405.448C4.12 0 11 0 11 0s6.88 0 8.595.448zM14.513 7.5l-5.715 3.214V4.286L14.513 7.5z"/></svg><svg viewBox="0 0 20 18" id="vimeo" xmlns="http://www.w3.org/2000/svg"><path d="M19.99 4.353c-.089 1.947-1.448 4.612-4.079 7.995-2.719 3.534-5.02 5.3-6.901 5.3-1.166 0-2.153-1.075-2.959-3.227L4.437 8.502C3.84 6.351 3.197 5.274 2.51 5.274c-.15 0-.673.315-1.57.942L0 5.004C.987 4.137 1.96 3.27 2.918 2.4 4.235 1.264 5.224.666 5.882.606c1.556-.15 2.514.914 2.874 3.19.389 2.458.658 3.986.809 4.584.449 2.039.943 3.057 1.481 3.057.418 0 1.048-.661 1.886-1.984.837-1.322 1.286-2.328 1.347-3.02.12-1.14-.33-1.712-1.347-1.712-.479 0-.972.11-1.48.327.983-3.219 2.861-4.782 5.632-4.693 2.056.06 3.025 1.393 2.906 3.998z"/></svg></svg>