<svg width="201" height="171" viewBox="0 0 201 171" fill="none" xmlns="http://www.w3.org/2000/svg">
<g filter="url(#filter0_bd_1_140)">
<rect width="106.661" height="122.473" rx="20" transform="matrix(0.504878 0.86319 -0.935499 0.353329 131 14)" fill="url(#paint0_linear_1_140)" shape-rendering="crispEdges"/>
<rect x="-0.21531" y="0.60826" width="105.661" height="121.473" rx="19.5" transform="matrix(0.504878 0.86319 -0.935499 0.353329 131.462 14.5792)" stroke="url(#paint1_linear_1_140)" shape-rendering="crispEdges"/>
</g>
<mask id="mask0_1_140" style="mask-type:alpha" maskUnits="userSpaceOnUse" x="39" y="32" width="122" height="98">
<rect width="80.7972" height="92.7752" rx="9.61402" transform="matrix(0.504878 0.86319 -0.935499 0.353329 123 30)" fill="#006D38"/>
</mask>
<g mask="url(#mask0_1_140)">
<path d="M-126.811 39.8521L246.79 -97.3565L287.814 14.3484L-85.7867 151.557L-126.811 39.8521Z" fill="#005BBB"/>
<path d="M-85.7867 151.557L287.814 14.3484L328.839 126.053L-44.7621 263.262L-85.7867 151.557Z" fill="#FFD500"/>
</g>
<defs>
<filter id="filter0_bd_1_140" x="-16.0311" y="-20.3286" width="233.339" height="204" filterUnits="userSpaceOnUse" color-interpolation-filters="sRGB">
<feFlood flood-opacity="0" result="BackgroundImageFix"/>
<feGaussianBlur in="BackgroundImageFix" stdDeviation="20"/>
<feComposite in2="SourceAlpha" operator="in" result="effect1_backgroundBlur_1_140"/>
<feColorMatrix in="SourceAlpha" type="matrix" values="0 0 0 0 0 0 0 0 0 0 0 0 0 0 0 0 0 0 127 0" result="hardAlpha"/>
<feMorphology radius="1" operator="erode" in="SourceAlpha" result="effect2_dropShadow_1_140"/>
<feOffset dy="4"/>
<feGaussianBlur stdDeviation="12"/>
<feComposite in2="hardAlpha" operator="out"/>
<feColorMatrix type="matrix" values="0 0 0 0 0 0 0 0 0 0 0 0 0 0 0 0 0 0 0.2 0"/>
<feBlend mode="normal" in2="effect1_backgroundBlur_1_140" result="effect2_dropShadow_1_140"/>
<feBlend mode="normal" in="SourceGraphic" in2="effect2_dropShadow_1_140" result="shape"/>
</filter>
<linearGradient id="paint0_linear_1_140" x1="53.3305" y1="0" x2="109.891" y2="108.023" gradientUnits="userSpaceOnUse">
<stop stop-color="#744848" stop-opacity="0.4"/>
<stop offset="1" stop-color="white" stop-opacity="0.1"/>
</linearGradient>
<linearGradient id="paint1_linear_1_140" x1="53.3305" y1="-3.63124e-06" x2="127.416" y2="62.1136" gradientUnits="userSpaceOnUse">
<stop stop-color="white" stop-opacity="0.4"/>
<stop offset="0.32893" stop-color="#626262" stop-opacity="0.39"/>
<stop offset="0.593712" stop-color="#A3A9B9" stop-opacity="0.47"/>
<stop offset="1" stop-color="#353E58" stop-opacity="0.56"/>
</linearGradient>
</defs>
</svg>
