<svg width="1920" height="133" viewBox="0 0 1920 133" fill="none" xmlns="http://www.w3.org/2000/svg">
<path d="M1749.23 63.1945C1756.59 64.0846 1764.48 64.3813 1771.84 64.3813C1823.37 64.3813 1872.27 51.327 1915.38 37.086L1928 33.229L1925.9 95.1689L1872.39 109.651L1763.78 127.089L1654.65 104.036L1570.18 70.3422L1476.34 64.3813L1333.56 104.036L1242.79 128.271L1126.32 109.06L1057.59 81.5733L998.825 64.3813H922.224L835.703 89.5533L784.238 107.582L693.472 125.907L615.074 116.449L508.337 78.6178L421.173 63.1945L359.788 70.3422L301.55 86.3022L179.186 125.611L-8 104.036V33.229L5.14497 37.086C49.838 51.327 98.2119 64.3813 149.74 64.3813C157.102 64.3813 164.463 64.0846 172.35 63.1945C188.65 61.4144 206.001 57.8541 225.456 51.9204C242.107 46.9463 258.302 40.9426 274.041 35.1081L274.317 35.0057C275.383 34.6103 276.448 34.2158 277.51 33.8224L279.613 33.229C280.808 32.7868 282.005 32.3429 283.205 31.8981L283.337 31.849C298.999 26.0426 315.145 20.0566 332.193 14.8344C353.225 8.30728 372.154 4.15362 390.031 2.07683C410.012 -0.296665 429.992 -0.296665 450.499 2.07683C468.376 4.15362 487.305 8.30728 508.337 14.8344C526.214 20.4715 544.091 26.9986 560.917 33.229L563.02 33.8224C564.176 34.2504 565.334 34.6798 566.495 35.1102L566.501 35.1122C582.236 40.9454 598.427 46.9475 615.074 51.9204C634.529 57.8541 651.88 61.4144 668.18 63.1945C683.428 64.9746 698.151 64.9746 713.399 63.1945C729.699 61.4144 747.051 57.8541 766.505 51.9204C782.487 47.0016 798.469 41.0759 814.04 35.3026C815.374 34.8078 816.706 34.3142 818.034 33.8224L820.137 32.9324C821.325 32.4922 822.517 32.0505 823.711 31.6077L823.873 31.5478C839.531 25.7428 855.673 19.7585 872.717 14.5377C893.749 8.0106 912.678 3.85695 930.555 1.78012C950.536 -0.593375 970.516 -0.593375 991.022 1.78012C1008.9 3.85695 1027.83 8.0106 1048.86 14.5377C1065.91 19.7593 1082.05 25.7445 1097.71 31.5503L1097.71 31.5506C1098.96 32.0125 1100.2 32.4732 1101.44 32.9324L1103.54 33.8224C1119.84 40.0529 1137.19 46.58 1155.07 51.9204C1174.53 57.8541 1191.88 61.4144 1208.18 63.1945C1223.43 64.9746 1238.15 64.9746 1253.4 63.1945C1269.7 61.4144 1287.05 57.8541 1306.5 51.9204C1323.15 46.9463 1339.35 40.9426 1355.09 35.1081L1355.36 35.0057C1356.43 34.6103 1357.49 34.2158 1358.56 33.8224L1360.66 33.229C1361.9 32.7705 1363.14 32.3103 1364.38 31.849C1380.05 26.0426 1396.19 20.0566 1413.24 14.8344C1434.27 8.30728 1453.2 4.15362 1471.08 2.07683C1491.06 -0.296665 1511.04 -0.296665 1531.55 2.07683C1549.42 4.15362 1568.35 8.30728 1589.38 14.8344C1606.43 20.0562 1622.58 26.0417 1638.24 31.8477L1638.37 31.8966C1639.57 32.342 1640.77 32.7863 1641.96 33.229L1644.07 33.8224C1645.13 34.2158 1646.19 34.6103 1647.26 35.0057L1647.54 35.1081C1663.28 40.9426 1679.47 46.9463 1696.12 51.9204C1715.58 57.5575 1732.93 61.4144 1749.23 63.1945Z" fill="black"/>
<path d="M1771.84 64.3813C1764.48 64.3813 1756.59 64.0846 1749.23 63.1945C1732.93 61.4144 1715.58 57.5575 1696.12 51.9204C1678.24 46.58 1660.89 40.0529 1644.07 33.8224L1641.96 33.229C1625.14 26.9986 1607.79 20.4715 1589.38 14.8344C1568.35 8.30728 1549.42 4.15362 1531.55 2.07683C1511.04 -0.296665 1491.06 -0.296665 1471.08 2.07683C1453.2 4.15362 1434.27 8.30728 1413.24 14.8344C1394.84 20.4715 1377.49 26.9986 1360.66 33.229L1358.56 33.8224C1341.73 40.0529 1324.38 46.58 1306.5 51.9204C1287.05 57.8541 1269.7 61.4144 1253.4 63.1945C1238.15 64.9746 1223.43 64.9746 1208.18 63.1945C1191.88 61.4144 1174.53 57.8541 1155.07 51.9204C1137.19 46.58 1119.84 40.0529 1103.54 33.8224L1101.44 32.9324C1084.61 26.7019 1067.26 20.1748 1048.86 14.5377C1027.83 8.0106 1008.9 3.85695 991.022 1.78012C970.516 -0.593375 950.536 -0.593375 930.555 1.78012C912.678 3.85695 893.749 8.0106 872.717 14.5377C854.314 20.1748 836.962 26.7019 820.137 32.9324L818.034 33.8224C801.208 40.0529 783.856 46.58 766.505 51.9204C747.051 57.8541 729.699 61.4144 713.399 63.1945C698.151 64.9746 683.428 64.9746 668.18 63.1945C651.88 61.4144 634.529 57.8541 615.074 51.9204C597.197 46.58 579.846 40.0529 563.02 33.8224L560.917 33.229C544.091 26.9986 526.214 20.4715 508.337 14.8344C487.305 8.30728 468.376 4.15362 450.499 2.07683C429.992 -0.296665 410.012 -0.296665 390.031 2.07683C372.154 4.15362 353.225 8.30728 332.193 14.8344C313.79 20.4715 296.439 26.9986 279.613 33.229L277.51 33.8224C260.684 40.0529 243.333 46.58 225.456 51.9204C206.001 57.8541 188.65 61.4144 172.35 63.1945C164.463 64.0846 157.102 64.3813 149.74 64.3813C98.2119 64.3813 49.838 51.327 5.14497 37.086L-8 33.229V48.3601L-4.31939 49.5469C41.9511 64.0846 92.428 77.4355 148.689 77.4355C158.679 77.4355 168.669 76.8422 179.185 75.6554C197.062 73.5786 215.991 69.425 237.023 62.8978C255.426 57.2608 272.778 50.7336 289.603 44.5032L291.707 43.9098C308.532 37.6794 325.884 31.1522 343.761 25.8118C363.216 19.8781 380.567 16.3178 396.867 14.5377C412.115 12.7576 426.838 12.7576 442.086 14.5377C458.386 16.3178 475.737 19.8781 495.192 25.8118C513.069 31.1522 530.42 37.6794 547.246 43.9098L549.349 44.5032C566.175 50.7336 584.052 57.2608 601.929 62.8978C622.961 69.425 641.89 73.5786 659.767 75.6554C680.274 78.0289 700.254 78.0289 720.235 75.6554C738.112 73.5786 757.041 69.425 778.073 62.8978C796.476 57.2608 813.827 50.7336 830.653 44.5032L832.756 43.6131C849.582 37.3827 866.933 30.8555 884.285 25.5152C903.739 19.5814 921.091 16.0211 937.391 14.241C952.639 12.4609 967.361 12.4609 982.609 14.241C998.909 16.0211 1016.26 19.5814 1035.72 25.5152C1053.59 30.8555 1070.94 37.3827 1087.24 43.6131L1089.35 44.5032C1106.17 50.7336 1123.52 57.2608 1141.93 62.8978C1162.96 69.425 1181.89 73.5786 1199.77 75.6554C1220.27 78.0289 1240.25 78.0289 1260.23 75.6554C1278.11 73.5786 1297.04 69.425 1318.07 62.8978C1336.47 57.2608 1353.83 50.7336 1370.65 44.5032L1372.75 43.9098C1389.58 37.6794 1406.93 31.1522 1424.81 25.8118C1444.26 19.8781 1461.61 16.3178 1477.91 14.5377C1493.16 12.7576 1507.88 12.7576 1523.13 14.5377C1539.43 16.3178 1556.78 19.8781 1576.24 25.8118C1594.12 31.1522 1611.47 37.6794 1628.29 43.9098L1630.4 44.5032C1647.22 50.7336 1665.1 57.2608 1682.98 62.8978C1704.01 69.425 1722.94 73.5786 1740.81 75.6554C1750.8 76.8422 1761.32 77.4355 1771.31 77.4355C1827.57 77.4355 1878.05 64.0846 1924.32 49.5469L1928 48.3601L1928 33.229L1915.38 37.086C1872.27 51.327 1823.37 64.3813 1771.84 64.3813Z" fill="url(#paint0_linear_1_2244)"/>
<path d="M1771.84 119.7C1764.48 119.7 1756.59 119.404 1749.23 118.518C1732.93 116.744 1715.58 113.198 1696.13 107.287C1678.25 101.967 1660.9 95.4644 1644.07 89.2578L1641.97 88.6667C1625.14 82.46 1607.27 75.9578 1589.39 70.3422C1568.36 63.84 1549.43 59.7022 1531.55 57.6333C1511.04 55.2689 1491.06 55.2689 1471.08 57.6333C1453.2 59.7022 1434.28 63.84 1413.24 70.3422C1394.84 75.9578 1377.49 82.46 1360.66 88.6667L1358.56 89.2578C1341.73 95.4644 1324.38 101.967 1306.51 107.287C1287.05 113.198 1269.7 116.744 1253.4 118.518C1238.15 120.291 1223.43 120.291 1208.18 118.518C1191.88 116.744 1174.53 112.902 1155.07 107.287C1137.2 101.967 1119.85 95.4644 1103.55 89.2578L1101.44 88.3711C1084.62 82.1644 1067.27 75.6622 1048.86 70.0467C1027.83 63.5444 1008.9 59.4067 991.025 57.3378C970.518 54.9733 950.538 54.9733 930.557 57.3378C912.68 59.4067 893.751 63.5444 872.719 70.0467C854.316 75.6622 836.965 82.1644 820.139 88.3711L818.036 88.9622C801.21 95.1689 783.859 101.671 766.507 106.991C747.052 112.902 729.701 116.449 713.401 118.222C698.153 119.996 683.43 119.996 668.182 118.222C651.882 116.449 634.531 112.607 615.076 106.991C597.199 101.671 579.847 95.1689 563.021 88.9622L560.918 88.3711C544.093 82.1644 526.215 75.6622 508.338 70.0467C487.306 63.5444 468.377 59.4067 450.5 57.3378C429.993 54.9733 410.013 54.9733 390.032 57.3378C372.155 59.4067 353.226 63.5444 332.194 70.0467C313.791 75.6622 296.44 82.1644 279.614 88.3711L277.511 88.9622C260.159 95.4644 242.808 101.967 224.93 107.287C205.476 113.198 188.124 116.744 171.824 118.518C163.937 119.404 156.576 119.7 149.215 119.7C97.6863 119.7 49.3125 106.696 4.61926 92.5089L-8 88.9622V104.036L-4.31943 105.218C41.9512 119.7 92.4283 133 148.689 133C158.679 133 168.67 132.409 179.186 131.227C197.063 129.158 215.992 125.02 237.024 118.518C255.427 112.902 272.778 106.4 289.604 100.193L291.707 99.6022C308.533 93.3956 325.885 86.8933 343.236 81.5733C362.691 75.6622 380.042 72.1156 396.342 70.3422C411.59 68.5689 426.313 68.5689 441.561 70.3422C457.861 72.1156 475.212 75.9578 494.667 81.5733C512.544 86.8933 529.896 93.3956 546.196 99.6022L548.299 100.193C565.125 106.4 583.002 112.902 600.879 118.518C621.911 125.02 640.84 129.158 658.718 131.227C679.224 133.591 699.204 133.591 719.185 131.227C737.062 129.158 755.991 125.02 777.023 118.518C795.426 112.902 812.778 106.4 829.603 100.193L831.706 99.3067C848.532 93.1 865.884 86.5978 883.235 81.2778C902.69 75.3667 920.041 71.82 936.341 70.0467C951.59 68.2733 966.312 68.2733 981.56 70.0467C997.86 71.82 1015.21 75.3667 1034.67 81.2778C1052.54 86.5978 1069.37 93.1 1086.19 99.3067L1088.3 100.193C1105.12 106.4 1122.48 112.902 1140.88 118.518C1161.91 125.02 1180.84 129.158 1198.72 131.227C1219.22 133.591 1239.2 133.591 1259.18 131.227C1277.06 129.158 1295.99 125.02 1317.02 118.518C1335.43 112.902 1352.78 106.4 1369.6 100.193L1371.71 99.6022C1388.53 93.3956 1405.88 86.8933 1423.23 81.5733C1442.69 75.6622 1460.04 72.1156 1476.34 70.3422C1491.59 68.5689 1506.31 68.5689 1521.56 70.3422C1537.86 72.1156 1555.21 75.6622 1574.67 81.5733C1592.54 86.8933 1609.89 93.3956 1626.19 99.6022L1628.3 100.193C1645.12 106.4 1663 112.902 1680.88 118.518C1701.91 125.02 1720.84 129.158 1738.72 131.227C1748.71 132.409 1759.22 133 1769.21 133C1825.47 133 1875.95 119.7 1922.22 105.218L1925.9 104.036V88.9622L1913.28 92.8044C1872.27 106.696 1823.37 119.7 1771.84 119.7Z" fill="url(#paint1_linear_1_2244)"/>
<defs>
<linearGradient id="paint0_linear_1_2244" x1="-39.5202" y1="66.4867" x2="2417.68" y2="66.4867" gradientUnits="userSpaceOnUse">
<stop stop-color="#000637"/>
<stop offset="0.34375" stop-color="#0019FF"/>
<stop offset="0.708333" stop-color="#0019FF"/>
<stop offset="1" stop-color="#000637"/>
</linearGradient>
<linearGradient id="paint1_linear_1_2244" x1="-39.5545" y1="66.5096" x2="2420.32" y2="66.5096" gradientUnits="userSpaceOnUse">
<stop stop-color="#000637"/>
<stop offset="0.322917" stop-color="#0019FF"/>
<stop offset="0.661458" stop-color="#0019FF"/>
<stop offset="1" stop-color="#000637"/>
</linearGradient>
</defs>
</svg>
