<svg width="172" height="172" viewBox="0 0 172 172" fill="none" xmlns="http://www.w3.org/2000/svg">
<path fill-rule="evenodd" clip-rule="evenodd" d="M92.0518 9.68777C92.6734 9.85106 93.0783 9.944 93.2666 9.9666C94.8534 10.1571 96.2649 9.87636 97.5011 9.12441C98.8839 8.28774 99.6753 7.03563 99.8755 5.3681C100.032 4.06365 99.5744 2.87644 98.5024 1.80648C97.5274 0.836833 96.4247 0.278155 95.1942 0.130441C94.616 0.0610232 94.1265 0.0193125 93.7257 0.00530854C93.325 -0.0086954 93.013 0.00500748 92.7897 0.0464172C92.2951 -0.0948088 91.935 0.121149 91.7093 0.694291C91.5923 0.987183 91.4938 1.46646 91.4139 2.13213L91.2468 3.52399C91.1325 4.36287 90.8914 5.74585 90.5237 7.67293C90.1871 9.45369 89.9595 10.8383 89.8409 11.8267L89.4849 14.792C89.4526 15.0609 89.5126 15.3 89.6648 15.5093C89.8178 15.7118 90.0288 15.8292 90.2978 15.8615C90.56 15.893 90.7895 15.8285 90.9861 15.6679C91.1835 15.5006 91.2983 15.2825 91.3306 15.0135C91.6357 12.4719 91.8761 10.6966 92.0518 9.68777ZM93.933 1.94344C94.17 1.95824 94.4364 1.9834 94.7322 2.01892C95.5929 2.12224 96.3665 2.46748 97.0531 3.05465C97.7946 3.69615 98.1202 4.39344 98.0298 5.14652C97.9022 6.20891 97.3773 7.00191 96.455 7.52553C95.6132 8.00424 94.6274 8.1758 93.4978 8.04019L92.4041 7.77589L93.0978 3.78712L93.3408 1.93373C93.5054 1.92621 93.7028 1.92944 93.933 1.94344ZM85.3075 16.2073C84.9434 16.2411 84.6258 16.0801 84.3547 15.7244C84.1224 15.4195 83.8902 14.897 83.6583 14.1567L83.1327 12.4508C82.7561 11.3975 82.0968 9.05785 81.1549 5.43174L79.6981 11.7188L79.2797 13.696C79.1076 14.4805 78.9127 15.1277 78.6947 15.6376C78.4591 16.1764 78.1019 16.468 77.6231 16.5124C77.2253 16.5494 76.8917 16.3627 76.6223 15.9524C76.4477 15.683 76.2794 15.3347 76.1173 14.9077L75.7198 13.8121C74.8178 11.495 73.981 9.00175 73.2096 6.33242L73.0135 8.17678L72.2044 13.6385C72.2086 14.2707 72.1261 15.2135 71.9568 16.4671C71.8033 17.0118 71.4939 17.3058 71.0286 17.349C70.6982 17.3796 70.4243 17.286 70.2068 17.0682C70.0195 16.8815 69.912 16.6398 69.8845 16.3431C69.78 15.217 69.8843 13.8131 70.1975 12.1313L70.9318 7.95171L71.2227 4.71107C71.3811 3.19328 71.6042 2.18978 71.8921 1.70057C72.1255 1.28443 72.4412 1.05789 72.839 1.02096C73.2773 0.980283 73.6275 1.19943 73.8896 1.6784C74.2083 2.25414 74.6051 3.45175 75.0801 5.27123C75.6434 7.45659 76.4225 9.80555 77.4174 12.3181C78.1745 9.62934 78.7866 6.84518 79.2539 3.96566L79.4203 2.46073C79.4866 1.85605 79.6006 1.36258 79.7624 0.980291C79.9791 0.456882 80.3167 0.173898 80.7752 0.131338C81.3551 0.0775132 81.8488 0.596208 82.2561 1.68742C82.3997 2.06177 82.605 2.84527 82.8721 4.03792C83.5529 7.04893 84.2901 9.60582 85.0838 11.7086L85.7409 13.4023C86.0835 14.3091 86.2648 14.8704 86.2849 15.0862C86.3118 15.3762 86.223 15.6292 86.0187 15.8454C85.821 16.061 85.584 16.1816 85.3075 16.2073ZM64.5353 16.6988C65.4924 18.059 66.2655 18.6374 66.8544 18.434C67.1104 18.3455 67.3056 18.1742 67.4399 17.92C67.5742 17.6658 67.5938 17.4011 67.4987 17.1259C67.4389 16.953 67.2267 16.6394 66.862 16.1851L65.7905 14.8572L62.0544 8.67844L60.3349 5.66134C59.906 5.02137 59.4388 4.78874 58.9331 4.96345C58.5618 5.09172 58.0368 6.6309 57.3579 9.58099C56.8589 11.7453 56.4812 13.6383 56.2248 15.2603C55.6484 15.6242 55.4497 16.0654 55.6288 16.5839C55.704 16.8015 55.8248 16.9748 55.9911 17.1036C55.7256 19.4666 55.6459 20.8018 55.7521 21.109C55.8472 21.3843 56.026 21.5804 56.2886 21.6975C56.5575 21.8124 56.82 21.8256 57.0761 21.7371C57.4281 21.6155 57.6447 21.34 57.7256 20.9108C57.9429 19.0302 58.0666 17.6153 58.097 16.6662L60.4685 15.2557C61.445 14.6604 62.2443 14.2051 62.8662 13.89C63.6134 15.2439 64.1698 16.1802 64.5353 16.6988ZM58.4567 14.0055L59.6734 8.63052L61.7316 12.068C60.2543 12.8936 59.1626 13.5395 58.4567 14.0055ZM46.6266 11.472C46.4292 12.8821 46.3093 14.0176 46.267 14.8788L46.1659 17.1362C46.1143 17.9951 46.03 18.743 45.9131 19.3797L49.5312 20.993C50.9649 21.6292 52.1907 22.1151 53.2085 22.4506C53.4814 22.545 53.6818 22.696 53.8096 22.9036C53.9588 23.1458 53.999 23.4113 53.9303 23.7002C53.8674 23.9855 53.7149 24.2027 53.4727 24.3518C53.2535 24.4868 52.9938 24.5235 52.6934 24.4619C52.0181 24.321 51.2367 24.0466 50.3493 23.6388L48.0929 22.5707L45.5364 21.4608L44.6809 26.7358L44.1866 29.4977C44.1135 29.8052 43.9617 30.03 43.731 30.172C43.4946 30.3176 43.2319 30.3561 42.9431 30.2874C42.6542 30.2187 42.4352 30.0633 42.2861 29.8211C42.1583 29.6135 42.1125 29.3713 42.1488 29.0944L42.6351 26.397L43.5616 20.6369C42.4053 20.1798 41.2068 19.7447 39.9662 19.3316L38.1265 18.5915C37.3891 18.2981 36.7586 18.1137 36.235 18.0384C35.8685 17.9858 35.6036 17.8268 35.4403 17.5615C35.2947 17.3251 35.2487 17.0631 35.3022 16.7756C35.3558 16.4881 35.5066 16.268 35.7546 16.1153C36.2447 15.8135 37.1918 15.95 38.5957 16.525C39.0487 16.7312 39.7163 17.008 40.5984 17.3556C41.7388 17.735 42.8492 18.1368 43.9296 18.5611L44.2079 14.596C44.3907 12.0258 44.6725 10.6235 45.053 10.3891C45.2895 10.2435 45.5521 10.205 45.841 10.2737C46.1298 10.3424 46.3488 10.4978 46.4979 10.74C46.6222 10.9419 46.6651 11.1859 46.6266 11.472ZM31.5172 21.8157C31.6246 21.7621 31.713 21.703 31.7824 21.6384C31.9957 21.4401 32.0958 21.1898 32.0828 20.8874C32.0688 20.6138 31.9696 20.3778 31.7851 20.1794C31.4669 19.8372 31.0794 19.7536 30.6226 19.9287C29.636 20.3097 28.5402 21.0605 27.335 22.1812C26.8688 22.6146 26.4073 23.1178 25.9504 23.6906C25.4985 24.2587 25.0487 24.8989 24.6012 25.611C24.3187 25.6055 24.0732 25.6996 23.8649 25.8933C23.369 26.3544 23.3954 26.8801 23.9442 27.4703C24.1148 27.6538 24.3909 27.901 24.7726 28.212C25.1496 28.518 25.4234 28.7627 25.594 28.9462C26.2304 29.6307 27.1654 30.7356 28.399 32.2611C28.4292 32.4827 28.5228 32.6777 28.6796 32.8464C28.7995 32.9753 28.9397 33.0715 29.1004 33.1348C29.4814 33.5943 29.8397 34.0194 30.1753 34.4102C30.5109 34.8009 30.8263 35.155 31.1214 35.4724C32.6017 37.0644 33.7851 37.8597 34.6717 37.8584C35.4863 37.8593 36.6623 37.1449 38.1997 35.7153C39.752 34.2719 40.7175 33.2864 41.096 32.7586C41.4392 32.2823 41.4171 31.8359 41.0297 31.4193C40.5501 30.9035 40.0475 30.89 39.5218 31.3789C39.4275 31.4665 39.2998 31.6176 39.1387 31.8321C38.973 32.0418 38.8405 32.1927 38.7413 32.2849C38.4289 32.5754 37.9719 33.0188 37.3704 33.6151C36.7693 34.2018 36.3149 34.6381 36.0075 34.9241C35.3478 35.5374 34.894 35.83 34.6458 35.8018C34.3073 35.7559 33.6284 35.185 32.6092 34.0889C32.3556 33.8162 32.0885 33.519 31.8079 33.1973C31.5276 32.866 31.2337 32.5151 30.9261 32.1446L34.0725 28.6363L35.6978 26.8338C36.1033 26.3549 36.0963 25.8899 35.6766 25.4386C35.4599 25.2055 35.2125 25.0887 34.9346 25.0881C34.6567 25.0876 34.4087 25.1888 34.1904 25.3917C33.9722 25.5946 33.4306 26.1907 32.5657 27.1799L29.5978 30.5222C28.5615 29.2386 27.7229 28.2521 27.0819 27.5628C26.902 27.3694 26.6399 27.1322 26.2955 26.8514C26.708 26.1811 27.1202 25.5851 27.5321 25.0634C27.944 24.5417 28.3533 24.0918 28.76 23.7136C29.5386 22.9896 30.4577 22.357 31.5172 21.8157ZM18.3852 37.176C18.1208 37.6018 17.6791 38.2362 17.0599 39.0794C16.4608 39.9031 16.0248 40.5411 15.7519 40.9935L15.3714 41.6062C16.1761 42.0819 17.5131 42.8044 19.3824 43.7738C21.1237 44.6796 22.4547 45.4183 23.3752 45.9898C23.5766 46.1149 23.894 46.2841 24.3275 46.4974C24.761 46.7108 25.0813 46.8818 25.2884 47.0104C25.6797 47.2533 25.977 47.5256 26.1803 47.8272C26.46 48.224 26.4944 48.5922 26.2837 48.9317C26.1408 49.1618 25.9316 49.3189 25.6562 49.403C25.3808 49.4871 25.1165 49.4505 24.8634 49.2933C24.7771 49.2398 24.6566 49.145 24.5018 49.0091C24.3471 48.8731 24.2266 48.7784 24.1403 48.7248C23.8583 48.5497 23.423 48.3073 22.8341 47.9975C22.2489 47.6819 21.8124 47.4348 21.5247 47.2562C20.702 46.7454 19.5045 46.0935 17.9322 45.3006C16.2355 44.4385 15.0308 43.7981 14.3182 43.3795L13.8392 44.1702C13.0569 45.4302 12.3504 46.3627 11.7197 46.9675C11.3096 47.3585 10.8801 47.4147 10.4313 47.1361C10.1954 46.9896 10.0347 46.7862 9.94927 46.5259C9.85507 46.2283 9.90055 45.9496 10.0857 45.6899C10.2222 45.4957 10.5598 45.0676 11.0984 44.4055C11.5247 43.8731 11.8485 43.4285 12.07 43.0718C12.2844 42.7266 12.6037 42.1994 13.028 41.4904C13.4466 40.7777 13.763 40.2488 13.9774 39.9036C14.2524 39.4606 14.6913 38.8244 15.294 37.9949C15.9003 37.1597 16.341 36.5205 16.616 36.0775C16.7696 35.8301 16.9845 35.6766 17.2607 35.6169C17.5312 35.5537 17.793 35.6006 18.0461 35.7578C18.2935 35.9114 18.4517 36.1252 18.5207 36.3993C18.584 36.6697 18.5388 36.9286 18.3852 37.176ZM10.7343 54.9398C10.2319 54.2391 9.61964 53.2752 8.8974 52.0482C8.74959 51.8002 8.56427 51.6358 8.34143 51.555C8.07401 51.4581 7.80585 51.4725 7.53694 51.5984C7.26803 51.7242 7.08627 51.9177 6.99166 52.1787C6.83937 52.5989 7.49077 53.8723 8.94589 55.9988L11.1937 59.277C10.0838 59.6166 8.96434 59.9925 7.83537 60.4045C6.92843 60.6809 6.23347 60.8792 5.75048 60.9995C4.29346 61.4223 3.46688 61.9042 3.27074 62.4454C3.17151 62.7192 3.19031 62.9853 3.32714 63.2438C3.46396 63.5023 3.6629 63.6789 3.92394 63.7735C4.21682 63.8796 4.52314 63.8394 4.8429 63.6527C5.2997 63.3861 5.90812 63.1384 6.66814 62.9096L8.56907 62.3452C9.79752 61.8972 11.0066 61.4926 12.1964 61.1315L15.0529 66.2186L16.3495 68.6334C16.4932 68.8727 16.6797 69.034 16.9089 69.117C17.1763 69.214 17.4445 69.1995 17.7134 69.0737C17.9823 68.9478 18.164 68.7544 18.2587 68.4933C18.351 68.2386 18.3301 67.9682 18.1962 67.6819L16.8657 65.2116L14.2553 60.5486L16.9476 59.828L19.3788 59.2613C20.3274 59.0288 21.1099 58.7578 21.7264 58.4482C21.9999 58.3096 22.1805 58.1193 22.2682 57.8774C22.3651 57.61 22.3495 57.345 22.2214 57.0825C22.0955 56.8135 21.8989 56.6306 21.6315 56.5337C21.4023 56.4506 21.1515 56.457 20.879 56.5527C19.8733 56.923 18.6112 57.3047 17.0928 57.6981L13.2561 58.6846C12.9517 58.1133 12.5527 57.4753 12.059 56.7705L10.7343 54.9398ZM3.53553 69.5007C3.5217 69.5945 3.48965 69.6959 3.43936 69.8048C2.95087 70.8897 2.62909 71.9581 2.47404 73.0099C2.39306 73.5593 2.35492 74.1664 2.35962 74.8311C2.36432 75.4958 2.41522 76.2186 2.5123 76.9996C2.95668 77.0035 3.30951 77.0247 3.57081 77.0632C4.50208 77.2005 5.77335 77.4461 7.38462 77.7999L7.61138 73.3359C7.66799 72.0231 7.71802 71.2193 7.76147 70.9245C7.80492 70.6297 7.93526 70.3957 8.15249 70.2223C8.36971 70.049 8.63577 69.9855 8.95066 70.0319C9.56034 70.1218 9.8566 70.4804 9.83944 71.1076L9.69792 73.5306L9.43561 78.2358C9.90735 78.3327 10.3561 78.4228 10.782 78.5061C11.2021 78.5817 11.5964 78.6467 11.9649 78.701C13.4455 78.9192 14.3323 78.9404 14.6252 78.7646C14.8365 78.6314 15.0078 78.1193 15.1392 77.2282C15.2004 76.8128 15.2822 76.1883 15.3846 75.3545C15.4812 74.5131 15.5606 73.8813 15.6229 73.4593C15.6426 73.3253 15.6516 73.1246 15.65 72.8574C15.6416 72.5892 15.6468 72.3915 15.6655 72.2642C15.7702 71.554 16.1709 71.2503 16.8677 71.353C17.4305 71.4359 17.7269 71.7705 17.7568 72.3568C17.7913 73.0054 17.654 74.3782 17.3449 76.4752C17.0387 78.5522 16.5675 79.8449 15.9312 80.3535C15.2401 80.9088 13.8192 81.028 11.6686 80.7109C11.2398 80.6477 10.7723 80.5686 10.2661 80.4734C9.75984 80.3782 9.21441 80.2705 8.62976 80.15C8.4648 80.201 8.29523 80.2137 8.12103 80.188C7.89324 80.1544 7.69827 80.0607 7.53614 79.9067C5.61964 79.4873 4.19911 79.2094 3.27453 79.0732C3.02664 79.0366 2.65991 79.0168 2.17434 79.0137C1.68208 79.0096 1.312 78.9892 1.06411 78.9527C0.266829 78.8352 -0.0824313 78.4414 0.0163273 77.7714C0.057806 77.49 0.190507 77.2632 0.414429 77.0908C0.318545 76.2552 0.269347 75.4744 0.266834 74.7485C0.265308 74.0158 0.310962 73.3345 0.403795 72.7048C0.643779 71.0767 1.02967 69.8056 1.56146 68.8914C1.80852 68.4692 2.1632 68.2921 2.62548 68.3603C2.89348 68.3998 3.11848 68.5219 3.3005 68.7267C3.49965 68.9546 3.578 69.2126 3.53553 69.5007ZM2.6896 86.2084C2.7225 85.1628 2.72735 84.3897 2.70415 83.8891C2.69067 83.5982 2.58129 83.3592 2.37602 83.1721C2.16398 82.9854 1.91251 82.8987 1.62162 82.9122C1.32396 82.926 1.08158 83.0355 0.894491 83.2408C0.700634 83.4464 0.610445 83.6946 0.623926 83.9855C0.648065 84.5064 0.646753 85.2827 0.61999 86.3145C0.592913 87.3394 0.591444 88.1124 0.615583 88.6333C0.634393 89.0392 0.673069 89.6543 0.73161 90.4787C0.783386 91.3034 0.81868 91.9187 0.837489 92.3246C0.856926 92.744 0.841729 93.2938 0.7919 93.9741C0.722847 94.8247 0.687042 95.3688 0.684485 95.6062C0.678924 95.9251 0.799233 96.1805 1.04541 96.3725C1.26328 96.5386 1.51089 96.6153 1.78825 96.6024C2.31592 96.578 2.63809 96.2885 2.75476 95.7339C2.93205 94.8783 2.98637 93.7097 2.91772 92.2282L2.86478 91.3052C3.68916 91.2467 5.04469 91.0923 6.93135 90.8422C8.67627 90.6054 10.0324 90.4646 10.9998 90.4198C11.3381 90.4041 11.8377 90.3606 12.4988 90.2893C13.1596 90.2112 13.6557 90.1645 13.9872 90.1491C14.0887 90.1444 14.2417 90.1543 14.4462 90.1787C14.6507 90.2031 14.8037 90.213 14.9052 90.2083C15.2028 90.1945 15.4413 90.075 15.6207 89.8497C15.8001 89.6245 15.8835 89.3765 15.871 89.1059C15.8525 88.7068 15.6156 88.4229 15.1604 88.2541C14.822 88.1207 14.4228 88.0646 13.9628 88.0859C13.7192 88.0972 13.3584 88.1377 12.8803 88.2073C12.4022 88.2769 12.0447 88.3172 11.8079 88.3281C10.7255 88.3783 9.21026 88.5231 7.26208 88.7625C5.17247 89.0221 3.66135 89.1836 2.72873 89.2472L2.69534 88.5267C2.66412 87.9994 2.66221 87.2266 2.6896 86.2084ZM166.947 97.0814C166.984 96.6496 167.264 96.3472 167.789 96.1743C168.237 96.0221 168.515 95.869 168.623 95.7151C168.709 95.5797 168.776 95.232 168.824 94.6719C168.907 93.6935 168.25 92.5434 166.854 91.2216C164.981 89.4311 163.143 88.4592 161.342 88.306C160.471 88.2319 159.698 88.4482 159.023 88.9549C158.327 89.4734 157.944 90.1375 157.875 90.9473C157.816 91.6423 157.935 92.3559 158.233 93.0881C158.402 93.4967 158.75 94.1311 159.274 94.9914C159.525 95.4001 159.642 95.7023 159.626 95.898C159.601 96.1882 159.469 96.4216 159.23 96.5984C158.997 96.7757 158.746 96.8529 158.476 96.8299C158.172 96.8041 157.917 96.6532 157.709 96.3773C156.281 94.4615 155.645 92.5927 155.8 90.7708C155.919 89.374 156.556 88.2387 157.711 87.365C158.829 86.5222 160.097 86.1611 161.514 86.2816C163.801 86.4762 166.065 87.6338 168.304 89.7545C170.172 91.5242 171.037 93.2222 170.899 94.8484C170.871 95.1791 170.829 95.4745 170.772 95.7348C170.723 95.9957 170.656 96.2245 170.571 96.4212C170.895 96.6866 171.041 97.0083 171.009 97.3862C170.97 97.8518 170.638 98.1192 170.013 98.1884C169.457 98.2499 168.781 98.2468 167.985 98.179C167.708 98.1555 167.472 98.0606 167.275 97.8944C167.028 97.6898 166.918 97.4188 166.947 97.0814ZM152.949 104.945C153.504 103.117 154.522 101.735 156.003 100.798C157.579 99.8043 159.287 99.587 161.127 100.146C163.369 100.827 165.205 102.11 166.635 103.996C168.219 106.098 168.675 108.257 168.001 110.473C167.354 112.605 166.393 114.044 165.119 114.789C163.792 115.568 162.053 115.631 159.902 114.977C157.66 114.296 155.823 113.073 154.392 111.307C152.757 109.282 152.276 107.161 152.949 104.945ZM166.009 109.868C166.491 108.28 166.109 106.695 164.863 105.114C163.72 103.655 162.274 102.66 160.525 102.129C159.274 101.749 158.116 101.903 157.05 102.592C156.042 103.255 155.339 104.241 154.941 105.55C154.463 107.125 154.862 108.665 156.139 110.171C157.28 111.516 158.735 112.457 160.504 112.994C162.053 113.465 163.247 113.449 164.086 112.946C164.89 112.469 165.531 111.442 166.009 109.868ZM143.888 127.163C144.486 127.643 144.925 127.965 145.204 128.13C145.852 128.512 146.811 129.091 148.084 129.867C149.362 130.645 150.325 131.226 150.972 131.608C154.756 133.844 156.948 134.454 157.548 133.44C157.913 132.821 157.757 132.313 157.081 131.913C156.859 131.782 156.516 131.658 156.05 131.54C155.51 131.402 155.158 131.3 154.992 131.234C153.359 130.537 151.263 129.432 148.703 127.92L147.586 127.295C147.085 127.023 146.715 126.804 146.475 126.639C149.006 125.908 151.535 125.357 154.059 124.984C156.185 124.675 158.764 124.436 161.797 124.269C162.742 124.214 163.306 124.032 163.488 123.723C163.66 123.431 163.705 123.103 163.621 122.739C163.534 122.381 163.356 122.123 163.088 121.964C162.72 121.747 162.151 121.458 161.381 121.098C160.617 120.741 160.051 120.454 159.684 120.237C159.299 120.009 158.711 119.674 157.919 119.229C157.133 118.789 156.548 118.455 156.163 118.228C155.801 118.014 155.266 117.682 154.557 117.232C153.853 116.785 153.321 116.454 152.96 116.241C152.715 116.096 152.356 115.857 151.885 115.523C151.41 115.196 151.05 114.959 150.805 114.815C150.554 114.667 150.289 114.624 150.008 114.686C149.694 114.752 149.442 114.945 149.252 115.266C148.894 115.872 149.499 116.639 151.068 117.566C151.558 117.855 152.293 118.274 153.275 118.822C154.253 119.377 154.984 119.797 155.468 120.082L157.447 121.287L159.407 122.503C153.358 123.075 148.511 123.885 144.864 124.932C144.182 125.127 143.747 125.385 143.557 125.706C143.244 126.236 143.354 126.722 143.888 127.163ZM142.486 147.026C142.829 146.661 143.386 146.125 144.159 145.419C144.907 144.729 145.46 144.189 145.816 143.798L146.309 143.272C145.613 142.648 144.443 141.678 142.8 140.361C141.27 139.132 140.109 138.147 139.318 137.406C139.145 137.244 138.867 137.016 138.484 136.722C138.101 136.428 137.82 136.198 137.642 136.031C137.306 135.716 137.068 135.391 136.927 135.055C136.731 134.611 136.769 134.244 137.042 133.952C137.227 133.754 137.463 133.641 137.75 133.613C138.036 133.584 138.288 133.672 138.506 133.875C138.58 133.945 138.68 134.061 138.805 134.225C138.93 134.388 139.029 134.505 139.104 134.574C139.346 134.801 139.725 135.124 140.242 135.543C140.754 135.967 141.134 136.295 141.381 136.527C142.088 137.189 143.135 138.062 144.521 139.148C146.016 140.325 147.072 141.189 147.689 141.739L148.314 141.058C149.327 139.975 150.203 139.199 150.94 138.729C151.419 138.426 151.851 138.455 152.236 138.816C152.439 139.006 152.557 139.237 152.589 139.509C152.624 139.819 152.524 140.084 152.292 140.302C152.12 140.466 151.705 140.82 151.047 141.363C150.525 141.802 150.121 142.175 149.833 142.481C149.556 142.778 149.139 143.232 148.584 143.844C148.034 144.461 147.621 144.918 147.343 145.215C146.986 145.595 146.431 146.133 145.678 146.829C144.92 147.529 144.363 148.069 144.006 148.45C143.807 148.663 143.566 148.771 143.284 148.775C143.006 148.785 142.759 148.687 142.541 148.484C142.329 148.284 142.215 148.044 142.201 147.762C142.192 147.484 142.287 147.239 142.486 147.026ZM131.918 156.244C131.805 156.284 131.71 156.332 131.633 156.387C131.397 156.558 131.267 156.794 131.242 157.095C131.222 157.369 131.292 157.615 131.45 157.835C131.724 158.214 132.098 158.344 132.573 158.227C133.599 157.971 134.779 157.361 136.114 156.398C136.63 156.025 137.15 155.583 137.674 155.071C138.193 154.563 138.718 153.983 139.25 153.332C139.53 153.372 139.785 153.309 140.016 153.143C140.565 152.746 140.603 152.221 140.132 151.568C139.985 151.365 139.742 151.085 139.401 150.73C139.065 150.379 138.823 150.103 138.677 149.9C138.13 149.142 137.338 147.93 136.303 146.264C136.3 146.04 136.231 145.835 136.097 145.648C135.994 145.505 135.866 145.393 135.715 145.31C135.393 144.807 135.09 144.341 134.805 143.912C134.521 143.482 134.251 143.092 133.998 142.741C132.725 140.978 131.649 140.043 130.769 139.935C129.961 139.833 128.706 140.397 127.004 141.625C125.285 142.866 124.205 143.725 123.764 144.202C123.365 144.632 123.332 145.078 123.665 145.539C124.077 146.11 124.574 146.186 125.156 145.765C125.26 145.69 125.406 145.556 125.592 145.363C125.783 145.175 125.933 145.042 126.043 144.963C126.388 144.713 126.897 144.329 127.567 143.812C128.236 143.304 128.741 142.927 129.081 142.681C129.812 142.154 130.298 141.92 130.541 141.979C130.871 142.066 131.475 142.716 132.35 143.93C132.568 144.232 132.797 144.56 133.036 144.914C133.273 145.277 133.521 145.662 133.781 146.067L130.225 149.16L128.39 150.748C127.928 151.173 127.878 151.635 128.238 152.135C128.425 152.393 128.656 152.54 128.931 152.575C129.207 152.609 129.466 152.54 129.707 152.365C129.949 152.191 130.56 151.666 131.54 150.791L134.898 147.841C135.768 149.243 136.479 150.325 137.029 151.089C137.184 151.303 137.415 151.571 137.722 151.892C137.23 152.506 136.747 153.046 136.274 153.513C135.801 153.98 135.339 154.376 134.889 154.701C134.027 155.323 133.037 155.838 131.918 156.244ZM109.278 154.825C109.147 154.528 108.978 154.01 108.772 153.272C108.595 152.603 108.789 152.143 109.353 151.895C109.693 151.745 110.198 151.789 110.865 152.028C114.439 153.302 118.85 155.469 124.099 158.529L123.215 156.399L122.309 154.267C122.082 153.752 121.733 152.985 121.261 151.964C120.783 150.947 120.429 150.177 120.2 149.657C119.465 147.99 119.42 147.014 120.065 146.73C120.406 146.58 120.723 146.57 121.017 146.699C121.281 146.812 121.472 147.002 121.59 147.268C121.704 147.529 121.859 147.93 122.054 148.474C122.243 149.019 122.395 149.422 122.509 149.683C122.679 150.067 122.919 150.646 123.23 151.419C123.544 152.198 123.785 152.78 123.955 153.164C124.135 153.573 124.416 154.186 124.798 155.002C125.182 155.824 125.465 156.44 125.645 156.849C125.817 157.239 126.109 157.802 126.522 158.538C126.938 159.28 127.232 159.846 127.404 160.236C127.53 160.521 127.524 160.835 127.386 161.177C127.242 161.522 127.015 161.762 126.705 161.899C126.376 162.044 125.812 161.863 125.012 161.357C122.45 159.726 120.215 158.416 118.307 157.429C116.039 156.26 113.663 155.235 111.18 154.353C111.279 154.628 111.452 155.022 111.7 155.534L112.244 156.693C113.443 159.414 114.503 161.533 115.423 163.051C115.519 163.202 115.746 163.49 116.105 163.917C116.414 164.284 116.621 164.585 116.725 164.82C117.041 165.539 116.871 166.043 116.214 166.333C115.136 166.808 113.711 165.035 111.938 161.013C111.635 160.325 111.191 159.292 110.606 157.914C110.024 156.543 109.581 155.513 109.278 154.825ZM98.3343 168.217C97.2951 168.336 96.5295 168.444 96.0376 168.54C95.7517 168.595 95.5312 168.738 95.376 168.969C95.222 169.205 95.1729 169.467 95.2285 169.753C95.2855 170.045 95.4291 170.269 95.6594 170.424C95.891 170.586 96.1497 170.639 96.4356 170.584C96.9474 170.484 97.7157 170.372 98.7403 170.249C99.7583 170.126 100.523 170.015 101.035 169.916C101.434 169.838 102.037 169.71 102.844 169.533C103.652 169.361 104.256 169.237 104.655 169.159C105.067 169.079 105.613 169.014 106.293 168.964C107.145 168.909 107.689 168.865 107.924 168.833C108.24 168.792 108.475 168.636 108.629 168.365C108.762 168.125 108.802 167.869 108.749 167.596C108.648 167.078 108.315 166.801 107.749 166.766C106.877 166.715 105.713 166.832 104.257 167.115L103.351 167.302C103.174 166.495 102.824 165.176 102.302 163.346C101.814 161.654 101.477 160.333 101.292 159.382C101.227 159.05 101.112 158.562 100.945 157.918C100.771 157.276 100.653 156.792 100.59 156.466C100.57 156.366 100.558 156.213 100.552 156.007C100.547 155.802 100.534 155.649 100.515 155.549C100.458 155.257 100.305 155.038 100.056 154.893C99.8068 154.749 99.5494 154.702 99.2835 154.754C98.8913 154.83 98.6449 155.106 98.5442 155.581C98.4613 155.935 98.4639 156.338 98.5519 156.79C98.5985 157.03 98.691 157.381 98.8295 157.844C98.9679 158.306 99.0598 158.654 99.105 158.887C99.3121 159.95 99.6758 161.429 100.196 163.321C100.757 165.351 101.137 166.822 101.335 167.736L100.627 167.874C100.11 167.981 99.3456 168.096 98.3343 168.217ZM76.8806 155.642C77.9897 155.02 79.5224 154.796 81.4786 154.97C81.9711 155.014 82.5274 155.142 83.1477 155.353C83.8938 155.603 84.4461 155.89 84.8048 156.214L84.906 156.223C85.1961 156.249 85.4299 156.372 85.6076 156.592C85.7852 156.812 85.8611 157.066 85.8353 157.357C85.7723 158.065 85.6478 159.121 85.4617 160.526C85.2682 161.936 85.14 162.996 85.077 163.704C85.0068 164.493 84.919 165.672 84.8136 167.24C84.7008 168.814 84.6093 169.995 84.5391 170.785C84.5145 171.061 84.347 171.339 84.0367 171.617C83.7264 171.895 83.4296 172.022 83.1463 171.997C82.9844 171.982 82.4649 171.708 81.5876 171.175C80.5938 170.577 80.0184 170.243 79.8613 170.175C78.0037 169.35 76.4606 168.2 75.2321 166.724C73.7891 164.984 73.1527 163.157 73.3231 161.241C73.4257 160.087 73.7973 159.006 74.4379 157.995C75.0717 156.984 75.8859 156.2 76.8806 155.642ZM78.0534 166.537C78.7012 167.05 80.2208 167.967 82.6122 169.288L82.8207 166.369L83.0486 163.462L83.7019 157.952C83.6564 157.928 83.5895 157.877 83.5011 157.802C82.9428 157.351 82.2118 157.085 81.3079 157.005C79.7699 156.868 78.6291 157.005 77.8856 157.414C77.1917 157.801 76.6192 158.352 76.1681 159.067C75.7096 159.787 75.4441 160.556 75.3715 161.372C75.2024 163.274 76.0963 164.996 78.0534 166.537ZM58.1575 165.2C58.0569 165.134 57.9613 165.088 57.8704 165.061C57.5915 164.977 57.3249 165.017 57.0707 165.182C56.8417 165.332 56.6884 165.537 56.6106 165.797C56.4765 166.244 56.6005 166.621 56.9827 166.926C57.8106 167.584 59.0127 168.15 60.5891 168.622C61.1989 168.805 61.8664 168.948 62.5916 169.052C63.3104 169.155 64.0901 169.219 64.9308 169.244C65.069 169.491 65.2744 169.655 65.5468 169.737C66.1955 169.931 66.6356 169.642 66.8669 168.87C66.9388 168.63 67.0123 168.267 67.0874 167.78C67.1606 167.3 67.2331 166.94 67.3051 166.7C67.5733 165.805 68.0533 164.439 68.7448 162.604C68.9206 162.465 69.0415 162.286 69.1076 162.065C69.1581 161.897 69.1701 161.727 69.1434 161.556C69.3469 160.995 69.5323 160.471 69.6995 159.984C69.8667 159.497 70.0125 159.046 70.1369 158.63C70.761 156.548 70.8481 155.125 70.3983 154.361C69.9869 153.658 68.7756 153.005 66.7646 152.402C64.7341 151.794 63.3955 151.46 62.7487 151.4C62.1643 151.345 61.7904 151.59 61.6271 152.135C61.4249 152.81 61.6677 153.25 62.3553 153.456C62.4786 153.493 62.6735 153.527 62.9401 153.557C63.2048 153.594 63.402 153.632 63.5317 153.671C63.9404 153.794 64.5541 153.963 65.3728 154.18C66.183 154.402 66.7893 154.573 67.1915 154.694C68.0543 154.952 68.5363 155.196 68.6375 155.424C68.7693 155.739 68.6204 156.614 68.1908 158.047C68.0838 158.404 67.9627 158.785 67.8272 159.19C67.6833 159.599 67.5294 160.03 67.3654 160.483L62.7473 159.544L60.3702 159.055C59.752 158.947 59.3544 159.189 59.1775 159.779C59.0861 160.084 59.1105 160.356 59.2507 160.596C59.3909 160.836 59.6037 160.999 59.8892 161.084C60.1746 161.17 60.9628 161.336 62.2537 161.581L66.6382 162.449C66.0556 163.993 65.6291 165.215 65.3589 166.117C65.2831 166.37 65.2112 166.716 65.1432 167.155C64.3564 167.139 63.6338 167.085 62.9753 166.993C62.3169 166.902 61.7217 166.777 61.1898 166.617C60.1713 166.312 59.1605 165.84 58.1575 165.2ZM49.264 145.549C49.8128 145.844 49.9119 146.804 49.5611 148.43C49.4278 149.05 49.1169 150.094 48.6283 151.561C49.2817 151.804 50.1583 152.083 51.258 152.397L53.9028 153.184C54.6209 152.563 55.7448 151.694 57.2743 150.579C57.6447 150.347 57.994 150.32 58.3221 150.496C58.5607 150.624 58.729 150.826 58.827 151.102C58.919 151.374 58.896 151.638 58.7582 151.895C58.6044 152.181 57.569 153.028 55.6522 154.435C55.6702 154.645 55.6248 154.851 55.5158 155.054C55.2562 155.537 54.7972 155.69 54.1388 155.513C52.7728 156.425 51.1253 157.431 49.1962 158.531C46.5676 160.033 45.0803 160.691 44.7343 160.505C44.263 160.251 44.1171 159.75 44.2967 159.001L45.3483 155.691L47.3564 148.756L47.6059 147.068C47.6925 146.492 47.7791 146.123 47.8657 145.962C48.0035 145.706 48.2113 145.54 48.4892 145.467C48.7671 145.393 49.0254 145.42 49.264 145.549ZM46.9276 157.474L51.7032 154.724C50.882 154.521 49.6671 154.156 48.0585 153.63L46.9276 157.474ZM41.5774 139.594C40.1272 138.78 38.992 138.27 38.172 138.065C37.7077 137.949 37.3386 138.058 37.0649 138.394C36.8938 138.605 36.8076 138.844 36.8063 139.114C36.8131 139.417 36.9294 139.66 37.1552 139.844C37.2339 139.908 37.3286 139.963 37.4393 140.01C40.0732 141.055 42.0689 142.143 43.4265 143.275C43.1632 143.62 42.8331 143.993 42.4361 144.395L41.3585 145.508C39.2364 147.824 36.967 150.465 34.5504 153.432C34.3665 153.657 34.2865 153.911 34.3105 154.193C34.3292 154.47 34.4514 154.7 34.6772 154.884C34.8977 155.064 35.1483 155.137 35.4288 155.104C35.7042 155.066 35.9338 154.934 36.1177 154.708C38.5044 151.778 40.7455 149.167 42.841 146.873L45.1221 144.395C45.6012 143.807 45.773 143.274 45.6376 142.797C45.5392 142.446 45.2248 142.054 44.6945 141.622C43.9541 141.019 42.9151 140.343 41.5774 139.594ZM19.6899 137.511C19.7519 137.583 19.8078 137.673 19.8574 137.783C20.3599 138.861 20.9587 139.802 21.6539 140.607C22.017 141.027 22.4518 141.452 22.9582 141.883C23.4646 142.314 24.0452 142.747 24.7 143.184C24.9932 142.85 25.2397 142.596 25.4395 142.424C26.1517 141.808 27.168 141.006 28.4884 140.017L25.2562 136.93C24.2991 136.029 23.7231 135.466 23.5283 135.241C23.3334 135.016 23.2413 134.764 23.252 134.486C23.2626 134.209 23.3883 133.966 23.6291 133.758C24.0954 133.355 24.5604 133.364 25.0242 133.787L26.7664 135.477L30.158 138.749C30.5395 138.455 30.9009 138.174 31.2421 137.906C31.5737 137.637 31.8805 137.381 32.1623 137.137C33.2947 136.159 33.8899 135.501 33.948 135.164C33.9852 134.917 33.7093 134.453 33.1204 133.772C32.8458 133.454 32.4263 132.984 31.8618 132.362C31.2878 131.739 30.8613 131.267 30.5823 130.944C30.4938 130.841 30.3478 130.703 30.1443 130.53C29.9358 130.361 29.7894 130.228 29.7053 130.131C29.2359 129.588 29.2676 129.086 29.8005 128.625C30.2309 128.253 30.6778 128.248 31.1414 128.608C31.655 129.005 32.6048 130.006 33.9908 131.61C35.3636 133.198 36.0347 134.399 36.0043 135.213C35.9733 136.099 35.1355 137.253 33.4908 138.674C33.1628 138.958 32.7975 139.26 32.3948 139.581C31.9921 139.903 31.5543 140.245 31.0812 140.609C31.0121 140.767 30.9109 140.904 30.7777 141.019C30.6035 141.17 30.4051 141.256 30.1827 141.278C28.6133 142.456 27.4751 143.35 26.768 143.961C26.5784 144.125 26.3239 144.39 26.0044 144.755C25.6797 145.125 25.4226 145.392 25.233 145.556C24.6233 146.083 24.097 146.09 23.6542 145.578C23.4682 145.363 23.3831 145.114 23.3988 144.832C22.7035 144.359 22.0801 143.886 21.5287 143.414C20.9729 142.936 20.4869 142.457 20.0707 141.975C18.9946 140.73 18.2841 139.608 17.9392 138.608C17.7808 138.145 17.8784 137.761 18.232 137.455C18.4369 137.278 18.6764 137.188 18.9504 137.183C19.253 137.182 19.4995 137.291 19.6899 137.511ZM23.3209 118.316C23.3961 118.014 23.369 117.752 23.2397 117.529C23.1003 117.289 22.8888 117.134 22.6052 117.064C22.3182 116.988 22.0517 117.021 21.8058 117.164C21.595 117.286 21.4401 117.478 21.3411 117.739C20.7816 119.27 20.5418 121.23 20.6217 123.62C19.7701 122.814 18.8803 122.246 17.9522 121.916C16.7977 121.506 15.7753 121.559 14.8852 122.076C13.0699 123.131 12.2215 125.21 12.34 128.313C12.3669 129.033 12.5636 129.824 12.9301 130.684L13.9928 132.898C14.1914 133.307 14.5106 133.533 14.9502 133.575C15.3108 133.616 15.6581 133.54 15.9919 133.346C16.2905 133.172 16.7173 132.889 17.2723 132.496C17.8239 132.098 18.249 131.812 18.5477 131.638C19.0806 131.329 19.914 130.923 21.0478 130.421C22.1816 129.919 23.0179 129.511 23.5567 129.199C24.0193 128.93 24.6984 128.508 25.594 127.933C26.4803 127.355 27.1548 126.932 27.6174 126.664C27.8751 126.514 28.0412 126.308 28.1158 126.045C28.1928 125.773 28.1582 125.511 28.0119 125.26C27.8657 125.008 27.6571 124.851 27.3862 124.789C27.1177 124.718 26.8546 124.757 26.597 124.907L24.892 125.956L23.2112 127.026C22.4953 124.27 22.5319 121.367 23.3209 118.316ZM15.5271 131.231L14.8774 129.87C14.4361 128.881 14.2909 127.775 14.4419 126.551C14.6071 125.218 15.0968 124.315 15.9108 123.842C16.1392 123.709 16.5075 123.703 17.0157 123.823C17.4717 123.934 17.8858 124.101 18.2578 124.323C19.088 124.836 19.9368 125.838 20.8042 127.332C20.8552 127.42 20.9288 127.553 21.025 127.732C21.1178 127.905 21.188 128.033 21.2356 128.115L19.3804 128.946C18.6393 129.274 18.0346 129.575 17.5661 129.847C17.2908 130.007 16.9485 130.233 16.5389 130.526L15.5271 131.231ZM19.1617 115.581C18.8943 115.678 18.6459 115.662 18.4163 115.532C18.1781 115.398 18.0125 115.193 17.9195 114.917C17.8135 114.603 17.9002 114.266 18.1795 113.908C18.5569 113.416 18.789 113.013 18.8757 112.697C19.0512 112.031 18.9637 111.178 18.6133 110.138C18.278 109.143 17.7515 108.292 17.0338 107.583C16.1142 106.678 15.1634 106.391 14.1815 106.722C13.3729 106.995 12.8891 107.669 12.7299 108.744C12.5874 109.657 12.6926 110.69 13.0456 111.843C13.3489 112.87 13.4184 113.808 13.2542 114.657C13.0416 115.743 12.4508 116.45 11.4818 116.776C10.3394 117.161 9.07813 116.865 7.69779 115.886C6.38827 114.949 5.51069 113.819 5.06506 112.497C4.85523 111.874 4.72424 111.136 4.6721 110.281C4.5976 109.149 4.77534 108.51 5.20531 108.365C5.77004 108.175 6.14975 108.368 6.34445 108.946C6.43098 109.203 6.51502 109.675 6.59658 110.362C6.67172 111.051 6.77199 111.571 6.89738 111.922C7.24768 112.919 7.78138 113.686 8.49848 114.223C9.23491 114.775 9.95608 114.932 10.662 114.694C11.1946 114.515 11.41 113.913 11.308 112.89C11.2725 112.509 11.1191 111.8 10.8479 110.762C10.4616 109.255 10.5364 107.951 11.0724 106.848C11.5616 105.84 12.342 105.155 13.4137 104.794C14.941 104.279 16.3983 104.574 17.7855 105.679C18.988 106.639 19.8619 107.927 20.407 109.544C20.8029 110.719 20.9406 111.869 20.8202 112.996C20.6707 114.376 20.1178 115.237 19.1617 115.581ZM109.255 19.0041C108.42 19.1377 107.176 19.1149 105.522 18.9357C103.998 18.7725 102.777 18.559 101.859 18.2953C101.202 18.1064 100.759 17.8699 100.53 17.5859C100.218 17.2003 100.167 16.643 100.377 15.914L101.5 12.7385C102.526 9.80603 103.561 6.52384 104.605 2.8919C104.685 2.61202 104.844 2.40063 105.083 2.25773C105.328 2.1167 105.587 2.08546 105.86 2.16401C106.14 2.24443 106.343 2.40845 106.469 2.65609C106.602 2.90559 106.628 3.17028 106.547 3.45016C105.491 7.12767 104.442 10.448 103.4 13.4111L102.847 14.8586C102.639 15.3839 102.482 15.8567 102.376 16.277C104.069 16.7847 106.332 17.0015 109.164 16.9276C109.284 16.9269 109.393 16.9405 109.491 16.9686C109.771 17.049 109.973 17.227 110.098 17.5025C110.203 17.7511 110.218 18.0055 110.143 18.2659C110.024 18.6824 109.727 18.9285 109.255 19.0041ZM125.807 11.8368C125.896 11.9176 125.983 11.9787 126.068 12.0201C126.33 12.1474 126.599 12.1504 126.877 12.0291C127.127 11.9172 127.311 11.7395 127.429 11.4958C127.634 11.0755 127.572 10.684 127.243 10.3212C126.532 9.53879 125.436 8.78799 123.956 8.06883C123.383 7.79063 122.747 7.54193 122.048 7.32272C121.355 7.10648 120.596 6.91824 119.77 6.75802C119.673 6.49259 119.497 6.29772 119.241 6.17342C118.632 5.87747 118.151 6.09193 117.799 6.81679C117.69 7.04217 117.559 7.38895 117.407 7.85712C117.257 8.3192 117.128 8.66293 117.018 8.8883C116.61 9.72891 115.917 10.9998 114.94 12.701C114.744 12.8092 114.596 12.9669 114.496 13.174C114.419 13.3324 114.38 13.4979 114.379 13.6706C114.088 14.1918 113.821 14.6795 113.578 15.1335C113.334 15.5876 113.118 16.0095 112.929 16.3994C111.979 18.3547 111.664 19.7455 111.986 20.5717C112.279 21.3316 113.37 22.1703 115.258 23.0878C117.165 24.0141 118.432 24.5585 119.061 24.721C119.629 24.869 120.038 24.6871 120.286 24.1755C120.594 23.542 120.425 23.0684 119.779 22.7547C119.664 22.6984 119.477 22.6339 119.218 22.5611C118.963 22.4823 118.775 22.4132 118.653 22.354C118.269 22.1676 117.69 21.9016 116.917 21.556C116.153 21.2073 115.582 20.9412 115.204 20.7577C114.394 20.3641 113.958 20.0465 113.894 19.8049C113.815 19.4726 114.102 18.6334 114.756 17.2872C114.919 16.9522 115.1 16.5958 115.298 16.2179C115.506 15.837 115.727 15.4362 115.961 15.0155L120.369 16.6827L122.637 17.5474C123.23 17.7527 123.661 17.5782 123.93 17.0238C124.069 16.7375 124.089 16.4647 123.989 16.2054C123.889 15.946 123.705 15.7513 123.437 15.621C123.169 15.4908 122.418 15.201 121.183 14.7517L116.995 13.191C117.817 11.7611 118.434 10.6229 118.846 9.77616C118.961 9.5386 119.088 9.20853 119.225 8.78596C119.999 8.9286 120.704 9.09777 121.339 9.29347C121.974 9.48917 122.542 9.70837 123.041 9.95105C123.998 10.4157 124.919 11.0443 125.807 11.8368Z" fill="#0019FF"/>
</svg>
