<svg width="48" height="57" viewBox="0 0 48 57" fill="none" xmlns="http://www.w3.org/2000/svg">
<path d="M26.4841 4.96028C30.3527 0.0240649 35.731 0 35.731 0C35.731 0 36.531 4.64088 32.6877 9.11153C28.5841 13.8852 23.9198 13.1041 23.9198 13.1041C23.9198 13.1041 23.0439 9.34974 26.4841 4.96028ZM24.4118 16.355C26.402 16.355 30.0957 13.7065 34.9036 13.7065C43.1795 13.7065 46.4353 19.4075 46.4353 19.4075C46.4353 19.4075 40.0676 22.5592 40.0676 30.2068C40.0676 38.834 48 41.8072 48 41.8072C48 41.8072 42.455 56.9163 34.9652 56.9163C31.5252 56.9163 28.8508 54.6721 25.2262 54.6721C21.5325 54.6721 17.867 57 15.4797 57C8.6404 57.0002 0 42.6676 0 31.1466C0 19.8115 7.31353 13.8653 14.1733 13.8653C18.6328 13.8653 22.0934 16.355 24.4118 16.355Z" fill="black"/>
</svg>
