<svg width="1500" height="369" viewBox="0 0 1500 369" fill="none" xmlns="http://www.w3.org/2000/svg">
<path opacity="0.2" d="M2 9.49969C58 -2.50024 178.7 71.9997 271.5 71.9997C387.5 71.9997 419.5 9.49969 546 9.49969C672.5 9.49969 688 71.9997 802.5 71.9997C917 71.9997 982.5 9.49969 1086 9.49969C1189.5 9.49969 1217.5 71.9997 1360.5 71.9997C1503.5 71.9997 1466 9.49969 1687 9.49969" stroke="#BCBCBC" stroke-width="15"/>
<path opacity="0.2" d="M2 58.3083C58 46.3083 178.7 120.808 271.5 120.808C387.5 120.808 419.5 58.3083 546 58.3083C672.5 58.3083 688 120.808 802.5 120.808C917 120.808 982.5 58.3083 1086 58.3083C1189.5 58.3083 1217.5 120.808 1360.5 120.808C1503.5 120.808 1466 58.3083 1687 58.3083" stroke="#BCBCBC" stroke-width="15"/>
<path opacity="0.2" d="M2 106.308C58 94.3083 178.7 168.808 271.5 168.808C387.5 168.808 419.5 106.308 546 106.308C672.5 106.308 688 168.808 802.5 168.808C917 168.808 982.5 106.308 1086 106.308C1189.5 106.308 1217.5 168.808 1360.5 168.808C1503.5 168.808 1466 106.308 1687 106.308" stroke="#BCBCBC" stroke-width="15"/>
<path opacity="0.2" d="M2 154.308C58 142.308 178.7 216.808 271.5 216.808C387.5 216.808 419.5 154.308 546 154.308C672.5 154.308 688 216.808 802.5 216.808C917 216.808 982.5 154.308 1086 154.308C1189.5 154.308 1217.5 216.808 1360.5 216.808C1503.5 216.808 1466 154.308 1687 154.308" stroke="#BCBCBC" stroke-width="15"/>
<path opacity="0.2" d="M2 202.308C58 190.308 178.7 264.808 271.5 264.808C387.5 264.808 419.5 202.308 546 202.308C672.5 202.308 688 264.808 802.5 264.808C917 264.808 982.5 202.308 1086 202.308C1189.5 202.308 1217.5 264.808 1360.5 264.808C1503.5 264.808 1466 202.308 1687 202.308" stroke="#BCBCBC" stroke-width="15"/>
<path opacity="0.2" d="M2 250.308C58 238.308 178.7 312.808 271.5 312.808C387.5 312.808 419.5 250.308 546 250.308C672.5 250.308 688 312.808 802.5 312.808C917 312.808 982.5 250.308 1086 250.308C1189.5 250.308 1217.5 312.808 1360.5 312.808C1503.5 312.808 1466 250.308 1687 250.308" stroke="#BCBCBC" stroke-width="15"/>
<path opacity="0.2" d="M2 298.308C58 286.308 178.7 360.808 271.5 360.808C387.5 360.808 419.5 298.308 546 298.308C672.5 298.308 688 360.808 802.5 360.808C917 360.808 982.5 298.308 1086 298.308C1189.5 298.308 1217.5 360.808 1360.5 360.808C1503.5 360.808 1466 298.308 1687 298.308" stroke="#BCBCBC" stroke-width="15"/>
</svg>
