<svg width="75" height="75" viewBox="0 0 75 75" fill="none" xmlns="http://www.w3.org/2000/svg">
<path fill-rule="evenodd" clip-rule="evenodd" d="M44.1584 7.69314C44.6426 7.69314 45.0665 7.33007 45.0665 6.84535C45.0665 6.3611 44.6426 5.99756 44.1584 5.99756C43.6741 5.99756 43.3111 6.36063 43.3111 6.84535C43.3111 7.33007 43.6741 7.69314 44.1584 7.69314ZM32.4741 6.17956C32.898 6.17956 33.2007 5.81649 33.2007 5.45342C33.2007 5.02952 32.898 4.7268 32.4741 4.7268C32.0502 4.7268 31.7475 5.02952 31.7475 5.45342C31.7475 5.81649 32.0502 6.17956 32.4741 6.17956ZM23.6958 24.0997L23.3327 23.7366C24.362 22.7677 25.3909 21.3149 25.5729 20.4671C25.6936 19.6193 26.9045 19.8013 26.6626 20.6487C26.3594 21.7992 25.0278 23.1312 23.6958 24.0997ZM16.2495 6.48228C14.4332 7.26972 14.1913 9.1459 15.4621 10.2964C16.9757 11.6285 19.5789 10.4779 19.3366 8.3594C21.3948 8.48058 22.7268 6.30121 22.4241 4.84799C23.3322 4.06055 23.3931 2.3659 22.3029 1.69964C21.0925 0.973029 20.0024 1.21539 19.2762 2.60779C17.3996 2.48708 15.5833 3.93984 16.2495 6.48228L15.4017 6.11921C14.2517 3.63712 16.2495 1.15503 18.7316 1.76047C19.2767 0.550067 21.093 -0.721622 23.1512 0.489244C24.7251 1.45775 25.0882 4.00066 23.3935 5.21153C24.1805 7.51208 22.5457 9.44955 20.124 9.20719C19.8213 12.2344 17.0365 12.5974 15.1598 11.205C14.1305 10.3572 13.7071 9.26755 13.5251 8.42023C13.2827 7.51254 13.2827 6.72511 12.4354 5.81743C11.7696 5.15117 10.5587 5.15117 10.5587 5.15117C10.5587 2.9718 8.5609 0.973964 6.01799 1.94294C5.11031 1.15597 3.9598 1.09514 3.17283 2.06412C2.74894 2.60919 2.44622 4.06195 3.89945 4.72774C3.83909 6.72557 5.3522 7.9968 7.5924 7.81526C7.65276 8.84459 8.80326 9.87345 9.89295 9.99463L9.83259 10.5397C8.74291 10.4185 8.13748 10.7821 7.41086 11.6897C4.8076 11.5686 2.9913 12.7794 3.05212 14.6566C1.23582 14.9588 0.87275 16.8963 1.90208 17.9256C2.93141 18.9549 4.44499 18.531 4.9896 17.3206C6.86625 17.6837 8.50102 16.3521 8.56137 14.8381C10.2565 14.8381 11.0435 14.1115 11.3462 12.5375L11.9516 12.5984C12.1331 14.2935 11.3462 15.9278 9.28798 15.7467C9.22763 17.8049 7.29015 18.8951 5.4135 18.2288C4.5657 19.8636 2.56787 20.469 0.933574 18.8951C-0.701187 17.3815 -0.0957554 14.7782 2.02326 14.1119C2.02326 12.1141 3.53684 10.2375 6.382 10.9636C6.382 10.9636 6.74507 10.0559 7.65322 9.9951C7.04779 9.75321 6.62389 9.45049 6.50318 8.78423C4.32381 9.26849 2.50751 7.27112 2.99176 5.27329C1.05429 4.24396 0.99393 2.30695 1.96244 1.15644C2.99176 -0.0544289 4.68688 -0.296321 6.13964 0.9749C8.74291 -0.417502 11.5885 1.33797 11.4065 4.24396C13.2224 4.12278 14.3125 5.63636 14.0702 7.27112C14.3724 6.54451 14.7359 6.24179 15.4017 6.12061L16.2495 6.48228Z" fill="black"/>
<path fill-rule="evenodd" clip-rule="evenodd" d="M20.6691 2.97168L21.093 3.2744C20.2452 5.09069 18.7924 6.90699 17.5207 7.99668L17.0365 7.57278C17.9446 6.11956 19.8213 3.69782 20.6691 2.97168ZM8.19735 12.6581L8.43971 13.1424C7.41085 14.1717 5.47337 15.6245 4.38369 16.1696L4.02062 15.6853C4.98865 14.5951 6.92613 13.2027 8.19735 12.6581ZM10.6799 7.4516L10.1957 8.05657C8.80326 7.14889 6.07881 4.72715 5.47337 3.81854L5.8968 3.39511C7.22885 4.0609 9.77129 6.36145 10.6799 7.4516ZM8.137 30.5778C8.31853 31.3653 8.137 32.2729 8.86361 33.1207C9.10597 33.4235 10.4979 35.2393 11.5272 36.1479C10.1344 36.693 7.41039 37.843 5.47337 38.0849C5.04948 38.1453 4.62558 38.3872 4.26251 38.6295C4.02015 39.0534 3.77826 39.78 3.65708 40.6278C3.59625 41.2328 3.59625 41.899 3.59625 42.5653C3.59625 43.1703 3.89897 45.1077 4.56523 46.3785C5.23101 47.6507 5.8968 48.2556 6.68424 48.6192C6.86578 48.5579 7.22932 48.4975 7.77393 48.4975C9.22668 48.4372 10.3767 49.2845 10.9223 49.9503C11.1038 50.2525 11.5277 50.3138 12.012 50.3138C13.2224 50.3138 14.5544 49.8899 15.7653 49.4057C16.068 49.2237 16.7941 48.6791 17.5207 48.1344C18.3082 47.5285 22.4246 44.0176 24.2409 43.1698C25.2094 43.654 26.7838 44.3203 28.4181 44.3203C28.4784 44.3203 28.7811 44.3807 29.1447 44.26C29.6289 44.1383 30.2952 43.9568 31.143 43.7757C32.5957 43.4725 34.2909 43.2302 34.8359 43.2302C36.168 43.2914 40.1024 43.3518 41.0723 43.3518C42.0398 43.3518 43.4327 43.2914 43.9773 43.2302C44.8251 42.9279 46.7022 42.4432 48.4577 41.6567C50.2132 40.8702 53.9061 38.2664 54.5116 37.6605C54.8138 37.4182 55.1165 37.1159 55.2985 36.874C55.3589 36.7529 55.4202 36.6925 55.4202 36.6317C55.4202 36.5709 55.3589 34.0284 55.3589 34.0284C55.3589 34.0284 56.267 33.0599 56.631 32.6964V32.5752C56.449 32.0905 56.3279 30.517 56.3887 28.9431L55.5409 28.5192C55.4805 30.4566 54.7539 32.1518 54.0881 33.2414C52.7566 33.423 50.1533 34.21 49.2447 35.2996L49.7893 35.4208C50.6371 34.9366 51.5457 34.6338 52.6349 34.6338C53.5431 34.6338 53.9674 34.8757 53.9674 35.1181C53.9674 35.2996 53.7854 35.7235 53.7251 35.9051C53.6638 36.0263 53.6034 36.2681 53.4219 36.3893C52.1507 37.7817 50.7583 38.9322 49.0028 39.9007C47.8523 40.5661 46.7027 40.99 45.0076 41.5346C44.462 41.6562 43.7354 41.8378 43.3125 42.0198C42.6462 42.0198 39.256 41.8981 37.2581 41.8981C35.2603 41.8981 31.1439 42.2004 29.8722 42.5031C29.2668 42.6851 29.0853 42.927 28.4195 42.927C27.1482 42.927 25.4531 42.2607 24.4238 41.7765C24.2423 41.7765 23.8792 41.9585 23.5161 42.14C22.7895 42.5026 21.1547 44.8036 20.1862 44.0775C19.702 45.1063 17.5834 46.015 16.9172 47.0438C16.9775 46.5596 17.8249 43.0486 17.8857 42.322C17.8857 42.2004 17.9465 42.0796 17.8253 41.9585C17.0992 40.6872 14.9193 39.9007 13.7089 39.6584C13.4062 39.598 13.2242 39.5367 12.9823 39.4764L11.0449 38.9318L9.28938 39.4764L11.3476 39.839L8.7443 41.5954C9.22855 41.4134 12.0134 40.6269 12.1949 40.5656C12.4373 40.5052 12.74 40.4449 13.0427 40.5656C13.4666 40.6872 14.4959 40.9291 15.1617 41.1715C15.5248 41.2931 16.1302 41.9585 16.3117 42.322C16.3726 42.5031 16.3726 42.8063 16.4329 43.5329C16.4329 43.9558 16.3726 44.6221 16.2514 45.1063C15.9487 46.3776 15.3432 47.3461 15.1617 47.7096C14.9193 48.1939 14.6166 48.3759 14.2536 48.4966C13.7089 48.7988 12.9823 48.9205 12.2557 48.9808C11.7106 48.9808 11.3476 48.9205 11.1052 48.6182C10.4394 47.6497 8.68395 46.7411 6.928 47.1042C5.83832 46.4389 4.74863 44.3198 4.74863 42.6247C4.74863 41.5959 5.23289 39.9611 5.5356 39.1741C7.29154 38.9318 10.8633 37.5997 12.5584 36.8128C12.9215 36.8128 13.9513 36.4497 14.9193 36.4497C17.2199 36.4497 19.5204 38.448 20.9128 39.8394C21.1552 39.4768 21.5786 38.8709 22.7895 38.8709C24.4243 38.8709 25.3928 40.385 25.8167 41.8986L26.664 41.2936C26.5428 40.4458 26.0586 39.4768 25.3928 38.7502C24.8477 38.2056 23.7585 37.7214 22.9107 37.7214C22.3656 37.7214 21.8814 37.8421 21.5183 37.8421C20.3682 37.8421 19.8835 37.2975 18.9758 36.692C18.0677 36.0866 16.3117 35.1181 15.0405 35.1181C14.2531 35.1181 13.89 35.4208 13.2242 35.4208C12.2557 35.4208 11.8926 35.0577 11.4688 34.4523C11.2269 34.21 10.2579 33.3626 10.016 32.9996C9.83446 32.7572 9.5921 31.9702 9.47092 31.5468L8.137 30.5778Z" fill="black"/>
<path fill-rule="evenodd" clip-rule="evenodd" d="M9.46907 31.5461C9.77131 31.8488 10.0141 32.1515 10.3767 32.4538C10.7398 32.6961 11.1642 32.938 11.5273 33.1804C12.1322 33.4831 12.7985 33.8466 13.4039 34.0885C14.0093 34.2097 14.7355 34.2701 15.4017 34.2701C16.3707 34.2701 17.5208 34.0885 18.4893 34.5728C19.1555 34.8151 19.1555 35.5413 19.7001 35.7228C20.4871 36.0255 22.6665 36.0859 23.8778 36.0859C26.2995 36.0859 28.9023 35.7832 30.4767 35.4201L29.7501 34.5723C28.6604 34.7538 25.5121 35.1174 24.0593 35.1174C22.0615 35.1174 20.124 34.7543 20.124 33.9673C20.124 33.3619 20.7295 32.5146 21.9403 32.5146C23.2115 32.5146 25.149 33.3016 25.5121 33.4227C25.8752 33.4831 25.9964 33.4831 26.2387 33.3624L26.9653 32.9993C25.9968 32.5151 22.5458 31.365 21.3354 31.365C20.7903 31.365 20.4272 31.4254 20.0637 31.9096C19.6402 32.5151 18.3686 33.0597 16.4311 33.0597C15.3414 33.0597 13.7675 32.8173 13.4647 32.6966C12.8593 32.4542 11.7093 31.7884 10.9826 31.2438C10.0141 30.578 9.16635 29.7911 8.62174 28.8829C8.43974 28.6406 8.31902 28.3378 8.31902 28.0351C8.31902 27.7928 8.44021 27.6112 8.44021 27.4297C8.62221 27.6721 8.80375 27.8536 9.04564 28.0351C10.075 29.0645 11.5885 29.7906 13.1625 30.0933C13.6472 30.2145 14.0103 30.2749 14.4945 30.2749C15.1603 30.2749 15.7658 29.9118 16.1897 29.5482L15.5239 28.8216C15.3419 28.882 14.9184 28.882 14.6761 28.882C12.3755 28.882 9.46953 27.4292 8.80375 25.6733C8.74339 25.4918 8.62221 25.4309 8.74339 25.2494C8.80375 25.0679 8.86457 24.7651 8.92493 24.4624C9.04564 24.5836 9.34882 24.8255 9.65154 25.0679C10.4989 25.6129 12.1336 26.3391 12.4967 26.5814C13.2837 26.3391 13.8891 26.0364 14.3734 25.7945C14.8581 25.5521 15.5239 25.3102 16.2505 25.3102C17.9456 25.3102 19.8826 26.2787 21.6994 27.1869L22.9098 26.7026C21.275 25.5526 17.8244 23.9786 15.8874 23.9786C14.7369 23.9786 13.6472 24.826 12.8602 24.826C11.9526 24.826 9.28847 23.4939 9.28847 22.4042C9.28847 21.5569 10.9836 21.0722 13.8292 20.7695C13.3445 21.4357 12.8602 22.2222 12.4368 22.9488L13.163 23.3727C17.5217 17.0162 22.1228 12.8993 25.9374 10.3564C27.3298 9.44872 27.6325 8.90364 28.1168 7.93467C29.3276 5.45258 30.4777 3.63628 32.4152 3.63628C33.3233 3.63628 34.0499 4.12054 34.5945 4.72597L35.9869 5.1494L34.5342 6.1179L35.9869 6.72334C34.1103 7.26841 31.507 9.14507 30.4173 11.8695C28.419 11.9299 27.4505 13.625 26.7847 14.957C26.3005 15.9255 25.6347 16.2891 24.5445 16.9553L16.2495 22.7678L17.3996 22.9493L25.0882 17.8036C26.6018 16.7743 27.3284 15.9873 27.6915 15.321C28.3577 13.8683 29.1442 12.7781 30.6578 12.7781C31.3844 12.7781 32.1714 13.1412 32.8377 13.7466L34.1692 14.1705L32.7165 15.0787L33.9273 15.8048C30.4164 16.8945 28.2365 19.4374 26.9653 24.2804L27.8735 24.462C28.3577 22.888 28.842 21.4353 29.629 20.1032C31.6871 20.1032 33.7458 20.0429 35.804 20.0429C41.1921 20.0429 45.6725 20.2852 48.0942 20.951L47.2464 19.4982C44.6431 19.014 40.8898 18.832 35.804 18.832C34.0485 18.832 32.3534 18.8928 30.5975 18.8928C31.7475 17.7423 33.3219 16.7134 35.804 15.9868L34.0485 15.0183L35.986 13.9286L33.3224 12.9601C32.8985 12.5362 32.293 12.1123 31.5669 11.9308C32.4147 9.32754 35.3202 7.81396 38.105 6.78463L36.168 5.99766L38.105 4.90797L35.0783 3.939C34.2909 3.03132 33.5647 2.60742 32.3539 2.60742C29.5691 2.60742 28.4186 5.02915 27.2685 7.14817C26.7234 8.29821 26.3604 8.78246 25.331 9.44872C23.212 10.8411 20.4272 13.0205 17.8239 15.7449C16.4924 14.776 13.6467 11.8704 12.9201 10.296C12.6179 10.6591 12.3147 11.5069 12.3147 11.5069C12.6174 11.8096 15.8869 15.0791 17.0978 16.5319C17.037 16.5923 16.9163 16.7139 16.8554 16.8346C15.5234 17.077 12.1332 17.4401 10.9831 17.2581L10.3777 18.4081C11.2255 18.3477 14.5549 17.9238 16.0081 17.863C15.5842 18.3473 15.1603 18.8923 14.7364 19.437C10.3777 19.9212 7.53252 20.8294 7.53252 22.4033C7.53252 22.6457 7.59288 22.9484 7.59288 23.2511C7.59288 23.9169 7.35052 24.1592 6.86627 24.462C6.56355 24.6435 6.56355 24.825 6.68473 25.007C6.80591 25.189 7.4717 26.1571 7.4717 26.3391C7.4717 26.7022 7.16898 27.0049 6.92662 27.3076C6.68426 27.5499 6.68426 27.6103 6.86627 27.913L8.13749 30.5766L9.46907 31.5461ZM63.0471 16.7139C62.8047 16.9563 62.5628 17.3193 62.3205 17.6216L61.6542 16.6531C63.9552 13.5656 70.1298 12.1128 73.7624 11.8101V10.1753C73.2781 10.296 72.7939 10.4776 72.3096 10.5988C71.7047 10.7199 71.0988 10.9015 70.6145 10.8411C70.0699 10.8411 69.646 10.6596 69.4649 10.3569C68.9798 9.69108 69.4649 8.66175 71.0384 7.69324L69.7672 6.60309C68.7987 7.87478 67.8901 9.26672 66.9216 10.0542C66.0134 10.8411 65.1057 11.2042 64.3791 10.6591C63.9552 10.3564 63.8336 10.2357 63.7732 9.44872C63.8336 8.29821 64.4998 6.54273 65.1057 5.39269L63.653 5.21116C63.4097 6.96663 62.6845 8.41939 61.8966 9.63025C60.9893 11.1438 59.7785 12.2335 58.5063 13.0808L57.659 12.2939C58.6879 11.6884 59.9591 10.7195 60.8073 9.3879C61.8362 7.81396 62.6845 5.87648 62.6845 4.18136L66.922 4.5449C66.3161 5.33187 65.3486 7.08781 64.9845 8.29821C64.8025 8.964 64.8025 9.50907 65.0449 9.69108C65.4688 9.99333 66.2558 9.44872 67.0432 8.66175C68.1324 7.45135 69.2226 5.69541 69.6455 5.08998L72.7939 7.63289C71.401 8.3595 70.0699 9.20683 70.3118 9.69108C70.5542 10.1145 71.4623 9.99333 72.4308 9.69108C73.2178 9.44872 74.0646 9.08565 74.7309 8.66175V12.8394C73.2178 12.8394 70.6744 13.1417 68.2527 13.8683C68.8586 14.6557 70.4933 14.958 71.5222 15.1395L71.0379 18.5297C68.3748 17.3797 66.3157 16.7747 63.0471 16.7139L64.1363 15.7454C66.4977 15.8058 68.9194 16.5324 70.2514 17.1982L70.4325 15.9269C69.2226 15.7454 67.7085 15.0796 67.0432 14.2926C66.0134 14.6557 64.9845 15.14 64.1363 15.7454L63.0471 16.7139Z" fill="black"/>
<path fill-rule="evenodd" clip-rule="evenodd" d="M50.3339 27.4898L51.3024 25.3104C50.1326 23.9342 49.0606 22.4777 48.0942 20.9517L47.2464 19.4989C45.2486 15.7456 45.9752 13.9293 44.9454 12.2342C44.0382 10.9022 39.7997 11.75 39.1334 11.8711L40.3443 9.87331L37.9225 10.0549L39.9812 7.63312C40.2236 7.27005 40.2834 7.02769 40.5258 6.17989C40.8893 4.84832 41.9786 2.66895 45.2486 2.66895C48.8199 2.66895 49.9704 5.57493 51.4835 6.84615C53.6235 8.56791 55.6841 10.3861 57.659 12.295L58.5063 13.082C59.6317 14.2035 60.6833 15.3965 61.6547 16.6538L62.3209 17.6223C66.6797 23.9185 72.0074 35.9663 74.4291 41.4751C74.6111 42.0207 74.7926 42.5653 74.9737 42.9882C73.3399 42.081 71.5835 40.9904 69.7073 39.7197L68.6775 38.993L66.6797 37.5403L65.5904 36.6321C64.9181 36.141 64.2714 35.6157 63.653 35.0582L65.8314 47.5898C65.953 48.3777 66.6193 48.2561 67.1035 47.5898C67.5878 46.9245 67.8302 46.7425 67.5878 45.8947L65.59 36.6326L66.6792 37.5407L68.6167 45.3501C68.7987 46.0767 69.1009 46.3186 69.9492 46.3186C70.7965 46.3789 70.9177 46.0762 70.7965 45.5316L68.6775 38.993L69.7073 39.7197L71.7051 45.592C72.2497 47.1051 71.7051 47.2871 70.797 47.2871C69.9497 47.2871 69.1019 47.0447 68.6176 47.3475C68.1334 47.711 67.5284 48.5583 66.7405 49.2849C66.1355 49.9512 65.167 49.8305 64.985 48.5583L62.5633 34.0897C61.0502 32.6973 59.5366 31.2441 58.2045 29.7309C57.6599 29.4886 56.9937 29.1859 56.3887 28.944L55.5409 28.5201C55.1783 28.3381 54.9359 28.2777 54.8747 28.2174C54.2093 29.0043 53.5431 29.9125 52.8169 30.5179C52.4534 30.881 52.1507 31.063 51.6061 31.063C51.4241 31.063 51.1822 31.063 51.0002 30.9418C50.7578 30.8206 50.5772 30.5787 50.3348 30.2152C50.1528 29.9728 49.9109 29.6098 49.6686 29.2467C49.1843 28.4597 48.7001 27.4304 48.2158 26.6434C47.7316 25.7353 47.2473 25.0695 47.187 24.9483C47.1257 24.7668 46.8838 24.5852 46.8838 24.5852C46.5815 24.9483 46.3995 25.7353 46.3995 26.22L45.5522 25.9173C45.6126 25.3118 45.8545 24.5249 46.0365 24.1618C46.0365 23.8591 45.6739 23.4352 45.3702 23.4352C44.9463 23.4352 44.5229 23.8591 44.3413 24.7064L43.4332 25.1303C43.4945 23.7379 43.9778 22.2243 45.3707 22.2243C46.4608 22.2243 47.1874 23.0721 47.6717 23.8591C48.2149 24.6442 49.9704 27.0056 50.3339 27.4898L50.9992 28.3371C51.1209 28.8822 51.3628 29.1849 51.4835 29.3665C51.7258 29.7295 51.9677 29.7295 52.3313 29.3665C52.5133 29.2453 52.9975 28.8214 53.5421 28.2768C53.966 27.8529 54.3895 27.2475 54.571 27.0056C55.0553 27.1871 56.0238 27.6714 56.7504 27.9741C53.5421 23.9789 50.3938 19.1354 49.0613 15.8664C48.5167 14.4739 49.6068 14.0501 50.0911 15.3821C51.5438 19.0147 55.721 25.492 58.809 28.8822C62.32 32.7567 68.7982 38.448 73.0353 40.6877C72.4303 39.4768 71.6434 37.7817 70.6739 35.7839C65.5282 32.8779 60.3825 27.5502 57.9608 22.9491L58.9896 23.0703C61.2303 27.0659 66.6184 32.3936 69.8266 33.9072C66.9206 27.7322 63.1065 19.9224 60.2005 16.5925C56.5075 12.4153 52.5123 9.14577 50.5753 7.51147C48.6982 5.81635 47.9117 3.75816 45.2476 3.75816C43.007 3.75816 41.7961 5.39292 41.3731 6.96686C41.2515 7.32994 41.1911 7.51194 41.0096 7.81466L39.9204 9.08588L42.2205 8.84352L40.8889 10.6593C40.8889 10.6593 44.4602 9.87238 45.7323 11.5675C47.0639 13.3838 46.2166 15.442 48.4563 19.4985C49.4248 21.254 51.7862 24.4018 52.5732 25.1284L50.9988 28.3367L50.3339 27.4898ZM15.099 28.0349L14.554 27.6718C14.8567 27.4295 15.4621 27.006 16.0675 26.7637C16.3573 26.651 16.6644 26.5895 16.9752 26.5821C17.5807 26.5821 18.1253 26.8245 18.61 27.1272C19.397 27.5511 20.3051 28.0354 21.0317 28.0354C21.2736 28.0354 21.516 27.9745 21.8187 27.9745C22.5453 27.9745 23.2111 28.2773 23.5742 28.2773C23.8165 28.2773 23.9372 28.0957 24.1192 27.8534C24.4823 27.3083 25.0269 26.8849 25.6932 26.6425C26.359 26.3398 27.2671 26.2186 28.1753 26.2186C28.9622 26.2186 29.628 26.3398 29.9916 26.4001C29.9916 26.4001 29.4465 27.0659 29.3258 27.2479C28.5388 27.2479 27.1464 27.1876 26.2382 27.5506C25.6328 27.793 25.4513 28.1561 25.4513 28.58C25.4513 29.2458 26.2382 29.5485 27.0252 29.7908C27.5703 29.912 28.1149 29.9724 28.5388 29.9724C29.1442 29.9724 30.2339 29.73 31.3236 29.4881C32.6556 29.2458 33.8665 28.8827 34.2296 28.7615L34.7138 29.6093C33.2611 30.0936 31.7475 30.5778 30.3551 30.8202C29.5681 31.0022 28.8415 31.1229 28.1757 31.1229C27.0257 31.1229 25.8148 30.6386 24.8458 30.1544C23.9981 29.7913 23.2719 29.3674 22.5453 29.3674C21.8187 29.3674 21.0925 29.6098 20.4263 30.0332C20.0632 30.2152 19.0339 30.9413 18.1257 31.3049C17.3991 31.5472 16.8545 31.7288 16.1279 31.7288C15.5225 31.7288 15.0986 31.6076 14.7958 31.3657L15.8855 30.6995C16.0671 30.8206 16.309 30.881 16.4301 30.881C16.6121 30.881 16.7932 30.8206 17.2176 30.6386C17.4595 30.5783 17.8225 30.3359 18.0649 30.2147C18.4888 29.912 18.61 29.7305 18.7915 29.6093C19.1546 29.3669 19.2758 29.0039 18.8519 28.6408C18.61 28.4593 18.4284 28.2777 18.1861 28.0957C17.7622 27.8534 17.5203 27.6718 16.7937 27.6718C16.0072 27.6714 15.4017 27.8529 15.099 28.0349Z" fill="black"/>
<path fill-rule="evenodd" clip-rule="evenodd" d="M30.4762 28.4587C30.4762 28.4587 29.81 28.2772 29.6284 28.2772C30.0523 27.6717 30.6578 27.1875 31.0812 26.8848C31.9893 26.2793 32.8975 25.9163 34.3503 25.8554C34.7133 25.7951 35.5003 25.7343 35.9242 25.7343C36.3481 25.7946 37.0139 25.7946 37.6193 25.9158C38.0432 25.9761 38.4671 26.0973 38.8297 26.1582C39.0117 26.2185 39.7379 26.2185 39.9802 26.1582C41.0091 25.9766 42.2199 25.6131 42.8258 25.25L43.0682 26.2185C41.7357 26.9451 40.2226 27.6109 38.7694 27.6109C38.1031 27.6109 37.3166 27.5506 36.59 27.4897C35.3791 27.3685 34.2894 27.187 33.9264 27.187C32.898 27.1875 31.4447 27.6717 30.4762 28.4587ZM29.5077 33.8468L28.2365 33.2413C29.992 32.3935 32.6556 31.4859 33.8061 31.3039C34.8958 31.1223 36.167 31.0016 36.8936 30.7588C37.2567 31.6066 37.9225 32.4539 38.8306 32.4539C39.1942 32.4539 39.7388 32.212 40.3438 31.9696C41.01 31.6669 41.6159 31.3647 41.9785 31.243C42.3421 31.0615 43.4926 30.5773 44.5219 30.093C44.8845 29.9115 45.9138 29.4272 45.9747 29.4272L46.64 29.7903C46.4589 30.6381 46.0954 31.7278 45.7328 32.5147C45.6111 32.817 45.4296 33.0598 45.3089 33.2413C45.0066 33.5441 44.5219 34.0283 43.916 34.4522C43.2507 34.9365 42.4029 35.4207 41.5546 35.905C40.8893 36.268 40.2231 36.6919 39.4969 36.9946L39.1947 36.3289C40.26 35.6989 41.2905 35.0118 42.2817 34.2707C42.6898 33.9782 43.0745 33.6544 43.4322 33.3022C43.6746 33.1206 43.7958 32.9386 43.9165 32.7571C44.2187 32.394 44.7034 31.5462 44.8246 31.1831C44.4007 31.3652 42.9475 32.0908 42.2812 32.394C41.4943 32.8174 40.2834 33.4233 39.5573 33.7869C39.073 34.0288 38.5888 34.15 38.2257 34.15C37.4382 34.15 37.0752 33.6049 36.8936 33.2418C36.4094 32.394 35.9251 32.3337 34.5327 32.3337C32.9583 32.2728 30.7794 32.9386 29.5077 33.8468ZM36.954 29.8511C36.954 29.8511 36.7725 29.1245 36.6513 28.8218C36.6513 28.8218 36.8936 28.7614 37.1964 28.7614C37.6203 28.7614 38.8306 28.8826 39.3149 28.8826C41.1317 28.8826 41.797 28.3375 42.3425 27.8533C42.8268 27.4294 43.311 27.0663 44.5219 27.0663C45.6111 27.0663 46.8823 27.4902 47.2459 27.6717L47.1855 28.7011C46.64 28.3983 45.9134 28.2168 45.248 28.2168C44.8242 28.2168 44.4003 28.2168 44.0975 28.3983C43.7948 28.5799 43.5529 28.8222 43.2502 29.0641C42.947 29.3065 42.5227 29.5484 41.9177 29.7907C41.3731 30.0326 40.6465 30.1538 39.5563 30.1538C38.1653 30.1538 37.3779 29.9119 36.954 29.8511Z" fill="black"/>
<path fill-rule="evenodd" clip-rule="evenodd" d="M25.3306 37.4185L26.1784 37.0554C26.9045 37.3581 28.055 37.7217 28.842 37.7217C29.3263 37.7217 29.6898 37.5397 29.992 37.4185C30.2344 37.2978 33.0796 35.9054 34.472 35.4211C34.8959 35.2391 35.3801 35.1788 35.5617 35.1788C35.9247 35.1788 35.9247 35.2999 36.0459 35.4815C36.2883 35.9054 38.4073 38.8712 38.5883 39.0533C40.3438 38.5086 42.1606 37.7217 43.1895 36.7527C44.2796 35.7234 45.1873 34.5125 46.0954 33.544C46.3977 33.1805 46.822 32.8782 47.0036 32.757C47.9117 32.2728 50.7564 32.212 51.9069 32.2728L51.2407 33.2413C49.1226 33.2413 47.9721 33.4836 47.4275 33.8467C47.2455 34.0283 46.8819 34.3918 46.5797 34.8152C45.8531 35.7234 45.0666 36.9946 44.7639 37.237C45.3688 37.6599 46.0351 38.0239 47.1243 38.0239C48.8807 38.0239 50.1519 36.9338 50.8182 36.3288L51.4231 36.6315C50.9931 37.2429 50.4608 37.7755 49.8497 38.2059C49.1231 38.6902 48.2149 39.0533 47.7307 39.1744C46.7018 38.9924 44.4611 38.5082 43.9165 38.4478C41.9791 39.2348 38.7708 40.5055 37.7415 40.8083C37.5077 40.8887 37.2621 40.9298 37.0149 40.9299C36.1671 40.9903 35.017 40.9903 33.9274 40.9299C33.2012 40.9299 32.4746 40.9299 32.1111 40.8696L31.1426 39.901C31.9899 40.0821 32.2926 40.0821 33.0796 40.0821C34.8959 40.0821 36.1067 39.7799 36.4698 39.7195C36.8329 39.5988 36.8937 39.4173 36.7725 39.1136C36.591 38.6907 36.3486 38.2064 35.9247 37.7217C35.6824 37.4793 35.1981 37.0554 35.0166 36.9342C34.7742 36.7527 34.5323 36.6923 33.8057 36.9342C33.2007 37.1162 31.2024 38.2059 30.3551 38.6902C29.9312 38.8713 29.5681 38.9924 28.8415 38.8109C27.9942 38.6294 26.0567 37.9037 25.3306 37.4185ZM30.8394 15.3824C31.2024 15.3824 31.566 15.0194 31.566 14.6558C31.566 14.2319 31.2029 13.9292 30.8394 13.9292C30.4159 13.9292 30.1128 14.2314 30.1128 14.6558C30.1132 15.0189 30.4159 15.3824 30.8394 15.3824ZM58.264 57.2153C58.264 56.6707 57.7797 56.1864 57.1748 56.1864H55.6616C55.0557 56.1864 54.5715 56.6707 54.5715 57.2153L54.6319 73.4403C54.6319 73.9849 55.0557 74.4692 55.6616 74.4692H57.1748C57.7797 74.4692 58.264 73.9849 58.264 73.4403V57.2153ZM60.2015 57.6996V58.4262C60.2015 58.7897 60.4438 59.0321 60.8074 59.0321H71.4623C71.9466 59.0321 72.3705 58.6082 72.3705 58.1239V56.8527C72.3705 56.3684 71.9466 55.8842 71.4623 55.9445C71.4623 55.9445 61.17 56.9734 60.8074 57.0338C60.4433 57.0338 60.2015 57.3369 60.2015 57.6996ZM51.5448 74.4692C48.8812 74.4692 47.2459 72.4714 47.2459 70.2316V63.7534H46.459C46.0954 63.7534 45.7324 63.3908 45.7324 63.0268V61.9366C45.7324 61.5137 46.095 61.211 46.459 61.211H47.2459V57.2148C47.2459 56.6702 47.6698 56.186 48.2748 56.186H49.7879C50.3335 56.186 50.7564 56.6702 50.7564 57.2148V61.211H53.1178C53.5417 61.211 53.8444 61.5132 53.8444 61.9366V63.0268C53.8444 63.3903 53.5422 63.7534 53.1178 63.7534H50.7564V69.7474C50.7564 70.897 51.483 71.7452 52.7547 71.7452H52.9971C53.42 71.7452 53.7841 72.0475 53.7841 72.5322V73.6827C53.7841 74.1066 53.4205 74.4697 52.9971 74.4697H51.5448V74.4692ZM33.3823 67.6284C33.3823 64.1778 31.3241 60.7272 26.6622 60.7272C22.3638 60.7272 20.0029 64.1174 20.0029 67.6284C20.0029 71.3812 22.5453 74.7116 26.7225 74.7116C29.5681 74.7116 32.353 73.2588 32.8976 70.7767C32.9579 70.4745 32.716 69.9897 32.2921 69.9897H30.2339C29.8709 69.9897 29.5681 70.1717 29.3861 70.474C28.7807 71.3213 27.9334 71.7452 26.7225 71.7452C24.9062 71.7452 23.6954 70.3523 23.5742 68.7789H32.2313C33.0192 68.7789 33.3823 68.355 33.3823 67.6284ZM23.635 66.1756C23.7562 64.6625 25.0878 63.512 26.6622 63.512C28.2969 63.512 29.6285 64.6625 29.81 66.1756H23.635ZM72.7335 67.6284C72.7335 64.1778 70.6749 60.7272 66.0134 60.7272C61.7146 60.7272 59.3546 64.1174 59.3546 67.6284C59.3546 71.3812 61.897 74.7116 66.0747 74.7116C68.9194 74.7116 71.7047 73.2588 72.2493 70.7767C72.3096 70.4745 72.0673 69.9897 71.6443 69.9897H69.5857C69.4141 69.9881 69.2452 70.0321 69.0963 70.1172C68.9473 70.2023 68.8236 70.3254 68.7379 70.474C68.1329 71.3213 67.2856 71.7452 66.0139 71.7452C64.2584 71.7452 63.0476 70.3523 62.9268 68.7789H71.5835C72.3709 68.7789 72.7335 68.355 72.7335 67.6284ZM62.9867 66.1756C63.1074 64.6625 64.4395 63.512 66.0134 63.512C67.6482 63.512 68.9798 64.6625 69.1014 66.1756H62.9867Z" fill="black"/>
<path fill-rule="evenodd" clip-rule="evenodd" d="M44.3399 56.3686H16.3702C15.7045 56.3686 15.2197 56.9132 15.2197 57.5182L15.2801 68.5372C15.2801 68.5372 9.28659 57.6398 8.98387 57.0952C8.68115 56.5497 8.0149 56.0654 7.16757 56.0654H4.86702C4.20123 56.0654 3.71698 56.611 3.71698 57.2159V73.3193C3.71698 73.9856 4.20123 74.4698 4.86702 74.4698H6.31978C6.98557 74.4698 7.46982 73.9856 7.46982 73.3193L7.40946 62.0594C7.40946 62.0594 13.4633 73.0171 13.766 73.441C14.0688 74.0459 14.6742 74.4698 15.5215 74.4698H17.6401C18.3063 74.4698 18.7906 73.9856 18.7906 73.3193V59.0931H44.3385C44.7624 59.0931 45.1255 58.7295 45.1255 58.3061V57.1556C45.1269 56.7312 44.7643 56.3686 44.3399 56.3686Z" fill="black"/>
<path fill-rule="evenodd" clip-rule="evenodd" d="M39.7992 63.3907C41.01 63.3907 41.9182 63.8136 42.2813 64.6015C42.4029 64.9641 42.7052 65.0245 43.1291 65.0245H44.8242C45.0665 65.0245 45.4291 64.7821 45.4291 64.4195C45.4291 62.482 43.0687 60.7266 39.7992 60.7266C36.4089 60.7266 34.1692 62.3604 34.1692 64.9038C34.1692 66.9016 35.7432 68.0521 37.6198 68.5967C38.528 68.7787 40.0411 69.1413 40.7677 69.3837C41.4943 69.5657 42.2204 69.8076 42.2204 70.4738C42.2204 71.5631 41.1312 71.8667 39.8591 71.8667C38.7095 71.8667 37.559 71.3815 37.2563 70.5342C37.0743 70.0499 36.7112 69.9896 36.2269 69.9896H34.5318C34.2291 69.9896 33.866 70.2918 33.866 70.6558V70.8973C33.866 72.7744 36.4089 74.7114 39.9204 74.7114C42.3421 74.7114 45.7927 73.6825 45.7927 70.4135C45.7927 68.4751 44.5215 67.144 42.4024 66.5994C41.6155 66.4174 39.6785 65.8727 39.2541 65.8124C38.4671 65.57 37.7405 65.3281 37.7405 64.7222C37.741 63.6934 38.6496 63.3907 39.7992 63.3907Z" fill="black"/>
</svg>
