<svg width="125" height="69" viewBox="0 0 125 69" fill="none" xmlns="http://www.w3.org/2000/svg">
<path d="M0 68.6216H2.78876V63.0846C2.78876 62.0972 2.78876 60.8819 3.29385 60.1692C3.79641 59.3945 4.69899 59.1426 5.20281 59.1426C7.5523 59.1426 7.5523 61.9124 7.5523 62.8745V68.6216H10.3398V62.3301C10.3398 61.4263 10.3398 59.4781 9.27138 58.1995C8.30804 57.0223 6.77505 56.5792 5.76993 56.5792C4.00654 56.5792 3.04193 57.5489 2.58115 57.9894V56.9792H0V68.6216Z" fill="black"/>
<path fill-rule="evenodd" clip-rule="evenodd" d="M23.0227 64.0491C23.1278 63.5879 23.1838 63.1169 23.1898 62.644C23.1898 59.7109 20.8606 56.5171 17.1693 56.5171C13.5817 56.5171 11.0449 59.5413 11.0449 62.8326C11.0449 66.229 13.7299 69 17.1908 69C19.9175 69 22.1404 67.0506 22.8113 64.953H19.8745C19.3504 65.9176 18.4288 66.4404 17.1908 66.4404C15.1983 66.4404 14.1071 64.8049 13.9805 64.0479L23.0227 64.0491ZM13.8969 61.8047C14.421 59.6439 16.1629 59.0779 17.1908 59.0779C18.5757 59.0779 20.0213 59.9375 20.3365 61.8047H13.8969Z" fill="black"/>
<path d="M26.7698 68.6216H28.4863L30.689 61.0718H30.7308L32.9144 68.6216H34.6335L38.8907 56.9792H35.9133L33.7714 64.091H33.7309L31.8409 56.9792H29.6206L27.7116 64.091H27.6698L25.552 56.9792H22.5734L26.7698 68.6216Z" fill="black"/>
<path fill-rule="evenodd" clip-rule="evenodd" d="M44.2897 68.6215H46.8468V67.2164C47.5367 67.9936 48.5267 69 50.7711 69C55.027 69 56.5587 65.0783 56.5587 62.7465C56.5587 59.6678 54.2523 56.5804 50.7078 56.5804C49.4065 56.5804 48.0418 57.0652 47.0772 58.0311V53.1004H44.2897V68.6215ZM46.9089 62.6453C46.9089 60.9465 48.2305 59.1425 50.3698 59.1425C52.1332 59.1425 53.77 60.5034 53.77 62.7718C53.77 65.034 52.2383 66.4416 50.4128 66.4416C48.7773 66.4416 46.9089 65.2251 46.9089 62.644V62.6453ZM69.581 56.9791H67.0201V58.4513H66.9783C66.8935 58.2817 65.4871 56.5791 63.1199 56.5791C59.8906 56.5791 57.2879 59.1603 57.2879 62.7288C57.2879 66.6075 59.9526 69 62.9528 69C64.4187 69 66.1403 68.2215 67.0201 67.1784V68.6215H69.581V56.9791ZM66.939 62.7718C66.939 64.9314 65.4681 66.4404 63.5376 66.4404C61.5464 66.4404 60.0767 64.8251 60.0767 62.8541C60.0767 61.1135 61.2514 59.1425 63.5376 59.1425C65.1959 59.1425 66.939 60.3578 66.939 62.7718Z" fill="black"/>
<path d="M73.852 53.1005H71.0633V68.6216H73.852V53.1005Z" fill="black"/>
<path fill-rule="evenodd" clip-rule="evenodd" d="M86.9806 56.9791H84.4235V58.4513H84.3792C84.2944 58.2817 82.888 56.5791 80.5208 56.5791C77.2877 56.5791 74.6888 59.1603 74.6888 62.7288C74.6888 66.6075 77.3535 69 80.3524 69C81.8209 69 83.5387 68.2215 84.4223 67.1784V68.6215H86.9806V56.9791ZM84.3375 62.7718C84.3375 64.9314 82.8703 66.4404 80.9398 66.4404C78.946 66.4404 77.4789 64.8251 77.4789 62.8541C77.4789 61.1135 78.6536 59.1425 80.9398 59.1425C82.5981 59.1425 84.3375 60.3578 84.3375 62.7718Z" fill="black"/>
<path d="M88.4655 68.6215H91.253V63.0845C91.253 62.0971 91.253 60.8818 91.7594 60.1691C92.2607 59.3944 93.1658 59.1425 93.6671 59.1425C96.0153 59.1425 96.0153 61.9123 96.0153 62.8744V68.6215H98.8066V62.33C98.8066 61.4262 98.8066 59.478 97.7344 58.1994C96.7697 57.0222 95.2406 56.5791 94.2329 56.5791C92.4695 56.5791 91.5074 57.5488 91.0441 57.9893V56.9791H88.4655V68.6215ZM108.717 64.8251C107.983 65.9999 107.061 66.4404 106.139 66.4404C104.039 66.4404 102.635 64.7834 102.635 62.7908C102.635 60.3996 104.313 59.1413 106.011 59.1413C107.732 59.1413 108.383 60.2527 108.717 60.8389H111.866C110.669 57.2513 107.478 56.5791 106.011 56.5791C102.802 56.5791 99.8459 59.1843 99.8459 62.7465C99.8459 66.6075 103.051 69 106.034 69C108.76 69 110.92 67.4253 111.866 64.8251H108.717Z" fill="black"/>
<path fill-rule="evenodd" clip-rule="evenodd" d="M124.272 64.0491C124.355 63.6731 124.438 63.1883 124.438 62.644C124.438 59.7109 122.112 56.5171 118.42 56.5171C114.833 56.5171 112.295 59.5413 112.295 62.8326C112.295 66.229 114.98 69 118.441 69C121.166 69 123.391 67.0506 124.061 64.953H121.125C120.6 65.9176 119.68 66.4404 118.442 66.4404C116.447 66.4404 115.357 64.8049 115.234 64.0479L124.272 64.0491ZM115.148 61.8047C115.673 59.6439 117.414 59.0779 118.441 59.0779C119.827 59.0779 121.272 59.9375 121.586 61.8047H115.148ZM47.4747 30.0321L43.7466 36.4705L23.1126 35.3096L25.1773 31.7234L47.4747 30.0321ZM62.3919 9.51704L64.2617 16.6225L34.9816 14.6984L37.0463 11.1134L62.3919 9.51704ZM42.9808 0.807709L60.1209 0.820381L61.4134 5.67889L40.9186 4.39275L42.9808 0.807709ZM41.4744 40.4744L38.4995 45.5911L17.1768 45.6139L19.2415 42.0314L41.4744 40.4744ZM78.908 26.6699L73.747 35.6159H78.6624C80.941 35.6159 85.021 34.4792 86.2768 31.236C87.4414 28.2232 85.302 26.6661 83.8095 26.6661L78.908 26.6699ZM83.8298 18.1125L88.1174 18.0871C90.9707 18.0707 93.9468 16.7656 95.0355 14.1173C96.0393 11.6615 94.6899 9.56771 92.9012 9.5753L88.7541 9.57028L83.8298 18.1125ZM64.4237 16.6225L68.753 9.11203L83.4045 8.17142L83.9159 7.26001L70.362 6.31183L73.5318 0.807709H98.6673C106.397 0.807709 112.115 3.56995 109.892 11.697C109.224 14.1591 106.082 20.3569 96.8672 22.9532C98.823 23.1861 103.694 25.3458 102.855 30.941C101.364 40.8618 88.5174 45.5848 81.3727 45.5874L51.6964 45.6013L50.2343 39.8605L65.7769 38.7642L66.3048 37.8553L49.4469 36.83L47.6304 30.0233L71.619 28.6232L72.1393 27.7219L29.0446 25.0027L31.1092 21.4202L77.4966 18.4074L78.0219 17.5048L64.4224 16.6225" fill="black"/>
</svg>
