<svg width="149" height="46" viewBox="0 0 149 46" fill="none" xmlns="http://www.w3.org/2000/svg">
<path d="M6.89199 24.3873C6.89199 26.2084 7.43392 27.7352 8.46736 28.9172C9.55031 30.0982 10.8799 30.6888 12.5039 30.6888C14.1288 30.6888 15.4584 30.0982 16.4927 28.9172C17.5748 27.7352 18.1167 26.2084 18.1167 24.3873C18.1167 22.5662 17.5748 21.0394 16.4927 19.8584C15.4584 18.6764 14.1288 18.0859 12.5039 18.0859C10.8799 18.0859 9.55031 18.6764 8.46736 19.8584C7.43392 21.0394 6.89199 22.5662 6.89199 24.3873ZM21.7598 33.4947C19.4454 35.8092 16.5899 36.9902 13.1935 36.9902C10.6333 36.9902 8.56548 36.3016 6.99012 34.9234V45.9995H0V12.3263H6.89199C6.89199 12.3263 10.5846 11.7349 13.1935 11.7349C16.5899 11.7349 19.4454 12.9169 21.7598 15.2304C24.0734 17.5439 25.2553 20.5965 25.2553 24.3873C25.2553 28.1286 24.0734 31.1812 21.7598 33.4947Z" fill="black"/>
<path d="M57.0074 28.622C58.1399 27.3914 58.7304 25.9141 58.7304 24.2407C58.7304 20.8928 56.3178 18.2336 52.5766 18.2336C50.8536 18.2336 49.4258 18.825 48.2934 20.0061C47.1609 21.1881 46.6199 22.6158 46.6199 24.2407C46.6199 25.8646 47.2104 27.3419 48.3429 28.5725C49.4754 29.803 50.9031 30.4431 52.5766 30.4431C54.3986 30.4431 55.8749 29.8526 57.0074 28.622ZM58.7304 12.3264H65.77V36.4493H58.7304V34.6777C56.8598 36.2035 54.6443 36.9912 52.0355 36.9912C48.54 36.9912 45.5369 35.8092 43.0749 33.3976C40.6137 30.985 39.3831 27.9819 39.3831 24.3874C39.3831 20.7938 40.6137 17.7907 43.0749 15.379C45.5369 12.9665 48.54 11.7359 52.0355 11.7359C54.9396 11.7359 58.7304 12.3264 58.7304 12.3264" fill="black"/>
<path d="M103.199 18.7754V36.4492H96.2079V12.3263H111.001V18.7754H103.199Z" fill="black"/>
<path d="M22.0527 1.98842V8.43751H28.7988V36.4502H35.7899V1.98842H22.0527Z" fill="black"/>
<path d="M118.147 0.397951C120.754 0.397951 122.751 2.39551 122.751 5.00252C122.751 7.49879 120.643 9.55127 118.147 9.55127C115.651 9.55127 113.598 7.49879 113.598 5.00252C113.598 2.39551 115.651 0.397951 118.147 0.397951Z" fill="black"/>
<path d="M114.654 12.3263H121.694V36.4492H114.654V12.3263Z" fill="black"/>
<path d="M132.612 12.3263L136.255 18.4802L139.898 12.3263H147.775L140.193 24.0434L148.316 36.4492H140.489L136.255 29.6067L132.07 36.4492H124.193L132.316 24.0434L124.735 12.3263H132.612Z" fill="black"/>
<path d="M80.921 46H73.5366L77.475 36.4497L68.0723 12.3259H75.8501L81.2658 27.2433L86.8777 12.3259H94.3611L80.921 46Z" fill="black"/>
</svg>
