<svg width="141" height="46" viewBox="0 0 141 46" fill="none" xmlns="http://www.w3.org/2000/svg">
<path fill-rule="evenodd" clip-rule="evenodd" d="M45.2287 22.6144C45.2287 35.1039 35.1039 45.2287 22.6144 45.2287C10.1248 45.2287 0 35.1039 0 22.6144C0 10.1248 10.1248 0 22.6144 0C35.1039 0 45.2287 10.1248 45.2287 22.6144ZM34.2729 19.4325C36.0998 19.3707 37.6288 20.7928 37.6962 22.6141C37.7187 23.8845 37.0048 25.0538 35.8693 25.6215C35.8918 25.9532 35.8918 26.2848 35.8693 26.6165C35.8693 31.6868 29.967 35.8016 22.6874 35.8016C15.4079 35.8016 9.50555 31.6812 9.50555 26.6165C9.48306 26.2848 9.48306 25.9532 9.50555 25.6215C9.17389 25.4753 8.87597 25.2674 8.61739 25.0256C7.28515 23.7777 7.22331 21.6866 8.47124 20.36C9.71916 19.0278 11.8103 18.9659 13.1369 20.2138C15.7452 18.4488 18.8087 17.4819 21.9567 17.4313L23.6262 9.58402V9.57278C23.7105 9.19053 24.0871 8.95444 24.4637 9.03876L30.0063 10.1462C30.3605 9.52781 31.0013 9.11184 31.7152 9.03876C32.9575 8.90385 34.0705 9.80325 34.2054 11.0456C34.3403 12.2879 33.4409 13.4009 32.1986 13.5358C30.9563 13.6707 29.8433 12.7713 29.7084 11.529L24.8685 10.5115L23.4013 17.5662C26.5099 17.6337 29.5341 18.5949 32.1087 20.3488C32.6933 19.7922 33.4634 19.4606 34.2729 19.4325ZM17.3472 22.6141C16.0993 22.6141 15.0818 23.6316 15.0818 24.8795C15.0818 26.1274 16.0937 27.1336 17.3472 27.1449C18.5951 27.1449 19.6126 26.1274 19.6126 24.8795C19.6126 23.6316 18.5951 22.6141 17.3472 22.6141ZM22.6312 32.8392C24.6436 32.9235 26.6111 32.3052 28.2188 31.0966V31.1866C28.4661 30.9448 28.4717 30.5401 28.23 30.2928C27.9883 30.0454 27.5835 30.0398 27.3362 30.2815C25.959 31.2653 24.2951 31.7487 22.6087 31.6587C20.9223 31.7374 19.2641 31.2315 17.9037 30.2366C17.6733 30.0511 17.3528 30.0511 17.128 30.2366C16.8694 30.4502 16.8301 30.838 17.0437 31.0966C18.6514 32.3052 20.6188 32.9235 22.6312 32.8392ZM25.5486 24.9582C25.5486 26.2061 26.5661 27.2236 27.814 27.2236L27.7972 27.3079H27.9096C29.1575 27.2573 30.13 26.2061 30.0794 24.9582C30.0794 23.7103 29.0619 22.6928 27.814 22.6928C26.5661 22.6928 25.5486 23.7103 25.5486 24.9582Z" fill="black"/>
<path d="M126.169 15.7166C127.871 15.7166 129.25 14.3374 129.25 12.6361C129.25 10.9348 127.871 9.55566 126.169 9.55566C124.468 9.55566 123.089 10.9348 123.089 12.6361C123.089 14.3374 124.468 15.7166 126.169 15.7166Z" fill="black"/>
<path d="M82.5146 25.7446C83.7063 25.8289 84.7406 24.9295 84.8306 23.7322C84.8362 23.6647 84.8362 23.586 84.8362 23.5129C84.8193 23.097 84.7687 22.6754 84.6844 22.265C83.9537 18.3638 80.6202 15.4914 76.6572 15.334C72.1434 15.334 68.3715 19.4825 68.3715 24.5753C68.3715 29.6682 72.0815 33.8223 76.6516 33.8223C79.0744 33.9179 81.4241 32.9398 83.0542 31.1466C83.7232 30.4158 83.667 29.286 82.9362 28.617C82.88 28.5665 82.8294 28.5215 82.7732 28.4821C82.0424 28.0268 81.0924 28.1224 80.4741 28.7182C79.4566 29.7301 78.0907 30.309 76.6516 30.354C74.167 30.1573 72.1771 28.2123 71.9298 25.7221H82.4471L82.5146 25.7446ZM76.6348 18.8135C78.8214 18.9597 80.6596 20.5224 81.1486 22.6641H72.1321C72.6155 20.5168 74.4425 18.9541 76.6348 18.8135Z" fill="black"/>
<path d="M68.5514 17.1276C68.5514 16.2619 67.9105 15.5256 67.0505 15.4188C64.7289 15.0309 62.368 15.8909 60.8446 17.6898V17.4649C60.8446 16.5037 60.0689 15.7279 59.1076 15.7279C58.1464 15.7279 57.3707 16.5037 57.3707 17.4649V31.6867C57.3482 32.6198 58.0621 33.4124 58.9952 33.4911C59.9452 33.5586 60.7772 32.8391 60.839 31.8891C60.8446 31.8216 60.8446 31.7542 60.839 31.6867V24.3903C60.6872 21.4785 62.9189 18.9995 65.8307 18.8421C66.0893 18.8252 66.3535 18.8309 66.612 18.859H66.9605C67.8599 18.7803 68.5514 18.0326 68.5514 17.1276Z" fill="black"/>
<path d="M127.901 18.9938C127.901 18.0326 127.125 17.2568 126.164 17.2568C125.203 17.2568 124.427 18.0326 124.427 18.9938V31.681C124.427 32.6422 125.203 33.418 126.164 33.418C127.125 33.418 127.901 32.6422 127.901 31.681V18.9938Z" fill="black"/>
<path d="M102.268 9.35342C102.268 8.39781 101.492 7.62207 100.536 7.62207C99.5808 7.62207 98.805 8.39781 98.805 9.35342V17.1108C97.6358 15.9303 96.0281 15.2895 94.3698 15.3345C89.856 15.3345 86.0841 19.4829 86.0841 24.5758C86.0841 29.6687 89.7998 33.8228 94.3698 33.8228C96.0562 33.8734 97.6864 33.2269 98.8837 32.0296C99.1535 32.9459 100.115 33.4687 101.031 33.1988C101.722 32.9965 102.217 32.3894 102.262 31.6642L102.268 9.35342ZM94.3586 30.3994C91.6997 30.3994 89.5356 27.8137 89.5356 24.6152C89.5356 21.4167 91.6829 18.8309 94.3586 18.8309C97.0343 18.8309 99.1816 21.4167 99.1816 24.6152C99.1816 27.8137 97.0343 30.3713 94.3698 30.3713L94.3586 30.3994Z" fill="black"/>
<path d="M120.379 9.35342C120.379 8.39781 119.604 7.62207 118.648 7.62207C117.692 7.62207 116.917 8.39781 116.917 9.35342V17.1108C115.748 15.9303 114.14 15.2895 112.482 15.3345C107.968 15.3345 104.196 19.4829 104.196 24.5758C104.196 29.6687 107.911 33.8228 112.482 33.8228C114.168 33.8734 115.798 33.2269 116.995 32.0296C117.265 32.9459 118.227 33.4687 119.143 33.1988C119.834 32.9965 120.329 32.3894 120.374 31.6642L120.379 9.35342ZM112.476 30.3994C109.817 30.3994 107.653 27.8137 107.653 24.6152C107.653 21.4167 109.8 18.8309 112.476 18.8309C115.152 18.8309 117.299 21.4167 117.299 24.6152C117.299 27.8137 115.152 30.3713 112.487 30.3713L112.476 30.3994Z" fill="black"/>
<path d="M136.9 31.6757V18.8142H138.401C139.233 18.8648 139.941 18.2296 139.992 17.4033C139.992 17.3752 139.998 17.3415 139.998 17.3077C140.071 16.4814 139.458 15.7507 138.637 15.6776C138.592 15.672 138.542 15.672 138.497 15.672H136.906V13.2829C136.917 12.3554 136.209 11.5741 135.281 11.4897C134.331 11.4223 133.505 12.1418 133.438 13.0918C133.432 13.1311 133.432 13.1761 133.432 13.2155V15.7113H131.926C131.094 15.6607 130.385 16.2959 130.335 17.1222C130.335 17.1503 130.329 17.1841 130.329 17.2178C130.256 18.0441 130.869 18.7749 131.689 18.848C131.734 18.8536 131.785 18.8536 131.83 18.8536H133.331V31.6813C133.331 32.6369 134.107 33.4127 135.062 33.4127C136.018 33.4745 136.833 32.7437 136.895 31.7881C136.9 31.7544 136.9 31.7151 136.9 31.6757Z" fill="black"/>
</svg>
