<svg width="64" height="64" viewBox="0 0 64 64" fill="none" xmlns="http://www.w3.org/2000/svg">
<g clip-path="url(#clip0_1_2600)">
<path d="M36 0.26001V28H63.74C62.8504 20.9533 59.6417 14.4029 54.6194 9.3806C49.5971 4.3583 43.0467 1.14961 36 0.26001Z" fill="#000A68"/>
<path d="M32 32V0C25.671 0 19.4841 1.87677 14.2218 5.39297C8.95939 8.90918 4.85787 13.9069 2.43587 19.7541C0.013865 25.6014 -0.619842 32.0355 0.614885 38.2429C1.84961 44.4503 4.89732 50.1521 9.3726 54.6274C13.8479 59.1027 19.5497 62.1504 25.7571 63.3851C31.9645 64.6199 38.3986 63.9861 44.2459 61.5641C50.0931 59.1421 55.0908 55.0406 58.607 49.7782C62.1232 44.5159 64 38.329 64 32H32Z" fill="#000A68"/>
</g>
<defs>
<clipPath id="clip0_1_2600">
<rect width="64" height="64" fill="white"/>
</clipPath>
</defs>
</svg>
