<svg width="64" height="64" viewBox="0 0 64 64" fill="none" xmlns="http://www.w3.org/2000/svg">
<g clip-path="url(#clip0_1_2623)">
<path d="M56 15.832C51.2733 21.1999 44.8827 24.8271 37.8507 26.1334C37.2768 25.0829 36.4308 24.2063 35.4013 23.5956C34.3719 22.9849 33.197 22.6627 32 22.6627C30.803 22.6627 29.6281 22.9849 28.5987 23.5956C27.5692 24.2063 26.7232 25.0829 26.1493 26.1334C19.1173 24.8271 12.7267 21.1999 8 15.832V8.00004C8 7.2928 8.28095 6.61452 8.78105 6.11442C9.28115 5.61433 9.95942 5.33337 10.6667 5.33337H53.3333C54.0406 5.33337 54.7189 5.61433 55.219 6.11442C55.7191 6.61452 56 7.2928 56 8.00004V15.832ZM56 23.264V56C56 56.7073 55.7191 57.3856 55.219 57.8857C54.7189 58.3858 54.0406 58.6667 53.3333 58.6667H10.6667C9.95942 58.6667 9.28115 58.3858 8.78105 57.8857C8.28095 57.3856 8 56.7073 8 56V23.264C13.0592 27.5216 19.1622 30.3531 25.68 31.4667C26.1259 32.7896 26.9756 33.9392 28.1094 34.7535C29.2433 35.5678 30.604 36.0059 32 36.0059C33.396 36.0059 34.7567 35.5678 35.8906 34.7535C37.0244 33.9392 37.8741 32.7896 38.32 31.4667C44.8378 30.3531 50.9408 27.5216 56 23.264Z" fill="#000A68"/>
</g>
<defs>
<clipPath id="clip0_1_2623">
<rect width="64" height="64" fill="white"/>
</clipPath>
</defs>
</svg>
