<svg width="64" height="64" viewBox="0 0 64 64" fill="none" xmlns="http://www.w3.org/2000/svg">
<path d="M63.3333 18.667C63.3333 17.9178 62.9147 17.2315 62.2485 16.8887C61.5824 16.5459 60.7805 16.6041 60.1709 17.0395L41.5042 30.3729C40.9786 30.7483 40.6667 31.3544 40.6667 32.0003C40.6667 32.6462 40.9786 33.2524 41.5042 33.6278L60.1709 46.9611C60.7805 47.3966 61.5824 47.4548 62.2485 47.112C62.9147 46.7692 63.3333 46.0828 63.3333 45.3337V18.667Z" fill="#000A68"/>
<path d="M8.00002 11.333C3.94993 11.333 0.666687 14.6163 0.666687 18.6663V45.333C0.666687 49.3831 3.94993 52.6663 8.00002 52.6663H37.3334C41.3834 52.6663 44.6667 49.3831 44.6667 45.333V18.6663C44.6667 14.6163 41.3834 11.333 37.3334 11.333H8.00002Z" fill="#000A68"/>
</svg>
