<svg width="64" height="58" viewBox="0 0 64 58" fill="none" xmlns="http://www.w3.org/2000/svg">
<path d="M63.6133 26.9649C57.5877 15.1457 45.6588 7.14893 31.9999 7.14893C18.341 7.14893 6.40883 15.1513 0.386606 26.966C0.13243 27.4715 0 28.0299 0 28.5963C0 29.1627 0.13243 29.7211 0.386606 30.2266C6.41216 42.0458 18.341 50.0425 31.9999 50.0425C45.6588 50.0425 57.591 42.0402 63.6133 30.2255C63.8674 29.72 63.9999 29.1616 63.9999 28.5952C63.9999 28.0288 63.8674 27.4703 63.6133 26.9649ZM31.9999 44.6808C28.8354 44.6808 25.742 43.7375 23.1108 41.97C20.4796 40.2026 18.4289 37.6904 17.2179 34.7512C16.0069 31.8121 15.69 28.5779 16.3074 25.4577C16.9247 22.3375 18.4486 19.4714 20.6862 17.2218C22.9239 14.9723 25.7748 13.4403 28.8785 12.8197C31.9822 12.1991 35.1993 12.5176 38.1229 13.735C41.0465 14.9525 43.5453 17.0141 45.3034 19.6593C47.0616 22.3045 47.9999 25.4144 47.9999 28.5957C48.001 30.7083 47.5878 32.8005 46.7841 34.7525C45.9804 36.7045 44.8019 38.4781 43.3159 39.9719C41.83 41.4658 40.0658 42.6505 38.1241 43.4585C36.1824 44.2665 34.1014 44.6819 31.9999 44.6808ZM31.9999 17.8723C31.0479 17.8857 30.1019 18.0281 29.1877 18.2957C29.9413 19.3252 30.3029 20.5921 30.207 21.8667C30.1111 23.1413 29.564 24.3392 28.6649 25.243C27.7659 26.1468 26.5744 26.6968 25.3065 26.7933C24.0387 26.8897 22.7785 26.5261 21.7544 25.7686C21.1712 27.9284 21.2765 30.2177 22.0554 32.3143C22.8342 34.4109 24.2475 36.2091 26.0962 37.4559C27.9449 38.7027 30.136 39.3353 32.361 39.2646C34.5861 39.194 36.7331 38.4236 38.4998 37.062C40.2665 35.7004 41.5641 33.816 42.2097 31.6742C42.8554 29.5324 42.8167 27.241 42.0992 25.1224C41.3816 23.0039 40.0212 21.1649 38.2095 19.8643C36.3979 18.5637 34.2261 17.8671 31.9999 17.8723Z" fill="#000A68"/>
</svg>
