<svg width="64" height="64" viewBox="0 0 64 64" fill="none" xmlns="http://www.w3.org/2000/svg">
<path d="M55.2 32C53.8667 32 53.0667 30.4 52.5333 29.6C51.4667 27.7333 50.1333 24.8 47.4667 23.2C46.4 24.8 46.1333 25.6 45.6 28.2667C44 20 46.9333 14.4 48 11.7333C44 11.7333 40 14.9333 38.4 19.2C37.8667 18.9333 35.4667 18.6667 34.9333 18.6667H27.2C18.6667 18.6667 9.86667 25.6 9.86667 36.5333C9.86667 41.0667 12 45.3333 15.7333 48.5333C16.2667 49.0667 17.3333 50.1333 17.0667 52C17.0667 52.2667 17.0667 52.2667 17.0667 52.5333C16.5333 54.9333 18.1333 57.3333 20.5333 57.8667L25.8667 58.9333C25.8667 58.9333 26.1333 57.6 26.4 56C26.6667 54.4 28 54.1333 29.3333 54.4C30.1333 54.4 31.2 54.6667 32.2667 54.6667C33.3333 54.6667 34.6667 54.6667 35.7333 54.4C36.2667 54.4 37.6 54.4 37.8667 55.7333C38.1333 57.0667 38.6667 59.2 38.6667 59.2L44 58.1333C46.4 57.6 48 55.2 47.4667 52.8C47.4667 52.5333 47.4667 52.2667 47.4667 52.2667C47.2 51.2 48 50.1333 48.5333 49.8667C49.8667 48.5333 51.2 47.2 51.7333 45.8667C52 45.0667 53.3333 43.7333 55.2 43.7333H56C57.6 43.7333 58.6667 42.6667 58.6667 41.0667V34.6667C58.6667 33.0667 57.6 32.5333 56 32.5333C55.7333 32 55.2 32 55.2 32ZM48 37.3333C46.4 37.3333 45.3333 36.2667 45.3333 34.6667C45.3333 33.0667 46.4 32 48 32C49.6 32 50.6667 33.0667 50.6667 34.6667C50.6667 36.2667 49.6 37.3333 48 37.3333Z" fill="#000A68"/>
<path d="M16 37.3333C13.3333 37.3333 8 36.5333 8 29.3333" stroke="#000A68" stroke-width="2" stroke-miterlimit="10" stroke-linecap="round" stroke-linejoin="round"/>
<path d="M33.3333 16C34.1333 14.9333 34.6667 13.6 34.6667 12C34.6667 8.26665 31.7333 5.33331 28 5.33331C24.2667 5.33331 21.3333 8.26665 21.3333 12C21.3333 13.6 21.8667 14.9333 22.6667 16H33.3333Z" fill="#000A68"/>
</svg>
