<svg width="64" height="64" viewBox="0 0 64 64" fill="none" xmlns="http://www.w3.org/2000/svg">
<path d="M59.9975 37.5703V57.8841C59.9975 58.9891 59.1012 59.8841 57.9962 59.8841H37.6825C36.5775 59.8841 35.6825 58.9891 35.6825 57.8841V37.5703C35.6825 36.4653 36.5775 35.5703 37.6825 35.5703H57.9975C59.1025 35.5703 59.9975 36.4653 59.9975 37.5703Z" fill="#000A68"/>
<path d="M47.3888 27.3287C47.7463 27.9474 47.7463 28.7099 47.3888 29.3287C47.0325 29.9474 46.3713 30.3287 45.6575 30.3287H19.3488C18.6338 30.3287 17.9738 29.9474 17.6163 29.3287C17.2588 28.7099 17.2588 27.9474 17.6163 27.3287L30.77 4.54492C31.1275 3.92617 31.7875 3.54492 32.5025 3.54492C33.2175 3.54492 33.8775 3.92617 34.235 4.54492L47.3888 27.3287Z" fill="#000A68"/>
<path d="M47.3888 27.3287C47.7463 27.9474 47.7463 28.7099 47.3888 29.3287C47.0325 29.9474 46.3713 30.3287 45.6575 30.3287H19.3488C18.6338 30.3287 17.9738 29.9474 17.6163 29.3287C17.2588 28.7099 17.2588 27.9474 17.6163 27.3287L30.77 4.54492C31.1275 3.92617 31.7875 3.54492 32.5025 3.54492C33.2175 3.54492 33.8775 3.92617 34.235 4.54492L47.3888 27.3287Z" stroke="#000A68"/>
<path d="M16.7313 34.999C23.75 34.999 29.46 40.709 29.46 47.7278C29.46 54.7453 23.75 60.4553 16.7313 60.4553C9.7125 60.4553 4.0025 54.7465 4.0025 47.7278C4.0025 40.709 9.7125 34.999 16.7313 34.999Z" fill="#000A68"/>
</svg>
