<svg width="64" height="64" viewBox="0 0 64 64" fill="none" xmlns="http://www.w3.org/2000/svg">
<g clip-path="url(#clip0_1_2565)">
<path d="M56 16C60.42 16 64 12.42 64 8C64 3.58 60.42 0 56 0C51.58 0 48 3.58 48 8C48 10.248 48.932 12.272 50.424 13.724L44.112 24.768C42.824 24.296 41.452 24 40 24C36.8 24 33.908 25.272 31.756 27.316L15.392 15.044C15.78 14.104 16 13.08 16 12C16 7.58 12.42 4 8 4C3.58 4 0 7.58 0 12C0 16.42 3.58 20 8 20C9.888 20 11.6 19.32 12.968 18.228L29.376 30.536C28.524 32.18 28 34.02 28 36C28 37.252 28.248 38.44 28.604 39.576L11.44 48.804C10.392 48.304 9.236 48 8 48C3.58 48 0 51.58 0 56C0 60.42 3.58 64 8 64C12.42 64 16 60.42 16 56C16 54.376 15.508 52.868 14.676 51.604L30.408 43.144C32.596 46.076 36.06 48 40 48C41.992 48 43.844 47.468 45.5 46.608L49.408 51.476C48.524 52.764 48 54.32 48 56C48 60.42 51.58 64 56 64C60.42 64 64 60.42 64 56C64 51.58 60.42 48 56 48C54.716 48 53.52 48.332 52.444 48.868L48.708 44.212C50.736 42.064 52 39.188 52 36C52 32.264 50.256 28.968 47.58 26.768L53.912 15.688C54.58 15.872 55.272 16 56 16Z" fill="#000A68"/>
</g>
<defs>
<clipPath id="clip0_1_2565">
<rect width="64" height="64" fill="white"/>
</clipPath>
</defs>
</svg>
