<svg width="64" height="64" viewBox="0 0 64 64" fill="none" xmlns="http://www.w3.org/2000/svg">
<path d="M56.3571 5H7.64286C3.87857 5 1 7.91286 1 11.722V52.0539C1 55.8631 3.87857 58.7759 7.64286 58.7759H14.0643C12.9571 58.7759 12.0714 58.1037 11.85 56.9834C11.4071 55.4149 11.1857 53.6224 11.1857 52.0539C11.1857 50.4855 11.4071 48.917 11.85 47.1245C12.0714 46.0041 13.1786 45.3319 14.2857 45.556C15.6143 45.7801 16.9429 45.1079 17.8286 43.7635C18.4929 42.6432 18.4929 41.0747 17.6071 39.9544C16.9429 39.0581 16.9429 37.7137 17.8286 37.0415C20.2643 34.8008 23.1429 33.0083 26.2429 32.112C27.35 31.888 28.4571 32.3361 28.9 33.4564C29.3429 34.8008 30.6714 35.6971 32 35.6971C33.3286 35.6971 34.6571 34.8008 35.1 33.4564C35.5429 32.3361 36.65 31.888 37.7571 32.112C40.8571 33.0083 43.7357 34.8008 46.1714 37.0415C47.0571 37.9378 47.0571 39.0581 46.3929 39.9544C45.5071 41.0747 45.5071 42.6432 46.1714 43.7635C46.8357 44.8838 48.1643 45.7801 49.7143 45.556C50.8214 45.3319 51.9286 46.2282 52.15 47.3485C52.5929 48.917 52.8143 50.7095 52.8143 52.278C52.8143 53.8465 52.5929 55.639 52.15 57.2075C51.9286 58.1037 51.0429 59 49.9357 59H56.3571C60.1214 59 63 56.0871 63 52.278V11.722C63 7.91286 60.1214 5 56.3571 5ZM14.0643 14.8589C14.0643 15.083 13.8429 15.3071 13.6214 15.5311C13.1786 15.9793 12.7357 16.2033 12.0714 16.2033C11.4071 16.2033 10.9643 15.9793 10.5214 15.5311C10.0786 15.083 9.85714 14.6349 9.85714 13.9627C9.85714 13.2905 10.0786 12.8423 10.5214 12.3942L10.7429 12.1701C10.9643 12.1701 10.9643 11.9461 11.1857 11.9461C11.4071 11.722 11.4071 11.722 11.6286 11.722C11.85 11.722 12.2929 11.722 12.5143 11.722C12.7357 11.722 12.7357 11.722 12.9571 11.9461C13.1786 11.9461 13.1786 12.1701 13.4 12.1701L13.6214 12.3942C13.8429 12.6183 14.0643 12.8423 14.0643 13.0664C14.2857 13.2905 14.2857 13.7386 14.2857 13.9627C14.2857 14.1867 14.2857 14.6349 14.0643 14.8589ZM20.2643 15.5311C19.8214 15.9793 19.3786 16.2033 18.7143 16.2033C18.05 16.2033 17.6071 15.9793 17.1643 15.5311C16.7214 15.083 16.5 14.6349 16.5 13.9627C16.5 13.7386 16.5 13.2905 16.7214 13.0664C16.9429 12.8423 16.9429 12.6183 17.1643 12.3942C17.3857 12.1701 17.6071 11.9461 17.8286 11.9461C18.7143 11.4979 19.6 11.722 20.2643 12.3942C20.4857 12.6183 20.7071 12.8423 20.7071 13.0664C20.9286 13.2905 20.9286 13.7386 20.9286 13.9627C20.9286 14.6349 20.7071 15.083 20.2643 15.5311ZM27.35 14.8589C27.1286 15.083 27.1286 15.3071 26.9071 15.5311C26.4643 15.9793 26.0214 16.2033 25.3571 16.2033C25.1357 16.2033 24.6929 16.2033 24.4714 15.9793C24.25 15.7552 24.0286 15.7552 23.8071 15.5311C23.5857 15.3071 23.3643 15.083 23.3643 14.8589C23.1429 14.6349 23.1429 14.1867 23.1429 13.9627C23.1429 13.7386 23.1429 13.2905 23.3643 13.0664C23.5857 12.8423 23.5857 12.6183 23.8071 12.3942C24.6929 11.4979 26.0214 11.4979 26.9071 12.3942C27.1286 12.6183 27.35 12.8423 27.35 13.0664C27.5714 13.2905 27.5714 13.7386 27.5714 13.9627C27.5714 14.1867 27.5714 14.6349 27.35 14.8589Z" fill="#000A68"/>
<path d="M32 58C27.6 58 24 54.4 24 50C24 45.6 27.6 42 32 42C36.4 42 40 45.6 40 50C40 54.4 36.4 58 32 58Z" fill="#000A68"/>
</svg>
