<svg width="36" height="36" viewBox="0 0 36 36" fill="none" xmlns="http://www.w3.org/2000/svg">
<path fill-rule="evenodd" clip-rule="evenodd" d="M18 35.5C8.335 35.5 0.5 27.665 0.5 18C0.5 8.335 8.335 0.5 18 0.5C27.665 0.5 35.5 8.335 35.5 18C35.5 27.665 27.665 35.5 18 35.5ZM27.6942 30.5C27.5633 30.3075 27.3983 30.0683 27.2658 29.8817C27.035 29.5533 26.8042 29.225 26.5975 28.9C26.5875 28.885 25.4458 27.3533 21.3333 27.1667C19.9025 27.1667 18.8625 26.0933 18.86 24.6117L18.8333 23.8333C18.82 23.9567 18.8333 23.7208 18.8333 23.8333V23L19.6667 22.1667C20.2758 21.8842 21.05 21.4092 21.6625 20.9467L21.775 20.8692C22.2592 20.5617 22.9358 19.9142 23 19.6667L23.03 19.3492C23.3408 17.7467 23.8333 14.8317 23.8333 13.8333C23.8333 9.90833 21.925 8 18 8C14.0208 8 12.1667 9.85333 12.1667 13.8333C12.1667 14.8583 12.6592 17.7592 12.9692 19.3467L12.9983 19.64C13.0508 19.9008 13.6642 20.5183 14.2058 20.8583L14.2875 20.91C14.9442 21.3692 15.7292 21.8808 16.3333 22.1667L17.1667 23V23.8333C17.1667 23.7117 17.1783 23.9483 17.1667 23.8333L17.1392 24.6117C17.1392 26.0908 16.1008 27.165 14.7367 27.165C14.7358 27.165 14.735 27.165 14.7342 27.165C10.6042 27.3325 9.40667 28.8958 9.405 28.8958C9.195 29.2258 8.965 29.5533 8.7325 29.8825C8.60167 30.0692 8.43667 30.3075 8.305 30.5C10.9858 32.5817 14.3425 33.8333 17.9992 33.8333C21.6558 33.8333 25.0133 32.5817 27.6942 30.5ZM18 2.16667C9.25583 2.16667 2.16667 9.25583 2.16667 18C2.16667 22.4883 4.04167 26.5308 7.04167 29.4117C7.36 28.9408 7.7 28.4708 8 28C8 28 9.39167 25.7142 14.6667 25.5C15.2042 25.5 15.4725 25.1483 15.4725 24.6117H15.4733C15.4725 24.1775 15.4725 23.8333 15.4725 23.8333C15.4725 23.725 15.455 23.6275 15.45 23.5225C14.8467 23.2375 14.1467 22.8442 13.3342 22.2775C13.3342 22.2775 11.3342 21.0475 11.3342 19.6667C11.3342 19.6667 10.5008 15.4033 10.5008 13.8333C10.5008 9.96333 12.1558 6.33333 18.0008 6.33333C23.7675 6.33333 25.5008 9.96333 25.5008 13.8333C25.5008 15.365 24.6675 19.6667 24.6675 19.6667C24.6675 21.0092 22.6675 22.2775 22.6675 22.2775C21.8717 22.8783 21.1667 23.2792 20.5483 23.5658C20.5442 23.6567 20.5292 23.74 20.5292 23.8333C20.5292 23.8333 20.5283 24.1775 20.5283 24.6117H20.5292C20.5275 25.1483 20.7958 25.5 21.3333 25.5C26.6867 25.74 28 28 28 28C28.3 28.4708 28.6392 28.9408 28.9575 29.4117C31.9575 26.5308 33.8333 22.4883 33.8333 18C33.8333 9.25583 26.7442 2.16667 18 2.16667Z" fill="#FCFFFD"/>
</svg>
