<svg width="37" height="38" viewBox="0 0 37 38" fill="none" xmlns="http://www.w3.org/2000/svg">
<mask id="path-1-inside-1_1_2843" fill="white">
<path fill-rule="evenodd" clip-rule="evenodd" d="M36.7614 2.34389C36.7091 2.00565 36.5504 1.69287 36.3083 1.45087C36.0663 1.20887 35.7535 1.05023 35.4153 0.997951C33.448 0.701812 31.4481 0.69358 29.4785 0.973513C29.712 2.82976 30.5571 4.55535 31.8805 5.87782C33.2038 7.20029 34.93 8.04427 36.7864 8.27651C37.0657 6.30821 37.0573 4.30976 36.7614 2.34389ZM10.9907 18.4401C9.92819 17.6321 8.66037 17.1383 7.33124 17.0147C5.25455 16.8941 3.17138 17.0775 1.14768 17.559C0.979293 17.5966 0.803639 17.5848 0.641787 17.5251C0.479935 17.4653 0.338755 17.3601 0.23518 17.2222C0.131202 17.087 0.0683659 16.9247 0.0541894 16.7548C0.040013 16.5849 0.0750966 16.4144 0.155243 16.2639C2.69156 11.4549 7.58812 7.48203 13.9769 10.018C12.3581 12.5637 11.3371 15.4432 10.9907 18.4401ZM6.72739 24.6685C6.72739 24.6685 4.01951 26.8134 3.84757 32.7072C3.84356 32.867 3.8718 33.0259 3.9306 33.1746C3.98939 33.3232 4.07754 33.4585 4.18978 33.5723C4.30201 33.6861 4.43603 33.7761 4.58383 33.8369C4.73163 33.8978 4.89018 33.9282 5.05001 33.9264C10.7522 33.8202 13.0886 31.03 13.0886 31.03C13.9035 30.1715 14.3578 29.0329 14.3578 27.8493C14.3578 26.6656 13.9035 25.5271 13.0886 24.6685C11.3321 22.9118 8.72826 22.9972 6.72739 24.6685ZM19.3156 26.766C20.1216 27.8281 20.6142 29.0946 20.7375 30.4222C20.8584 32.4986 20.675 34.5815 20.1931 36.6048C20.1548 36.7724 20.1655 36.9475 20.2239 37.1092C20.2822 37.2709 20.3859 37.4124 20.5224 37.5169C20.6589 37.6214 20.8226 37.6845 20.9939 37.6986C21.1653 37.7127 21.3371 37.6773 21.4889 37.5966C26.2975 35.0629 30.2681 30.1665 27.7347 23.7793C25.188 25.394 22.3105 26.4148 19.3156 26.766ZM19.9147 5.4683C22.1378 3.4037 24.8642 1.95918 27.8209 1.2793C28.1185 3.47033 29.1265 5.50329 30.6904 7.06643C32.2543 8.62957 34.2878 9.63661 36.4789 9.93311C35.7995 12.8913 34.3547 15.6191 32.2892 17.8432C25.5337 25.1394 18.6837 25.1131 18.6837 25.1131L12.6444 19.0738C12.6444 19.0738 12.6181 12.2242 19.9147 5.4683ZM23.0804 15.6445C23.6601 16.0319 24.3416 16.2386 25.0388 16.2386C25.5017 16.2386 25.9601 16.1474 26.3878 15.9703C26.8155 15.7931 27.204 15.5335 27.5314 15.2062C27.8587 14.8788 28.1183 14.4902 28.2955 14.0626C28.4726 13.6349 28.5638 13.1765 28.5638 12.7136C28.5638 12.0164 28.3571 11.3349 27.9697 10.7552C27.5824 10.1755 27.0319 9.72373 26.3878 9.45693C25.7437 9.19014 25.0349 9.12033 24.3511 9.25634C23.6673 9.39235 23.0392 9.72808 22.5463 10.2211C22.0533 10.714 21.7176 11.3421 21.5816 12.0259C21.4455 12.7097 21.5153 13.4185 21.7821 14.0626C22.0489 14.7067 22.5007 15.2572 23.0804 15.6445Z"/>
</mask>
<path d="M36.3083 1.45087L37.3689 0.390136L37.3689 0.390127L36.3083 1.45087ZM36.7614 2.34389L38.2447 2.12064L38.2438 2.11455L36.7614 2.34389ZM35.4153 0.997951L35.6444 -0.484457L35.6385 -0.485337L35.4153 0.997951ZM29.4785 0.973513L29.2674 -0.511563L27.806 -0.303858L27.9902 1.16071L29.4785 0.973513ZM31.8805 5.87782L30.8202 6.93883V6.93883L31.8805 5.87782ZM36.7864 8.27651L36.6002 9.76491L38.0642 9.94807L38.2715 8.48725L36.7864 8.27651ZM7.33124 17.0147L7.47016 15.5211L7.44419 15.5187L7.41815 15.5172L7.33124 17.0147ZM10.9907 18.4401L10.0828 19.6341L12.1786 21.2277L12.4808 18.6123L10.9907 18.4401ZM1.14768 17.559L1.47439 19.023L1.48466 19.0207L1.49488 19.0183L1.14768 17.559ZM0.641787 17.5251L1.16129 16.1179L1.16128 16.1179L0.641787 17.5251ZM0.23518 17.2222L1.43481 16.3217L1.42949 16.3146L1.42409 16.3076L0.23518 17.2222ZM0.0541894 16.7548L1.549 16.6301L0.0541894 16.7548ZM0.155243 16.2639L1.47927 16.9689L1.48202 16.9637L0.155243 16.2639ZM13.9769 10.018L15.2427 10.8229L16.2157 9.29276L14.5303 8.62378L13.9769 10.018ZM3.84757 32.7072L2.3482 32.6635L2.34804 32.6696L3.84757 32.7072ZM6.72739 24.6685L7.65876 25.8443L7.67404 25.8322L7.68899 25.8197L6.72739 24.6685ZM4.18978 33.5723L5.25779 32.519L5.25777 32.519L4.18978 33.5723ZM4.58383 33.8369L4.01273 35.224L4.01276 35.224L4.58383 33.8369ZM5.05001 33.9264L5.0668 35.4264L5.07796 35.4262L5.05001 33.9264ZM13.0886 31.03L12.0007 29.9974L11.9685 30.0312L11.9386 30.067L13.0886 31.03ZM13.0886 24.6685L14.1766 23.6359L14.1632 23.6217L14.1494 23.6079L13.0886 24.6685ZM20.7375 30.4222L22.235 30.335L22.2334 30.3092L22.2311 30.2835L20.7375 30.4222ZM19.3156 26.766L19.1409 25.2762L16.5338 25.5819L18.1207 27.6728L19.3156 26.766ZM20.1931 36.6048L18.7338 36.2572L18.7307 36.2709L20.1931 36.6048ZM20.5224 37.5169L21.4341 36.3258L21.4341 36.3258L20.5224 37.5169ZM21.4889 37.5966L20.7896 36.2695L20.7846 36.2722L21.4889 37.5966ZM27.7347 23.7793L29.1291 23.2263L28.4613 21.5426L26.9315 22.5125L27.7347 23.7793ZM27.8209 1.2793L29.3073 1.07744L29.0862 -0.550774L27.4848 -0.182555L27.8209 1.2793ZM19.9147 5.4683L20.9338 6.56895L20.9354 6.56742L19.9147 5.4683ZM30.6904 7.06643L31.7508 6.00552V6.00552L30.6904 7.06643ZM36.4789 9.93311L37.9409 10.2689L38.3088 8.66705L36.6801 8.44666L36.4789 9.93311ZM32.2892 17.8432L31.1901 16.8224L31.1885 16.8241L32.2892 17.8432ZM18.6837 25.1131L17.623 26.1738L18.06 26.6107L18.6779 26.6131L18.6837 25.1131ZM12.6444 19.0738L11.1444 19.0795L11.1468 19.6975L11.5837 20.1345L12.6444 19.0738ZM26.3878 15.9703L25.8138 14.5845L25.8138 14.5845L26.3878 15.9703ZM27.5314 15.2062L28.592 16.2668L28.592 16.2668L27.5314 15.2062ZM28.2955 14.0626L26.9097 13.4885L26.9097 13.4885L28.2955 14.0626ZM27.9697 10.7552L26.7225 11.5886L26.7225 11.5886L27.9697 10.7552ZM24.3511 9.25634L24.0585 7.78516L24.0585 7.78516L24.3511 9.25634ZM22.5463 10.2211L23.6069 11.2817L23.6069 11.2817L22.5463 10.2211ZM21.5816 12.0259L20.1104 11.7333L21.5816 12.0259ZM21.7821 14.0626L20.3963 14.6366L20.3963 14.6366L21.7821 14.0626ZM35.2478 2.5116C35.2645 2.5283 35.2754 2.54989 35.279 2.57323L38.2438 2.11455C38.1427 1.46142 37.8363 0.857432 37.3689 0.390136L35.2478 2.5116ZM35.1861 2.48035C35.2095 2.48395 35.2311 2.4949 35.2478 2.51161L37.3689 0.390127C36.9016 -0.0771605 36.2976 -0.383488 35.6444 -0.484445L35.1861 2.48035ZM29.6896 2.45859C31.5151 2.19914 33.3687 2.20677 35.192 2.48124L35.6385 -0.485337C33.5274 -0.803143 31.3812 -0.811977 29.2674 -0.511563L29.6896 2.45859ZM32.9408 4.81681C31.8532 3.72997 31.1587 2.31183 30.9668 0.786318L27.9902 1.16071C28.2653 3.34769 29.261 5.38074 30.8202 6.93883L32.9408 4.81681ZM36.9726 6.78811C35.4469 6.59725 34.0284 5.90364 32.9408 4.81681L30.8202 6.93883C32.3793 8.49693 34.413 9.49129 36.6002 9.76491L36.9726 6.78811ZM35.2781 2.56713C35.5523 4.3892 35.5601 6.24146 35.3013 8.06578L38.2715 8.48725C38.5712 6.37497 38.5622 4.23033 38.2447 2.12065L35.2781 2.56713ZM7.19233 18.5082C8.24214 18.6058 9.24354 18.9959 10.0828 19.6341L11.8987 17.2461C10.6128 16.2683 9.07859 15.6707 7.47016 15.5211L7.19233 18.5082ZM1.49488 19.0183C3.37651 18.5706 5.31343 18.4001 7.24434 18.5121L7.41815 15.5172C5.19566 15.3882 2.96625 15.5845 0.800478 16.0998L1.49488 19.0183ZM0.122283 18.9322C0.554877 19.0919 1.02435 19.1234 1.47439 19.023L0.820966 16.095C0.934236 16.0698 1.0524 16.0777 1.16129 16.1179L0.122283 18.9322ZM-0.96445 18.1226C-0.687623 18.4914 -0.310289 18.7725 0.122298 18.9322L1.16128 16.1179C1.27016 16.1581 1.36513 16.2288 1.43481 16.3217L-0.96445 18.1226ZM-1.44062 16.8795C-1.40248 17.3367 -1.23344 17.7731 -0.953731 18.1368L1.42409 16.3076C1.49585 16.4008 1.53921 16.5128 1.549 16.6301L-1.44062 16.8795ZM-1.16877 15.5589C-1.38438 15.9639 -1.47876 16.4223 -1.44062 16.8795L1.549 16.6301C1.55878 16.7474 1.53457 16.865 1.47925 16.9689L-1.16877 15.5589ZM14.5303 8.62378C10.913 7.18795 7.62586 7.58332 4.90264 9.07C2.2333 10.5273 0.191153 12.9804 -1.17154 15.5641L1.48202 16.9637C2.65565 14.7384 4.32994 12.8006 6.34016 11.7032C8.2965 10.6351 10.652 10.312 13.4235 11.4121L14.5303 8.62378ZM12.4808 18.6123C12.8012 15.8405 13.7454 13.1774 15.2427 10.8229L12.7112 9.21305C10.9707 11.95 9.87304 15.0458 9.50066 18.2679L12.4808 18.6123ZM5.34693 32.7509C5.42609 30.0377 6.08455 28.2608 6.667 27.1993C6.96033 26.6647 7.24021 26.3009 7.43042 26.0835C7.52566 25.9747 7.59869 25.9023 7.63997 25.8633C7.66061 25.8439 7.6733 25.8328 7.67684 25.8297C7.67861 25.8282 7.67809 25.8287 7.67513 25.8311C7.67365 25.8324 7.67156 25.8341 7.66883 25.8363C7.66747 25.8374 7.66595 25.8386 7.66428 25.8399C7.66344 25.8406 7.66256 25.8413 7.66164 25.842C7.66118 25.8424 7.66046 25.843 7.66023 25.8432C7.6595 25.8437 7.65876 25.8443 6.72739 24.6685C5.79601 23.4927 5.79525 23.4933 5.79448 23.4939C5.79421 23.4941 5.79343 23.4947 5.79288 23.4952C5.7918 23.496 5.79067 23.4969 5.78951 23.4979C5.78717 23.4997 5.78467 23.5018 5.78201 23.5039C5.77668 23.5082 5.77071 23.5131 5.7641 23.5186C5.75088 23.5295 5.73513 23.5427 5.71702 23.5584C5.68082 23.5896 5.63516 23.6304 5.58142 23.681C5.47394 23.7824 5.33407 23.9236 5.17277 24.1079C4.84987 24.4769 4.44205 25.0178 4.03691 25.7561C3.22243 27.2405 2.44099 29.483 2.34821 32.6635L5.34693 32.7509ZM5.32543 32.6228C5.34077 32.6616 5.34815 32.7031 5.3471 32.7448L2.34804 32.6696C2.33898 33.0309 2.40283 33.3903 2.53577 33.7263L5.32543 32.6228ZM5.25777 32.519C5.28707 32.5487 5.31008 32.584 5.32543 32.6228L2.53577 33.7263C2.6687 34.0624 2.86801 34.3682 3.12178 34.6255L5.25777 32.519ZM5.15493 32.4499C5.19349 32.4658 5.22848 32.4893 5.25779 32.519L3.12176 34.6255C3.37554 34.8829 3.67857 35.0864 4.01273 35.224L5.15493 32.4499ZM5.03322 32.4265C5.07494 32.4261 5.11632 32.434 5.1549 32.4499L4.01276 35.224C4.34694 35.3616 4.70542 35.4304 5.0668 35.4264L5.03322 32.4265ZM13.0886 31.03C11.9386 30.067 11.9391 30.0663 11.9397 30.0657C11.9398 30.0655 11.9404 30.0649 11.9407 30.0645C11.9414 30.0637 11.942 30.0629 11.9426 30.0622C11.9439 30.0607 11.9449 30.0595 11.9459 30.0584C11.9478 30.0561 11.9492 30.0545 11.95 30.0536C11.9516 30.0517 11.9511 30.0523 11.9485 30.0553C11.9431 30.0612 11.9291 30.0764 11.9062 30.0998C11.8602 30.1467 11.7788 30.2257 11.6602 30.3271C11.4228 30.5299 11.0367 30.8215 10.4867 31.123C9.39429 31.7218 7.62146 32.3783 5.02207 32.4267L5.07796 35.4262C8.18075 35.3684 10.4272 34.5767 11.9286 33.7538C12.6754 33.3444 13.2298 32.9319 13.6088 32.6081C13.7982 32.4463 13.9439 32.3066 14.0481 32.2004C14.1001 32.1473 14.1419 32.1025 14.1735 32.0675C14.1894 32.05 14.2027 32.0349 14.2135 32.0224C14.219 32.0162 14.2238 32.0106 14.2279 32.0057C14.23 32.0033 14.232 32.001 14.2338 31.9989C14.2347 31.9978 14.2355 31.9968 14.2363 31.9958C14.2367 31.9953 14.2373 31.9946 14.2375 31.9944C14.2381 31.9937 14.2387 31.993 13.0886 31.03ZM12.8578 27.8493C12.8578 28.6487 12.551 29.4176 12.0007 29.9974L14.1766 32.0626C15.256 30.9254 15.8578 29.4172 15.8578 27.8493H12.8578ZM12.0007 25.7011C12.551 26.281 12.8578 27.0499 12.8578 27.8493H15.8578C15.8578 26.2813 15.256 24.7731 14.1766 23.6359L12.0007 25.7011ZM7.68899 25.8197C9.21015 24.5491 10.9214 24.6224 12.0279 25.7291L14.1494 23.6079C11.7429 21.2012 8.24637 21.4453 5.76578 23.5173L7.68899 25.8197ZM22.2311 30.2835C22.0819 28.677 21.4858 27.1444 20.5104 25.8592L18.1207 27.6728C18.7574 28.5118 19.1465 29.5122 19.2439 30.5609L22.2311 30.2835ZM21.6522 36.9524C22.1681 34.7868 22.3644 32.5574 22.235 30.335L19.24 30.5094C19.3524 32.4398 19.1819 34.3762 18.7339 36.2572L21.6522 36.9524ZM21.6347 36.5998C21.6739 36.7084 21.6811 36.8261 21.6554 36.9387L18.7307 36.2709C18.6284 36.7187 18.657 37.1865 18.813 37.6186L21.6347 36.5998ZM21.4341 36.3258C21.5258 36.396 21.5955 36.4911 21.6347 36.5998L18.813 37.6186C18.969 38.0507 19.2459 38.4288 19.6107 38.7081L21.4341 36.3258ZM21.1172 36.2037C21.2323 36.2132 21.3423 36.2555 21.4341 36.3258L19.6107 38.708C19.9755 38.9873 20.4128 39.1558 20.8707 39.1935L21.1172 36.2037ZM20.7846 36.2722C20.8866 36.218 21.0021 36.1942 21.1172 36.2037L20.8707 39.1935C21.3285 39.2313 21.7875 39.1367 22.1931 38.921L20.7846 36.2722ZM26.3404 24.3323C27.4394 27.1031 27.1162 29.4584 26.0485 31.4143C24.9514 33.4239 23.0143 35.0974 20.7896 36.2696L22.1881 38.9237C24.772 37.5622 27.2246 35.5206 28.6816 32.8518C30.168 30.1292 30.5634 26.8426 29.1291 23.2263L26.3404 24.3323ZM19.4903 28.2558C22.7088 27.8784 25.8011 26.7814 28.5379 25.0461L26.9315 22.5125C24.5749 24.0066 21.9122 24.9512 19.1409 25.2762L19.4903 28.2558ZM27.4848 -0.182555C24.272 0.5562 21.3096 2.1258 18.8939 4.36918L20.9354 6.56742C22.9661 4.6816 25.4563 3.36216 28.1571 2.74115L27.4848 -0.182555ZM31.7508 6.00552C30.4191 4.67441 29.5607 2.94323 29.3073 1.07744L26.3346 1.48116C26.6763 3.99744 27.834 6.33217 29.63 8.12735L31.7508 6.00552ZM36.6801 8.44666C34.8142 8.19417 33.0826 7.33662 31.7508 6.00552L29.63 8.12735C31.4261 9.92253 33.7614 11.079 36.2778 11.4196L36.6801 8.44666ZM33.3883 18.8639C35.6326 16.4472 37.2026 13.4833 37.9409 10.2689L35.017 9.59733C34.3964 12.2994 33.0767 14.7909 31.1901 16.8224L33.3883 18.8639ZM18.6837 25.1131C18.6779 26.6131 18.6787 26.6131 18.6796 26.6131C18.6799 26.6131 18.6808 26.6131 18.6814 26.6131C18.6826 26.6131 18.684 26.6131 18.6855 26.6131C18.6884 26.6131 18.6918 26.6131 18.6955 26.6131C18.7031 26.6131 18.7123 26.613 18.7232 26.6128C18.745 26.6125 18.7734 26.612 18.8082 26.6109C18.8778 26.6088 18.9731 26.6046 19.0922 26.5966C19.3305 26.5805 19.6647 26.5489 20.0809 26.4868C20.9131 26.3627 22.075 26.1165 23.4538 25.6282C26.2185 24.6492 29.8323 22.7045 33.3899 18.8623L31.1885 16.8241C27.9906 20.278 24.8017 21.9684 22.4524 22.8003C21.2743 23.2175 20.3015 23.4207 19.6383 23.5196C19.3067 23.5691 19.053 23.5924 18.8902 23.6034C18.8089 23.6089 18.7504 23.6113 18.7163 23.6123C18.6993 23.6129 18.6884 23.613 18.6839 23.6131C18.6816 23.6131 18.6809 23.6131 18.6818 23.6131C18.6823 23.6131 18.6831 23.6131 18.6844 23.6131C18.6851 23.6131 18.6858 23.6131 18.6866 23.6131C18.687 23.6131 18.6878 23.6131 18.688 23.6131C18.6887 23.6131 18.6895 23.6131 18.6837 25.1131ZM11.5837 20.1345L17.623 26.1738L19.7444 24.0525L13.705 18.0131L11.5837 20.1345ZM18.8956 4.36765C15.0532 7.92537 13.1084 11.5392 12.1294 14.3038C11.6411 15.6826 11.3949 16.8445 11.2707 17.6767C11.2086 18.0928 11.177 18.427 11.1609 18.6653C11.1529 18.7844 11.1487 18.8796 11.1466 18.9492C11.1455 18.984 11.1449 19.0124 11.1447 19.0342C11.1445 19.0451 11.1444 19.0544 11.1444 19.0619C11.1444 19.0657 11.1444 19.0691 11.1444 19.072C11.1444 19.0735 11.1444 19.0748 11.1444 19.0761C11.1444 19.0767 11.1444 19.0776 11.1444 19.0779C11.1444 19.0787 11.1444 19.0795 12.6444 19.0738C14.1444 19.068 14.1444 19.0688 14.1444 19.0695C14.1444 19.0697 14.1444 19.0705 14.1444 19.0709C14.1444 19.0717 14.1444 19.0725 14.1444 19.0731C14.1444 19.0744 14.1444 19.0752 14.1444 19.0757C14.1444 19.0766 14.1444 19.0759 14.1444 19.0737C14.1445 19.0691 14.1446 19.0582 14.1452 19.0412C14.1462 19.0072 14.1486 18.9487 14.1541 18.8673C14.1651 18.7046 14.1884 18.4509 14.2379 18.1193C14.3368 17.4561 14.5401 16.4834 14.9573 15.3053C15.7892 12.9561 17.4796 9.76717 20.9338 6.56895L18.8956 4.36765ZM25.0388 14.7386C24.6383 14.7386 24.2468 14.6198 23.9138 14.3973L22.2471 16.8917C23.0734 17.4439 24.045 17.7386 25.0388 17.7386V14.7386ZM25.8138 14.5845C25.5681 14.6862 25.3047 14.7386 25.0388 14.7386V17.7386C25.6987 17.7386 26.3521 17.6086 26.9618 17.3561L25.8138 14.5845ZM26.4707 14.1455C26.2827 14.3335 26.0594 14.4827 25.8138 14.5845L26.9618 17.3561C27.5715 17.1036 28.1254 16.7334 28.592 16.2668L26.4707 14.1455ZM26.9097 13.4885C26.8079 13.7342 26.6588 13.9575 26.4707 14.1455L28.592 16.2668C29.0586 15.8002 29.4288 15.2463 29.6813 14.6366L26.9097 13.4885ZM27.0638 12.7136C27.0638 12.9795 27.0114 13.2429 26.9097 13.4885L29.6813 14.6366C29.9338 14.0269 30.0638 13.3735 30.0638 12.7136H27.0638ZM26.7225 11.5886C26.9451 11.9216 27.0638 12.3131 27.0638 12.7136H30.0638C30.0638 11.7198 29.7691 10.7482 29.217 9.92187L26.7225 11.5886ZM25.8138 10.8428C26.1838 10.996 26.5 11.2556 26.7225 11.5886L29.217 9.92187C28.6648 9.09551 27.88 8.45144 26.9618 8.07111L25.8138 10.8428ZM24.6438 10.7275C25.0366 10.6494 25.4437 10.6895 25.8138 10.8428L26.9618 8.07111C26.0436 7.69078 25.0332 7.59127 24.0585 7.78516L24.6438 10.7275ZM23.6069 11.2817C23.8901 10.9985 24.2509 10.8057 24.6438 10.7275L24.0585 7.78516C23.0837 7.97905 22.1884 8.45764 21.4856 9.1604L23.6069 11.2817ZM23.0527 12.3186C23.1309 11.9257 23.3237 11.5649 23.6069 11.2817L21.4856 9.1604C20.7828 9.86316 20.3043 10.7585 20.1104 11.7333L23.0527 12.3186ZM23.168 13.4885C23.0147 13.1185 22.9746 12.7114 23.0527 12.3186L20.1104 11.7333C19.9165 12.708 20.016 13.7184 20.3963 14.6366L23.168 13.4885ZM23.9138 14.3973C23.5808 14.1748 23.3212 13.8586 23.168 13.4885L20.3963 14.6366C20.7767 15.5548 21.4207 16.3396 22.2471 16.8917L23.9138 14.3973Z" fill="white" mask="url(#path-1-inside-1_1_2843)"/>
</svg>
