<svg width="40" height="40" viewBox="0 0 40 40" fill="none" xmlns="http://www.w3.org/2000/svg">
<path fill-rule="evenodd" clip-rule="evenodd" d="M0.723982 40H39.276C39.6758 40 40 39.6758 40 39.276C40 38.8762 39.6758 38.552 39.276 38.552H1.44796V0.723982C1.44796 0.324163 1.1238 0 0.723982 0C0.324163 0 0 0.324163 0 0.723982V39.276C0 39.6758 0.324163 40 0.723982 40ZM35.8566 7.71111C35.858 7.73256 35.8588 7.75409 35.8585 7.77563C35.8584 7.78405 35.8577 7.79247 35.8573 7.80079C35.8564 7.81907 35.8548 7.83726 35.8526 7.85545C35.8522 7.85863 35.8521 7.86176 35.8518 7.86491C35.8517 7.86616 35.8516 7.86741 35.8514 7.86866L34.9874 13.7879C34.9348 14.1481 34.6255 14.4074 34.2719 14.4074C34.2372 14.4074 34.202 14.4049 34.1665 14.3997C33.7709 14.342 33.4968 13.9745 33.5547 13.5788L34.1033 9.81971L20.0825 23.8404C19.9109 24.012 19.6648 24.0865 19.427 24.0381C19.1891 23.9899 18.9912 23.8258 18.8999 23.601L17.647 20.5168L5.37918 32.7847C5.23783 32.926 5.05258 32.9967 4.86724 32.9967C4.6819 32.9967 4.49665 32.926 4.35529 32.7847C4.07249 32.5019 4.07249 32.0436 4.35529 31.7608L17.3949 18.7212C17.5665 18.5496 17.8127 18.4754 18.0505 18.5235C18.2883 18.5717 18.4862 18.7358 18.5776 18.9606L19.8305 22.0449L33.0793 8.79599L29.3201 9.34468C28.9242 9.40242 28.557 9.12848 28.4992 8.73283C28.4414 8.33717 28.7154 7.96966 29.111 7.91192L35.0303 7.04803C35.0348 7.0474 35.0395 7.0474 35.0442 7.04685C35.0622 7.04459 35.0802 7.04314 35.0982 7.04224C35.1066 7.04179 35.115 7.04115 35.1234 7.04106C35.1454 7.0407 35.1673 7.04142 35.1892 7.04305C35.1911 7.04318 35.193 7.04323 35.1948 7.04328C35.1969 7.04334 35.1991 7.0434 35.2012 7.0436C35.2274 7.04595 35.2534 7.04993 35.2793 7.05518C35.2823 7.05579 35.2853 7.05656 35.2883 7.05734C35.2902 7.05784 35.2921 7.05834 35.294 7.0588C35.3147 7.06342 35.3351 7.06885 35.3553 7.07527C35.3604 7.0769 35.3653 7.07867 35.3702 7.08045C35.3721 7.08114 35.374 7.08183 35.3759 7.08251C35.3939 7.08885 35.4118 7.0959 35.4295 7.10378C35.4366 7.10695 35.4435 7.11011 35.4505 7.11355C35.4676 7.1217 35.4842 7.13084 35.5008 7.14052C35.5027 7.14165 35.5047 7.14276 35.5066 7.14386C35.5114 7.14665 35.5161 7.14939 35.5208 7.15237C35.5376 7.16287 35.5537 7.17437 35.5697 7.1864C35.5753 7.19057 35.5811 7.19446 35.5866 7.1988C35.6074 7.21545 35.6277 7.23319 35.647 7.25247C35.6662 7.27174 35.684 7.29201 35.7006 7.31283C35.705 7.31826 35.7088 7.32396 35.7128 7.32948C35.7251 7.3455 35.7366 7.36179 35.7472 7.37862C35.7507 7.38403 35.7538 7.38956 35.757 7.39512L35.7588 7.39826C35.7687 7.41491 35.7777 7.43174 35.7862 7.44894C35.7895 7.45581 35.7927 7.46269 35.7957 7.46975C35.8036 7.4874 35.8107 7.50532 35.817 7.52342C35.8178 7.5255 35.8185 7.52758 35.8193 7.52966C35.821 7.53442 35.8227 7.53917 35.8242 7.54396C35.8307 7.56405 35.836 7.58441 35.8406 7.60495C35.8411 7.60716 35.8417 7.60935 35.8423 7.61153C35.843 7.61437 35.8437 7.6172 35.8443 7.62007C35.8496 7.64586 35.8535 7.67174 35.8558 7.6979C35.8561 7.70027 35.8562 7.70268 35.8562 7.70509C35.8563 7.70709 35.8564 7.7091 35.8566 7.71111Z" fill="white"/>
</svg>
