<svg width="40" height="30" viewBox="0 0 40 30" fill="none" xmlns="http://www.w3.org/2000/svg">
<path fill-rule="evenodd" clip-rule="evenodd" d="M35.8333 30H4.16665C2.32581 30 0.833313 28.5075 0.833313 26.6667V3.33333C0.833313 1.4925 2.32581 0 4.16665 0H35.8333C37.6741 0 39.1666 1.4925 39.1666 3.33333V26.6667C39.1666 28.5075 37.6741 30 35.8333 30ZM9.99998 1.66667H4.16665C3.24665 1.66667 2.49998 2.41333 2.49998 3.33333V5H9.99998V1.66667ZM19.1666 1.66667H11.6666V5H19.1666V1.66667ZM28.3333 1.66667H20.8333V5H28.3333V1.66667ZM37.5 3.33333C37.5 2.41333 36.7533 1.66667 35.8333 1.66667H30V5H37.5V3.33333ZM37.5 6.66667H2.49998V23.3333H37.5V6.66667ZM37.5 25H30V28.3333H28.3333V25H20.8333V28.3333H19.1666V25H11.6666V28.3333H9.99998V25H2.49998V26.6667C2.49998 27.5867 3.24665 28.3333 4.16665 28.3333H35.8333C36.7533 28.3333 37.5 27.5867 37.5 26.6667V25ZM18.0175 19.8042C17.8741 19.92 17.6983 20 17.5 20C17.0391 20 16.6666 19.6275 16.6666 19.1667V10.8333C16.6666 10.3733 17.0391 10 17.5 10C17.6775 10 17.8333 10.0683 17.9691 10.1633L24.445 14.2233C24.7666 14.3375 25 14.6383 25 15C25 15.2708 24.8625 15.5008 24.6625 15.6525L18.0175 19.8042Z" fill="#FCFFFD"/>
</svg>
