<svg width="36" height="42" viewBox="0 0 36 42" fill="none" xmlns="http://www.w3.org/2000/svg">
<path d="M27.5183 16.459C27.5183 21.779 23.1628 26.1348 17.8434 26.1348C12.524 26.1348 8.16858 21.779 8.16858 16.459C8.16858 11.139 12.524 6.7832 17.8434 6.7832C23.1628 6.7832 27.5183 11.139 27.5183 16.459Z" stroke="white" stroke-width="1.5"/>
<path d="M30.1251 24.8971L29.8806 25.2544L30.0678 25.6449L34.6081 35.1146C34.6691 35.2992 34.6972 35.3986 34.7042 35.482C34.7071 35.5173 34.7044 35.536 34.7022 35.5453C34.7004 35.5531 34.6964 35.5668 34.6809 35.59C34.5087 35.8484 34.3233 35.9076 34.2625 35.9076H34.2386L34.2147 35.9091L28.0901 36.3001L27.7884 36.3193L27.5844 36.5425L23.427 41.0897C23.3469 41.168 23.2937 41.2006 23.2561 41.2173C23.2202 41.2332 23.1637 41.2504 23.0558 41.2504H23.055H23.0543H23.0535H23.0527H23.052H23.0512H23.0505H23.0497H23.0489H23.0482H23.0474H23.0466H23.0459H23.0451H23.0443H23.0436H23.0428H23.0421H23.0413H23.0405H23.0398H23.039H23.0382H23.0375H23.0367H23.036H23.0352H23.0344H23.0337H23.0329H23.0322H23.0314H23.0306H23.0299H23.0291H23.0284H23.0276H23.0268H23.0261H23.0253H23.0246H23.0238H23.023H23.0223H23.0215H23.0208H23.02H23.0193H23.0185H23.0177H23.017H23.0162H23.0155H23.0147H23.014H23.0132H23.0125H23.0117H23.011H23.0102H23.0094H23.0087H23.0079H23.0072H23.0064H23.0057H23.0049H23.0042H23.0034H23.0027H23.0019H23.0012H23.0004H22.9997H22.9989H22.9982H22.9974H22.9967H22.996H22.9952H22.9945H22.9937H22.993H22.9922H22.9915H22.9908H22.99H22.9893H22.9885H22.9878H22.987H22.9863H22.9856H22.9848H22.9841H22.9834H22.9826H22.9819H22.9812H22.9804H22.9797H22.9789H22.9782H22.9775H22.9768H22.976H22.9753H22.9746H22.9738H22.9731H22.9724H22.9716H22.9709H22.9702H22.9695H22.9687H22.968H22.9673H22.9666H22.9659H22.9651H22.9644H22.9637H22.963H22.9623H22.9615H22.9608H22.9601H22.9594H22.9587H22.958H22.9572H22.9565H22.9558H22.9551H22.9544H22.9537H22.953H22.9523H22.9516H22.9509H22.9502H22.9495H22.9487H22.948H22.9473H22.9466H22.9459H22.9452H22.9445H22.9438H22.9432H22.9425H22.9418H22.9411H22.9404H22.9397H22.939H22.9383H22.9376H22.9369H22.9362H22.9355H22.9349H22.9342H22.9335H22.9328H22.9321H22.9314H22.9308H22.9301H22.9294H22.9287H22.9281H22.9274H22.9267H22.926H22.9254H22.9247H22.924H22.9234H22.9227H22.922H22.9214H22.9207H22.92H22.9194H22.9187H22.918H22.9174H22.9167H22.9161H22.9154H22.9148H22.9141H22.9135H22.9128H22.9122H22.9115H22.9109H22.9102H22.9096H22.9089H22.9083H22.9076H22.907H22.9064H22.9057H22.9051H22.9044H22.9038H22.9032H22.9025H22.9019H22.9013H22.9007H22.9H22.8994H22.8988H22.8982H22.8975H22.8969H22.8963H22.8957H22.8951H22.8949C22.5486 41.1477 22.4747 41.0128 22.4642 40.9813L22.449 40.9356L22.428 40.8921L18.649 33.0735L17.9737 31.6764L17.2984 33.0735L13.5435 40.8422C13.448 40.9792 13.3435 41.0969 13.2474 41.1756C13.1829 41.2283 13.1449 41.2455 13.1328 41.2504H13.1324H13.1316H13.1309H13.1301H13.1293H13.1286H13.1278H13.127H13.1263H13.1255H13.1248H13.124H13.1232H13.1225H13.1217H13.121H13.1202H13.1195H13.1187H13.1179H13.1172H13.1164H13.1157H13.1149H13.1142H13.1134H13.1126H13.1119H13.1111H13.1104H13.1096H13.1089H13.1081H13.1074H13.1066H13.1059H13.1051H13.1043H13.1036H13.1028H13.1021H13.1013H13.1006H13.0998H13.0991H13.0983H13.0976H13.0968H13.0961H13.0954H13.0946H13.0939H13.0931H13.0924H13.0916H13.0909H13.0901H13.0894H13.0886H13.0879H13.0872H13.0864H13.0857H13.0849H13.0842H13.0835H13.0827H13.082H13.0812H13.0805H13.0798H13.079H13.0783H13.0776H13.0768H13.0761H13.0754H13.0746H13.0739H13.0732H13.0724H13.0717H13.071H13.0702H13.0695H13.0688H13.0681H13.0673H13.0666H13.0659H13.0652H13.0644H13.0637H13.063H13.0623H13.0615H13.0608H13.0601H13.0594H13.0587H13.0579H13.0572H13.0565H13.0558H13.0551H13.0544H13.0537H13.0529H13.0522H13.0515H13.0508H13.0501H13.0494H13.0487H13.048H13.0473H13.0466H13.0459H13.0452H13.0445H13.0438H13.0431H13.0424H13.0417H13.041H13.0403H13.0396H13.0389H13.0382H13.0375H13.0368H13.0361H13.0354H13.0347H13.034H13.0333H13.0326H13.032H13.0313H13.0306H13.0299H13.0292H13.0285H13.0279H13.0272H13.0265H13.0258H13.0251H13.0245H13.0238H13.0231H13.0224H13.0218H13.0211H13.0204H13.0198H13.0191H13.0184H13.0178H13.0171H13.0164H13.0158H13.0151H13.0145H13.0138H13.0131H13.0125H13.0118H13.0112H13.0105H13.0099H13.0092H13.0086H13.0079H13.0073H13.0066H13.006H13.0053H13.0047H13.004H13.0034H13.0028H13.0021H13.0015H13.0009H13.0002H12.9996H12.999H12.9983H12.9977H12.9971H12.9964H12.9958H12.9952H12.9946H12.9939H12.9933H12.9927H12.9921H12.9915H12.9909H12.9902H12.9896H12.989H12.9884H12.9878H12.9872H12.9866H12.986H12.9854H12.9848H12.9842H12.9836H12.983H12.9824H12.9818H12.9812H12.9806H12.98H12.9794H12.9788H12.9782H12.9777H12.9771H12.9765H12.9759H12.9753H12.9748H12.9742H12.9736H12.973H12.9725H12.9719H12.9713H12.9708H12.9702H12.9696H12.9691H12.9685H12.9679H12.9674H12.9668H12.9663H12.9657H12.9652H12.9646H12.9641H12.9635H12.963H12.9624H12.9619H12.9613H12.9608H12.9603H12.9597H12.9592H12.9587H12.9581H12.9576H12.9571H12.9565H12.956H12.9555H12.955H12.9545H12.9539H12.9534H12.9529H12.9524H12.9519H12.9514H12.9509H12.9504H12.9499H12.9494H12.9489H12.9484H12.9479H12.9474H12.9469H12.9464H12.9459H12.9454H12.9449H12.9444H12.944H12.9435H12.943H12.9425H12.942H12.9416H12.9411H12.9406H12.9402H12.9397H12.9392H12.9388H12.9383H12.9378H12.9374H12.9369H12.9365H12.936H12.9356H12.9351H12.9347H12.9342H12.9338H12.9334H12.9329H12.9325H12.9321H12.9316H12.9312H12.9308H12.9303H12.9299H12.9295H12.9291H12.9287H12.9282H12.9278H12.9274H12.927H12.9266H12.9262H12.9258H12.9254H12.925H12.9246H12.9242H12.9238H12.9234H12.923H12.9226H12.9222H12.9219H12.9215H12.9211H12.9207H12.9204H12.92H12.9196H12.9192H12.9189H12.9185H12.9182H12.9178H12.9174H12.9171H12.9167H12.9164H12.916H12.9157H12.9153H12.915H12.9147H12.9143H12.914H12.9137H12.9133H12.913H12.9127H12.9123H12.912H12.9117H12.9114H12.9111H12.9108H12.9104H12.9101H12.9098H12.9095H12.9092H12.9089H12.9086H12.9083H12.908H12.9078H12.9075H12.9072H12.9069H12.9066H12.9063H12.9061H12.9058H12.9055H12.9053H12.905H12.9047H12.9045H12.9042H12.904H12.9037H12.9035H12.9032H12.903H12.9027H12.9025H12.9022H12.902H12.9018H12.9015H12.9013H12.9011H12.9009H12.9006H12.9004H12.9002H12.9H12.8998H12.8996H12.8994H12.8992H12.899H12.8988H12.8986H12.8984H12.8982H12.898H12.8978H12.8976H12.8974H12.8973H12.8971H12.8969H12.8967H12.8966H12.8964H12.8963H12.8961H12.8959H12.8958H12.8956H12.8955H12.8953H12.8952H12.8951H12.8949H12.8948H12.8946H12.8945H12.8944H12.8943H12.8941H12.894H12.8939H12.8938H12.8937H12.8936H12.8935H12.8934H12.8933H12.8932H12.8931H12.893H12.8929H12.8928H12.8927H12.8927H12.8926H12.8925H12.8924H12.8924H12.8923H12.8922H12.8922H12.8921H12.8921H12.892H12.892H12.8919H12.8919H12.8918H12.8918H12.8918H12.8917H12.8917H12.8916H12.8916C12.8735 41.2504 12.8054 41.2428 12.714 41.2063C12.6315 41.1732 12.5638 41.1299 12.5185 41.0876L8.363 36.5425L8.15899 36.3193L7.85726 36.3001L1.73267 35.9091L1.70881 35.9076H1.6935C1.68875 35.9067 1.6727 35.9033 1.64464 35.8925C1.59872 35.8748 1.54182 35.8455 1.48194 35.8055C1.42232 35.7658 1.37156 35.7234 1.33563 35.6875C1.32581 35.6777 1.31844 35.6697 1.31313 35.6637C1.3115 35.6569 1.30955 35.6479 1.30753 35.6366C1.30012 35.5949 1.29468 35.5376 1.29468 35.4685C1.29468 35.3411 1.31302 35.2105 1.34275 35.1066L5.75115 25.7712L5.93706 25.3775L5.68739 25.0208C3.94527 22.5321 2.95614 19.6835 2.95614 16.4595C2.95614 8.27324 9.65711 1.57227 17.8434 1.57227C26.0297 1.57227 32.7306 8.27324 32.7306 16.4595C32.7306 19.5606 31.737 22.5413 30.1251 24.8971Z" stroke="white" stroke-width="1.5"/>
<path d="M17.4185 10.6262C17.6142 10.3116 18.0721 10.3116 18.2677 10.6262L19.9187 13.2812C19.9876 13.3919 20.0969 13.4713 20.2235 13.5026L23.2589 14.2521C23.6187 14.3409 23.7602 14.7765 23.5214 15.0598L21.5063 17.45C21.4222 17.5497 21.3805 17.6783 21.3898 17.8083L21.615 20.9264C21.6416 21.296 21.2712 21.5651 20.9279 21.4256L18.0315 20.2479C17.9107 20.1988 17.7756 20.1988 17.6548 20.2479L14.7584 21.4256C14.4151 21.5651 14.0446 21.296 14.0713 20.9264L14.2964 17.8083C14.3058 17.6783 14.264 17.5497 14.18 17.45L12.1649 15.0598C11.9261 14.7765 12.0676 14.3409 12.4273 14.2521L15.4628 13.5026C15.5894 13.4713 15.6987 13.3919 15.7676 13.2812L17.4185 10.6262Z" fill="white"/>
</svg>
